<?xml version="1.0" encoding="utf-8"?>
<!-- Generator: Adobe Illustrator 19.1.0, SVG Export Plug-In . SVG Version: 6.00 Build 0)  -->
<svg version="1.1" xmlns="http://www.w3.org/2000/svg" xmlns:xlink="http://www.w3.org/1999/xlink" x="0px" y="0px"
	 viewBox="0 0 300 300" style="enable-background:new 0 0 300 300;" xml:space="preserve">
<style type="text/css">
	.st0{fill:#007CB2;}
	.st1{display:none;}
	.st2{display:inline;fill:#005B8A;}
	.st3{fill:#005B8A;}
</style>
<g id="Layer_4">
	<path class="st0" d="M150,5c38.7,0,75.1,15.1,102.5,42.5C279.9,74.9,295,111.3,295,150s-15.1,75.1-42.5,102.5
		C225.1,279.9,188.7,295,150,295s-75.1-15.1-102.5-42.5C20.1,225.1,5,188.7,5,150S20.1,74.9,47.5,47.5C74.9,20.1,111.3,5,150,5
		 M150,0C67.2,0,0,67.2,0,150s67.2,150,150,150s150-67.2,150-150S232.8,0,150,0L150,0z"/>
</g>
<g id="Layer_1" class="st1">
	<path class="st2" d="M132.4,75.5c-23.8,0-34.2,19.8-34.2,39.8c0,26.3,15.8,38.2,15.8,47c0,3.5-2.3,7.7-8.9,11.2l-34.9,18.7
		c-12.3,6.7-6.1,32.2-6.1,32.2h136.5c0,0,6-25.8-6.1-32.2l-34.9-18.6c-6.5-3.5-9.3-7.2-9.3-10.5c0-8.1,16.1-19.4,16.1-47.8
		C166.4,91.7,153.7,75.5,132.4,75.5z M212.8,88h-6.1c-6.1,0-6.1,0-6.1,6.1v12.4h-12.4c-6.1,0-6.1,0-6.1,6.1v6.1c0,6.1,0,6.1,6.1,6.1
		h12.4v12.4c0,6.1,0,6.1,6.1,6.1h6.1c6.1,0,6.1,0,6.1-6.1v-12.4h12.4c6.1,0,6.1,0,6.1-6.1v-6.1c0-6.1,0-6.1-6.1-6.1h-12.4V94.1
		C219.1,88,219.1,88,212.8,88z"/>
</g>
<g id="Layer_2">
	<path class="st3" d="M131.6,119.5l-17,17l54.6,54.6l85.3-102.3l-17-15L167.2,153L131.6,119.5z M201,199h-97v-98h95.5l23-25H79v148
		h148v-89.1l-26,30.6V199z"/>
</g>
<g id="Layer_3" class="st1">
	<path class="st2" d="M163.6,130c-15.7-6.5-15.7-8.8-15.7-10.3c0-3.7,5-4.3,8-4.3c9.2,0,14.8,3.2,17.5,4.8l11.8,6.7L198,92.8l-8.5-5
		c-5.6-3.3-11.6-5.5-18.3-6.8V61.8h-34.7v21.4c-17,6.3-27.9,20.9-27.9,38.7c0,27.9,26.5,38.4,37.8,42.8c13.6,5.5,13.6,9.2,13.6,11.2
		c0,4.8-5.6,6.5-10.4,6.5c-7,0-14.5-2.2-20.2-6l-12.4-8.3l-12.4,34.7l7.1,5.1c6,4.3,14.5,7.6,23.4,9.2v19.8h34.9v-21.9
		c17.8-6.5,29.2-21.8,29.2-40.4C199.4,147.7,178.9,136.2,163.6,130z"/>
</g>
</svg>
