<?xml version="1.0" encoding="utf-8"?>
<!-- Generator: Adobe Illustrator 19.1.0, SVG Export Plug-In . SVG Version: 6.00 Build 0)  -->
<svg version="1.1" id="Layer_1" xmlns="http://www.w3.org/2000/svg" xmlns:xlink="http://www.w3.org/1999/xlink" x="0px" y="0px"
	 viewBox="10 118.2 320.6 64.8" style="enable-background:new 10 118.2 320.6 64.8;" xml:space="preserve">
<style type="text/css">
	.st0{fill:#FFFFFF;}
</style>
<g>
	<path class="st0" d="M101,168.1l7.1,0l0,1.8l-5,0l0,3.3l4.3,0l0,1.8l-4.3,0l0,4.9l-2.1,0L101,168.1z"/>
	<path class="st0" d="M117.4,180.2c-0.8,0-1.5-0.1-2.1-0.4c-0.6-0.3-1.2-0.7-1.6-1.2c-0.5-0.5-0.8-1.2-1.1-1.9
		c-0.2-0.8-0.4-1.6-0.4-2.6c0-0.9,0.1-1.8,0.4-2.5c0.3-0.7,0.6-1.4,1.1-1.9c0.5-0.5,1-0.9,1.6-1.2c0.6-0.3,1.3-0.4,2.1-0.4
		s1.5,0.1,2.1,0.4c0.6,0.3,1.2,0.7,1.6,1.2c0.5,0.5,0.8,1.2,1.1,1.9c0.2,0.8,0.4,1.6,0.4,2.5c0,1-0.1,1.8-0.4,2.6
		c-0.3,0.8-0.6,1.4-1.1,1.9c-0.5,0.5-1,0.9-1.7,1.2C118.9,180,118.2,180.2,117.4,180.2z M117.5,178.3c0.5,0,0.9-0.1,1.3-0.3
		c0.4-0.2,0.7-0.5,1-0.9c0.3-0.4,0.5-0.8,0.6-1.4c0.1-0.5,0.2-1.1,0.2-1.8c0-1.3-0.3-2.4-0.8-3.1c-0.5-0.8-1.3-1.1-2.2-1.1
		c-0.9,0-1.7,0.4-2.2,1.1c-0.5,0.7-0.8,1.8-0.8,3.1c0,0.7,0.1,1.3,0.2,1.8c0.1,0.5,0.3,1,0.6,1.4c0.3,0.4,0.6,0.7,1,0.9
		C116.6,178.2,117,178.3,117.5,178.3z"/>
	<path class="st0" d="M134.3,180l-2.5-4.6l-1.8,0l0,4.6l-2.1,0l0.1-11.8l4,0c0.6,0,1.2,0.1,1.7,0.2c0.5,0.1,1,0.3,1.4,0.6
		c0.4,0.3,0.7,0.6,0.9,1.1c0.2,0.4,0.3,1,0.3,1.7c0,0.9-0.2,1.6-0.6,2.2c-0.4,0.6-1,0.9-1.7,1.2l2.8,4.9L134.3,180z M130,173.7
		l1.7,0c0.8,0,1.4-0.2,1.8-0.5c0.4-0.3,0.6-0.8,0.6-1.5c0-0.7-0.2-1.2-0.6-1.4c-0.4-0.3-1-0.4-1.8-0.4l-1.7,0L130,173.7z"/>
	<path class="st0" d="M160.2,176.9l-4,0l-0.9,3.2l-2.1,0l3.9-11.8l2.4,0l3.8,11.8l-2.2,0L160.2,176.9z M159.7,175.3l-0.4-1.4
		c-0.2-0.6-0.4-1.3-0.5-1.9c-0.2-0.7-0.3-1.3-0.5-2l-0.1,0c-0.2,0.7-0.3,1.3-0.5,2c-0.2,0.7-0.4,1.3-0.5,1.9l-0.4,1.4L159.7,175.3z"
		/>
	<path class="st0" d="M167.7,168.4l2.3,0l2.1,5.8l0.8,2.2l0.1,0l0.8-2.2l2.1-5.8l2.3,0l-0.1,11.8l-2,0l0-5.4c0-0.3,0-0.6,0-0.9
		c0-0.3,0-0.7,0.1-1c0-0.3,0.1-0.7,0.1-1c0-0.3,0.1-0.6,0.1-0.9l-0.1,0l-1,2.7l-2.1,5.3l-1,0l-2-5.4l-0.9-2.7l-0.1,0
		c0,0.3,0,0.6,0.1,0.9c0,0.3,0.1,0.6,0.1,1c0,0.3,0.1,0.7,0.1,1c0,0.3,0,0.6,0,0.9l0,5.4l-1.9,0L167.7,168.4z"/>
	<path class="st0" d="M184,168.5l7.1,0l0,1.8l-5,0l0,3l4.2,0l0,1.8l-4.2,0l0,3.5l5.2,0l0,1.8l-7.3,0L184,168.5z"/>
	<path class="st0" d="M202.9,180.3l-2.5-4.6l-1.8,0l0,4.6l-2.1,0l0.1-11.8l4,0c0.6,0,1.2,0.1,1.7,0.2s1,0.3,1.4,0.6s0.7,0.6,0.9,1.1
		c0.2,0.4,0.3,1,0.3,1.7c0,0.9-0.2,1.6-0.6,2.2c-0.4,0.6-1,0.9-1.7,1.2l2.8,4.9L202.9,180.3z M198.6,174l1.7,0
		c0.8,0,1.4-0.2,1.8-0.5c0.4-0.3,0.6-0.8,0.6-1.5c0-0.7-0.2-1.2-0.6-1.4c-0.4-0.3-1-0.4-1.8-0.4l-1.7,0L198.6,174z"/>
	<path class="st0" d="M210.2,168.6l2.1,0l-0.1,11.8l-2.1,0L210.2,168.6z"/>
	<path class="st0" d="M217.5,174.5c0-1,0.1-1.8,0.4-2.6c0.3-0.8,0.7-1.4,1.2-1.9c0.5-0.5,1.1-0.9,1.7-1.2c0.7-0.3,1.4-0.4,2.1-0.4
		c0.7,0,1.4,0.2,1.9,0.5c0.6,0.3,1,0.7,1.4,1.1l-1.2,1.3c-0.3-0.3-0.6-0.5-1-0.7c-0.3-0.2-0.7-0.3-1.2-0.3c-0.5,0-0.9,0.1-1.3,0.3
		c-0.4,0.2-0.8,0.5-1,0.8c-0.3,0.4-0.5,0.8-0.7,1.3c-0.2,0.5-0.2,1.1-0.3,1.8c0,1.3,0.3,2.4,0.9,3.2c0.6,0.8,1.4,1.1,2.4,1.2
		c0.5,0,1-0.1,1.4-0.3c0.4-0.2,0.8-0.5,1.1-0.9l1.2,1.3c-0.5,0.6-1,1-1.6,1.3c-0.6,0.3-1.3,0.4-2,0.4c-0.8,0-1.5-0.1-2.1-0.4
		c-0.6-0.3-1.2-0.7-1.7-1.2c-0.5-0.5-0.9-1.2-1.1-1.9C217.6,176.4,217.5,175.5,217.5,174.5z"/>
	<path class="st0" d="M236.8,177.3l-4,0l-0.9,3.2l-2.1,0l3.9-11.8l2.4,0l3.8,11.8l-2.2,0L236.8,177.3z M236.4,175.6l-0.4-1.4
		c-0.2-0.6-0.4-1.3-0.5-1.9c-0.2-0.7-0.3-1.3-0.5-2l-0.1,0c-0.2,0.7-0.3,1.3-0.5,2c-0.2,0.7-0.4,1.3-0.5,1.9l-0.4,1.4L236.4,175.6z"
		/>
</g>
<g>
	<path class="st0" d="M19.8,139.5c0.5,0.9,1.1,1.6,1.7,2c0.7,0.4,1.3,0.7,2,0.7c1.1,0,1.9-0.3,2.5-1c0.6-0.7,0.9-1.9,0.9-3.7
		l0.1-17.5l6.1,0L33,138c0,1.3-0.2,2.5-0.5,3.7c-0.3,1.2-0.9,2.2-1.6,3c-0.7,0.9-1.6,1.5-2.7,2c-1.1,0.5-2.4,0.7-3.9,0.7
		c-2.1,0-3.8-0.4-5.2-1.2c-1.4-0.8-2.5-2-3.5-3.7L19.8,139.5z"/>
	<path class="st0" d="M50.1,147.6c-1.8,0-3.5-0.3-5-1c-1.5-0.7-2.8-1.6-3.8-2.8c-1.1-1.2-1.9-2.7-2.5-4.4c-0.6-1.7-0.9-3.7-0.9-5.9
		c0-2.2,0.3-4.2,0.9-5.9c0.6-1.7,1.4-3.2,2.5-4.3c1.1-1.2,2.4-2.1,3.9-2.7c1.5-0.6,3.2-0.9,5-0.9c1.8,0,3.5,0.3,5,1
		c1.5,0.6,2.8,1.5,3.8,2.7c1.1,1.2,1.9,2.6,2.5,4.4c0.6,1.7,0.9,3.7,0.9,5.8c0,2.2-0.3,4.2-0.9,5.9c-0.6,1.7-1.4,3.2-2.5,4.4
		c-1.1,1.2-2.4,2.1-3.9,2.8C53.6,147.3,51.9,147.6,50.1,147.6z M50.1,142.3c1.8,0,3.3-0.8,4.4-2.4c1.1-1.6,1.6-3.7,1.6-6.5
		c0-2.7-0.5-4.8-1.6-6.3c-1.1-1.5-2.5-2.3-4.4-2.3c-1.8,0-3.3,0.7-4.4,2.3c-1.1,1.5-1.6,3.6-1.6,6.3c0,2.7,0.5,4.9,1.6,6.5
		C46.8,141.5,48.3,142.3,50.1,142.3z"/>
	<path class="st0" d="M69.2,139.6c1,0.8,2,1.5,3.2,2c1.2,0.5,2.3,0.8,3.4,0.8c1.3,0,2.2-0.2,2.8-0.7c0.6-0.5,0.9-1.1,0.9-1.9
		c0-0.4-0.1-0.8-0.3-1.1c-0.2-0.3-0.4-0.6-0.8-0.8c-0.3-0.2-0.8-0.5-1.2-0.7c-0.5-0.2-1-0.4-1.6-0.7l-3.5-1.5
		c-0.7-0.3-1.4-0.6-2-1.1c-0.6-0.4-1.2-1-1.7-1.6c-0.5-0.6-0.9-1.3-1.2-2.1c-0.3-0.8-0.4-1.7-0.4-2.7c0-1.1,0.2-2.1,0.7-3.1
		c0.5-1,1.1-1.8,2-2.6c0.9-0.7,1.9-1.3,3-1.7c1.2-0.4,2.5-0.6,3.9-0.6c1.6,0,3.1,0.3,4.6,0.9s2.9,1.5,4,2.7l-3.1,3.8
		c-0.9-0.7-1.8-1.2-2.6-1.6c-0.9-0.4-1.9-0.6-2.9-0.6c-1,0-1.9,0.2-2.5,0.6s-0.9,1-0.9,1.8c0,0.4,0.1,0.8,0.3,1.1
		c0.2,0.3,0.5,0.6,0.9,0.8c0.4,0.2,0.8,0.5,1.3,0.7c0.5,0.2,1,0.4,1.6,0.7l3.5,1.4c1.6,0.7,2.9,1.6,3.9,2.7c0.9,1.2,1.4,2.7,1.4,4.6
		c0,1.1-0.2,2.2-0.7,3.2c-0.5,1-1.1,1.9-2,2.6c-0.9,0.8-1.9,1.4-3.2,1.8c-1.3,0.4-2.7,0.7-4.3,0.7c-1.8,0-3.5-0.3-5.3-1
		c-1.7-0.7-3.3-1.6-4.7-2.9L69.2,139.6z"/>
	<path class="st0" d="M91.9,120.5l6.1,0l-0.1,26.9l-6.1,0L91.9,120.5z"/>
	<path class="st0" d="M116.9,141.1l-8.2,0l-1.7,6.4l-6.2,0l8.5-26.9l7.3,0l8.3,27l-6.4,0L116.9,141.1z M115.7,136.3l-0.6-2.5
		c-0.4-1.4-0.7-2.8-1.1-4.3c-0.4-1.5-0.7-3-1.1-4.4l-0.2,0c-0.3,1.4-0.7,2.9-1,4.4c-0.4,1.5-0.7,2.9-1.1,4.3l-0.7,2.5L115.7,136.3z"
		/>
	<path class="st0" d="M128,120.6l6.1,0l0,10.4l9.3,0l0-10.4l6.1,0l-0.1,26.9l-6.1,0l0-11.2l-9.3,0l0,11.2l-6.1,0L128,120.6z"/>
	<g>
		<path class="st0" d="M167.9,120.8l9.2,0c1.4,0,2.7,0.1,3.9,0.3c1.2,0.2,2.2,0.6,3.1,1.1c0.9,0.5,1.6,1.2,2.1,2.1
			c0.5,0.9,0.8,1.9,0.8,3.2c0,0.6-0.1,1.2-0.3,1.8c-0.2,0.6-0.5,1.2-0.8,1.7c-0.4,0.5-0.8,1-1.4,1.4c-0.6,0.4-1.3,0.7-2,0.9l0,0.2
			c1.9,0.4,3.4,1.1,4.3,2.1c1,1,1.5,2.4,1.4,4.3c0,1.4-0.3,2.6-0.8,3.5c-0.5,1-1.3,1.8-2.2,2.4c-1,0.6-2.1,1.1-3.3,1.4
			c-1.3,0.3-2.6,0.5-4.1,0.5l-10,0L167.9,120.8z M176.8,131.7c1.5,0,2.6-0.3,3.2-0.9c0.7-0.6,1-1.4,1-2.4c0-1-0.3-1.7-1-2.2
			c-0.7-0.4-1.7-0.7-3.2-0.7l-2.9,0l0,6.2L176.8,131.7z M177.3,143c3.3,0,5-1.2,5-3.7c0-1.2-0.4-2-1.2-2.6c-0.8-0.5-2.1-0.8-3.8-0.8
			l-3.4,0l0,7.1L177.3,143z"/>
		<path class="st0" d="M205.4,141.4l-8.2,0l-1.7,6.4l-6.2,0l8.5-26.9l7.3,0l8.3,27l-6.4,0L205.4,141.4z M204.2,136.7l-0.6-2.5
			c-0.4-1.4-0.7-2.8-1.1-4.3c-0.4-1.5-0.7-3-1.1-4.4l-0.2,0c-0.3,1.4-0.7,2.9-1,4.4c-0.4,1.5-0.7,2.9-1.1,4.3l-0.7,2.5L204.2,136.7z
			"/>
		<path class="st0" d="M231,148l-5.1-9.7l-3.3,0l0,9.7l-6.1,0l0.1-26.9l9.7,0c1.4,0,2.8,0.2,4,0.4c1.3,0.3,2.3,0.7,3.3,1.4
			c0.9,0.7,1.7,1.5,2.2,2.6c0.5,1.1,0.8,2.4,0.8,4c0,2-0.4,3.6-1.3,4.9c-0.9,1.3-2,2.2-3.5,2.9l6.1,10.8L231,148z M222.6,133.4
			l3.1,0c1.6,0,2.8-0.3,3.7-1c0.8-0.7,1.3-1.7,1.3-3s-0.4-2.2-1.2-2.8c-0.8-0.5-2.1-0.8-3.7-0.8l-3.1,0L222.6,133.4z"/>
		<path class="st0" d="M246.4,126.2l-7.4,0l0-5.1l20.9,0.1l0,5.1l-7.4,0l-0.1,21.8l-6.1,0L246.4,126.2z"/>
		<path class="st0" d="M264.1,121.2l6.1,0l-0.1,21.8l10.7,0l0,5.1l-16.7-0.1L264.1,121.2z"/>
		<path class="st0" d="M285.5,121.3l16.8,0.1l0,5.1l-10.8,0l0,5.4l9.2,0l0,5.1l-9.2,0l0,6.2l11.2,0l0,5.1l-17.3-0.1L285.5,121.3z"/>
		<path class="st0" d="M313.4,126.5l-7.4,0l0-5.1l20.9,0.1l0,5.1l-7.4,0l-0.1,21.8l-6.1,0L313.4,126.5z"/>
	</g>
</g>
<rect x="46.4" y="140.6" transform="matrix(4.296858e-03 -1 1 4.296858e-03 -126.934 220.7914)" class="st0" width="2" height="67"/>
<rect x="292.4" y="141.7" transform="matrix(4.296858e-03 -1 1 4.296858e-03 116.9497 467.8393)" class="st0" width="2" height="67"/>
</svg>
