<?xml version="1.0" encoding="utf-8"?>
<!-- Generator: Adobe Illustrator 19.1.0, SVG Export Plug-In . SVG Version: 6.00 Build 0)  -->
<svg version="1.1" id="Layer_1" xmlns="http://www.w3.org/2000/svg" xmlns:xlink="http://www.w3.org/1999/xlink" x="0px" y="0px"
	 viewBox="-21 79.9 256.9 143.1" style="enable-background:new -21 79.9 256.9 143.1;" xml:space="preserve">
<style type="text/css">
	.st0{fill:#007CB2;}
</style>
<path class="st0" d="M87.1,207l-4.6,14h2.5l1.1-3.8h4.7l1.1,3.8h2.6L90,207H87.1z M86.8,215.2l0.5-1.7c0.2-0.7,0.4-1.5,0.6-2.3
	c0.2-0.8,0.4-1.6,0.6-2.3h0.1c0.2,0.8,0.4,1.5,0.6,2.3c0.2,0.8,0.4,1.5,0.7,2.3l0.5,1.7H86.8z M178.1,207l-4.6,14h2.5l1.1-3.8h4.7
	l1.1,3.8h2.6l-4.6-14H178.1z M177.8,215.2l0.5-1.7c0.2-0.7,0.4-1.5,0.6-2.3c0.2-0.8,0.4-1.6,0.6-2.3h0.1c0.2,0.8,0.4,1.5,0.6,2.3
	c0.2,0.8,0.4,1.5,0.7,2.3l0.5,1.7H177.8z M61.7,213.7c0.5-0.7,0.8-1.5,0.8-2.6c0-0.8-0.1-1.4-0.4-2c-0.3-0.5-0.6-1-1.1-1.3
	c-0.5-0.3-1-0.6-1.6-0.7c-0.6-0.1-1.3-0.2-2-0.2h-4.7v14h2.5v-5.5h2.1l3,5.5H63l-3.3-5.8C60.5,214.8,61.2,214.3,61.7,213.7z
	 M57,213.5h-2v-4.6h2c1,0,1.7,0.2,2.2,0.5c0.5,0.3,0.8,0.9,0.8,1.7c0,0.8-0.3,1.4-0.8,1.8C58.7,213.3,58,213.5,57,213.5z
	 M121.6,214.7h5v-2.1h-5v-3.6h5.9V207h-8.4v14h8.6v-2.1h-6.2V214.7z M167,218.7c-0.5,0.2-1,0.4-1.6,0.4c-1.2,0-2.1-0.5-2.8-1.4
	c-0.7-0.9-1-2.2-1-3.7c0-0.8,0.1-1.5,0.3-2.1c0.2-0.6,0.5-1.2,0.8-1.6c0.3-0.4,0.8-0.8,1.2-1c0.5-0.2,1-0.4,1.6-0.4
	c0.5,0,1,0.1,1.4,0.3c0.4,0.2,0.8,0.5,1.1,0.8l1.4-1.5c-0.4-0.5-1-0.9-1.7-1.2c-0.7-0.4-1.4-0.5-2.3-0.5c-0.9,0-1.7,0.2-2.5,0.5
	c-0.8,0.3-1.5,0.8-2.1,1.4c-0.6,0.6-1,1.4-1.4,2.3c-0.3,0.9-0.5,1.9-0.5,3.1c0,1.2,0.2,2.2,0.5,3.1c0.3,0.9,0.8,1.7,1.3,2.3
	c0.6,0.6,1.2,1.1,2,1.4c0.8,0.3,1.6,0.5,2.5,0.5c0.9,0,1.7-0.2,2.4-0.5c0.7-0.4,1.4-0.9,1.9-1.5l-1.4-1.5
	C167.8,218.1,167.4,218.4,167,218.7z M44.6,208.6c-0.5-0.6-1.2-1.1-2-1.4c-0.8-0.3-1.6-0.5-2.5-0.5c-0.9,0-1.7,0.2-2.5,0.5
	c-0.8,0.3-1.4,0.8-1.9,1.4c-0.5,0.6-1,1.4-1.3,2.3c-0.3,0.9-0.4,1.9-0.4,3c0,1.1,0.1,2.2,0.4,3.1c0.3,0.9,0.7,1.7,1.3,2.3
	c0.5,0.6,1.2,1.1,1.9,1.5c0.8,0.3,1.6,0.5,2.5,0.5c0.9,0,1.7-0.2,2.5-0.5c0.8-0.3,1.4-0.8,2-1.5c0.5-0.6,1-1.4,1.3-2.3
	c0.3-0.9,0.4-1.9,0.4-3.1c0-1.1-0.1-2.1-0.4-3C45.6,210,45.2,209.2,44.6,208.6z M43.5,216c-0.2,0.6-0.4,1.2-0.7,1.6
	c-0.3,0.4-0.7,0.8-1.1,1c-0.4,0.2-0.9,0.4-1.5,0.4c-0.6,0-1.1-0.1-1.5-0.4c-0.4-0.2-0.8-0.6-1.1-1c-0.3-0.4-0.6-1-0.7-1.6
	c-0.2-0.6-0.3-1.3-0.3-2.1c0-1.6,0.3-2.8,1-3.7c0.6-0.9,1.5-1.3,2.6-1.3c1.1,0,2,0.4,2.6,1.3c0.6,0.9,1,2.1,1,3.7
	C43.8,214.7,43.7,215.4,43.5,216z M106.9,213.8l-0.9,2.6h-0.1l-0.9-2.6l-2.5-6.9h-2.7v14h2.3v-6.4c0-0.3,0-0.7,0-1.1
	c0-0.4-0.1-0.8-0.1-1.2c0-0.4-0.1-0.8-0.1-1.2c0-0.4-0.1-0.7-0.1-1.1h0.1l1.1,3.2l2.4,6.3h1.2l2.4-6.3l1.1-3.2h0.1
	c0,0.3-0.1,0.7-0.1,1.1c0,0.4-0.1,0.8-0.1,1.2c0,0.4-0.1,0.8-0.1,1.2c0,0.4,0,0.7,0,1.1v6.4h2.3v-14h-2.7L106.9,213.8z M143.1,213.7
	c0.5-0.7,0.8-1.5,0.8-2.6c0-0.8-0.1-1.4-0.4-2c-0.3-0.5-0.6-1-1.1-1.3c-0.5-0.3-1-0.6-1.6-0.7c-0.6-0.1-1.3-0.2-2-0.2H134v14h2.5
	v-5.5h2.1l3,5.5h2.8l-3.3-5.8C141.9,214.8,142.6,214.3,143.1,213.7z M138.5,213.5h-2v-4.6h2c1,0,1.7,0.2,2.2,0.5
	c0.5,0.3,0.8,0.9,0.8,1.7c0,0.8-0.3,1.4-0.8,1.8C140.1,213.3,139.4,213.5,138.5,213.5z M20.6,220.9h2.5v-5.8h5.1V213h-5.1v-4h6V207
	h-8.4V220.9z M150.2,220.9h2.5v-14h-2.5V220.9z M-15,216h25.8v-3H-15V216z M197.1,216h25.8v-3h-25.8V216z"/>
<g>
	<g>
		<path class="st0" d="M5.8,110c0.7,1.4,1.6,2.4,2.6,3.1s2,1,3.1,1c1.7,0,2.9-0.5,3.8-1.5c0.9-1,1.3-2.9,1.3-5.6l0.1-26.5l9.2,0
			l-0.1,27.2c0,2-0.3,3.8-0.8,5.6c-0.5,1.7-1.3,3.3-2.4,4.6c-1.1,1.3-2.4,2.3-4.1,3c-1.7,0.7-3.6,1.1-5.9,1.1
			c-3.1,0-5.7-0.6-7.8-1.8c-2.1-1.2-3.9-3.1-5.3-5.6L5.8,110z"/>
		<path class="st0" d="M51.7,122.2c-2.8,0-5.3-0.5-7.5-1.5c-2.3-1-4.2-2.4-5.8-4.2c-1.6-1.8-2.9-4.1-3.8-6.7c-0.9-2.6-1.3-5.6-1.3-9
			c0-3.3,0.5-6.3,1.4-8.9c0.9-2.6,2.2-4.8,3.8-6.6c1.6-1.8,3.6-3.1,5.9-4c2.3-0.9,4.8-1.4,7.5-1.4c2.8,0,5.3,0.5,7.5,1.4
			c2.3,0.9,4.2,2.3,5.8,4.1c1.6,1.8,2.9,4,3.8,6.6c0.9,2.6,1.3,5.6,1.3,8.9c0,3.3-0.5,6.3-1.4,8.9c-0.9,2.6-2.2,4.9-3.8,6.7
			c-1.6,1.8-3.6,3.2-5.9,4.2C57,121.7,54.5,122.2,51.7,122.2z M51.8,114.3c2.8,0,5-1.2,6.6-3.6c1.6-2.4,2.5-5.7,2.5-9.8
			c0-4.1-0.8-7.3-2.4-9.6c-1.6-2.3-3.8-3.5-6.6-3.5c-2.8,0-5,1.1-6.6,3.4c-1.6,2.3-2.5,5.5-2.5,9.6c0,4.1,0.8,7.4,2.4,9.8
			C46.8,113,49,114.2,51.8,114.3z"/>
		<path class="st0" d="M80.6,110.1c1.5,1.3,3.1,2.3,4.8,3.1c1.8,0.8,3.5,1.2,5.2,1.2c1.9,0,3.3-0.3,4.3-1c0.9-0.7,1.4-1.7,1.4-2.9
			c0-0.6-0.1-1.2-0.4-1.6c-0.3-0.5-0.7-0.9-1.2-1.2c-0.5-0.4-1.1-0.7-1.9-1c-0.7-0.3-1.5-0.7-2.4-1l-5.3-2.3c-1-0.4-2.1-1-3-1.6
			c-1-0.7-1.9-1.5-2.6-2.4c-0.8-0.9-1.4-1.9-1.8-3.1c-0.5-1.2-0.7-2.5-0.7-4c0-1.7,0.4-3.2,1.1-4.7c0.7-1.5,1.7-2.8,3-3.9
			c1.3-1.1,2.8-2,4.6-2.6c1.8-0.6,3.7-0.9,5.9-0.9c2.4,0,4.7,0.5,7,1.4c2.3,0.9,4.3,2.3,6.1,4l-4.7,5.8c-1.3-1-2.7-1.9-4-2.4
			c-1.3-0.6-2.8-0.9-4.4-0.9c-1.6,0-2.8,0.3-3.8,1c-0.9,0.6-1.4,1.5-1.4,2.7c0,0.6,0.2,1.2,0.5,1.6c0.3,0.4,0.7,0.8,1.3,1.2
			c0.6,0.4,1.2,0.7,2,1c0.7,0.3,1.6,0.7,2.4,1l5.2,2.2c2.5,1,4.5,2.4,5.9,4.2c1.4,1.8,2.1,4.1,2.1,7c0,1.7-0.4,3.3-1.1,4.8
			c-0.7,1.5-1.7,2.9-3,4c-1.3,1.1-2.9,2.1-4.9,2.7c-1.9,0.7-4.1,1-6.5,1c-2.7,0-5.3-0.5-8-1.5c-2.6-1-5-2.5-7.1-4.4L80.6,110.1z"/>
		<path class="st0" d="M115.1,81.1l9.2,0l-0.2,40.8l-9.2,0L115.1,81.1z"/>
		<path class="st0" d="M153,112.4l-12.5-0.1L138,122l-9.4,0l12.9-40.7l11.1,0l12.6,40.9l-9.8,0L153,112.4z M151.1,105.2l-0.9-3.8
			c-0.6-2-1.1-4.2-1.7-6.5c-0.5-2.3-1.1-4.5-1.6-6.6l-0.2,0c-0.5,2.2-1,4.4-1.6,6.7c-0.5,2.3-1.1,4.4-1.7,6.5l-1,3.7L151.1,105.2z"
			/>
		<path class="st0" d="M169.8,81.3l9.2,0l-0.1,15.7l14.1,0.1l0.1-15.7l9.3,0l-0.2,40.8l-9.3,0l0.1-17l-14.1-0.1l-0.1,17l-9.2,0
			L169.8,81.3z"/>
	</g>
	<g>
		<path class="st0" d="M-11.9,143.9l14,0.1c2.1,0,4.1,0.2,5.9,0.5c1.8,0.3,3.4,0.9,4.7,1.7c1.4,0.8,2.4,1.8,3.2,3.1
			c0.8,1.3,1.1,2.9,1.1,4.9c0,0.9-0.1,1.8-0.4,2.8c-0.3,0.9-0.7,1.8-1.2,2.6c-0.5,0.8-1.3,1.5-2.1,2.1c-0.9,0.6-1.9,1.1-3.1,1.4
			l0,0.3c2.9,0.6,5.1,1.6,6.6,3.2c1.5,1.6,2.2,3.7,2.2,6.5c0,2.1-0.4,3.9-1.2,5.4c-0.8,1.5-2,2.7-3.4,3.7c-1.4,1-3.1,1.7-5,2.2
			c-1.9,0.5-4,0.7-6.2,0.7l-15.1-0.1L-11.9,143.9z M1.6,160.4c2.3,0,3.9-0.4,4.9-1.3c1-0.9,1.5-2.1,1.5-3.7c0-1.5-0.5-2.7-1.5-3.3
			c-1-0.7-2.6-1-4.8-1l-4.4,0l0,9.3L1.6,160.4z M2.4,177.6c5,0,7.6-1.8,7.6-5.5c0-1.8-0.6-3.1-1.9-3.9c-1.2-0.8-3.1-1.2-5.7-1.2
			l-5.2,0l0,10.7L2.4,177.6z"/>
		<path class="st0" d="M45,175.2l-12.5-0.1l-2.5,9.7l-9.4,0l12.9-40.7l11.1,0L57.2,185l-9.8,0L45,175.2z M43.2,168l-0.9-3.8
			c-0.6-2-1.1-4.2-1.7-6.5c-0.5-2.3-1.1-4.5-1.6-6.6l-0.2,0c-0.5,2.2-1,4.4-1.6,6.7c-0.5,2.3-1.1,4.4-1.7,6.5l-1,3.7L43.2,168z"/>
		<path class="st0" d="M83.8,185.1L76,170.4l-5.1,0L70.9,185l-9.2,0l0.2-40.8l14.7,0.1c2.2,0,4.2,0.2,6.1,0.7c1.9,0.4,3.6,1.1,5,2.1
			c1.4,1,2.5,2.3,3.4,3.9c0.8,1.6,1.2,3.7,1.2,6.1c0,3-0.7,5.5-2,7.4c-1.3,1.9-3.1,3.4-5.3,4.3l9.2,16.4L83.8,185.1z M71,163l4.8,0
			c2.4,0,4.3-0.5,5.5-1.5c1.3-1,1.9-2.5,1.9-4.5c0-2-0.6-3.4-1.9-4.2c-1.3-0.8-3.1-1.2-5.5-1.2l-4.8,0L71,163z"/>
		<path class="st0" d="M107.1,152.2l-11.2,0l0-7.8l31.7,0.1l0,7.8l-11.2,0l-0.1,33l-9.3,0L107.1,152.2z"/>
		<path class="st0" d="M133.9,144.5l9.2,0l-0.1,33l16.1,0.1l0,7.8l-25.3-0.1L133.9,144.5z"/>
		<path class="st0" d="M166.3,144.7l25.5,0.1l0,7.8l-16.3-0.1l0,8.2l13.9,0.1l0,7.7l-13.9-0.1l0,9.4l17,0.1l0,7.8l-26.2-0.1
			L166.3,144.7z"/>
		<path class="st0" d="M208.6,152.6l-11.2,0l0-7.8l31.7,0.1l0,7.8l-11.2,0l-0.1,33l-9.3,0L208.6,152.6z"/>
	</g>
</g>
</svg>
