<?xml version="1.0" encoding="iso-8859-1"?>
<!-- Generator: Adobe Illustrator 19.0.0, SVG Export Plug-In . SVG Version: 6.00 Build 0)  -->
<svg version="1.1" id="Capa_1" xmlns="http://www.w3.org/2000/svg" xmlns:xlink="http://www.w3.org/1999/xlink" x="0px" y="0px"
	 viewBox="0 0 254 254" style="enable-background:new 0 0 254 254;" xml:space="preserve">
<path d="M241,202.5v-181h-30v45h-72v-7h-30v7H84v-7H54v7H43v-45H13v181H0v30h254v-30H241z M43,168.5h66v7h30v-7h25v7h30v-7h17v33H43
	V168.5z M54,96.5v7h30v-7h25v7h30v-7h72v42h-17v-7h-30v7h-25v-7h-30v7H43v-42H54z"/>
<g>
</g>
<g>
</g>
<g>
</g>
<g>
</g>
<g>
</g>
<g>
</g>
<g>
</g>
<g>
</g>
<g>
</g>
<g>
</g>
<g>
</g>
<g>
</g>
<g>
</g>
<g>
</g>
<g>
</g>
</svg>
