<?xml version="1.0" encoding="iso-8859-1"?>
<!-- Generator: Adobe Illustrator 19.0.0, SVG Export Plug-In . SVG Version: 6.00 Build 0)  -->
<svg version="1.1" id="Capa_1" xmlns="http://www.w3.org/2000/svg" xmlns:xlink="http://www.w3.org/1999/xlink" x="0px" y="0px"
	 viewBox="0 0 262.013 262.013" style="enable-background:new 0 0 262.013 262.013;" xml:space="preserve">
<g>
	<path d="M131.007,89.188c-23.059,0-41.818,18.76-41.818,41.818s18.76,41.818,41.818,41.818c23.06,0,41.819-18.76,41.819-41.818
		S154.066,89.188,131.007,89.188z M131.007,142.825c-6.517,0-11.818-5.302-11.818-11.818c0-6.517,5.302-11.818,11.818-11.818
		c6.518,0,11.819,5.302,11.819,11.818C142.826,137.523,137.524,142.825,131.007,142.825z"/>
	<path d="M236.547,131.007c7.132-11.85,12.947-23.684,17.224-35.188c12.959-34.856,10.574-63.573-6.715-80.862
		c-9.782-9.782-23.688-14.953-40.215-14.953c-22.249,0-48.811,9.182-75.835,25.455C103.983,9.186,77.421,0.004,55.173,0.004
		c-16.527,0-30.434,5.171-40.216,14.953C-2.332,32.246-4.717,60.962,8.242,95.819c4.277,11.504,10.092,23.338,17.224,35.188
		c-7.133,11.85-12.947,23.684-17.224,35.188c-12.959,34.856-10.574,63.573,6.715,80.862c9.782,9.782,23.688,14.953,40.216,14.953
		c22.249,0,48.812-9.182,75.836-25.456c27.022,16.271,53.583,25.453,75.832,25.453h0.004c16.523,0,30.431-5.169,40.212-14.952
		c17.289-17.289,19.674-46.004,6.715-80.861C249.494,154.69,243.68,142.857,236.547,131.007z M206.842,30.004
		c8.518,0,14.91,2.075,19.002,6.166c10.635,10.635,7.52,36.523-8.301,67.222c-8.301-10.699-17.567-21.207-27.64-31.281
		c-10.136-10.136-20.645-19.386-31.285-27.644C176.444,35.238,193.244,30.004,206.842,30.004z M200.633,131.006
		c-8.847,12.494-19.511,25.25-31.943,37.683c-12.028,12.028-24.838,22.797-37.681,31.901c-12.844-9.105-25.655-19.874-37.684-31.902
		c-12.433-12.433-23.096-25.188-31.943-37.682c8.847-12.494,19.51-25.249,31.943-37.682c12.029-12.029,24.84-22.797,37.683-31.902
		c12.843,9.104,25.653,19.873,37.682,31.901C181.122,105.757,191.786,118.513,200.633,131.006z M36.17,36.17
		c4.092-4.091,10.485-6.166,19.003-6.166c13.597,0,30.397,5.234,48.224,14.463c-10.64,8.259-21.15,17.508-31.286,27.645
		c-10.073,10.074-19.339,20.581-27.64,31.28C28.65,72.693,25.535,46.805,36.17,36.17z M55.173,232.01
		c-8.518,0-14.911-2.075-19.003-6.166c-10.635-10.635-7.52-36.523,8.302-67.223c8.3,10.699,17.566,21.206,27.64,31.28
		c10.137,10.136,20.646,19.386,31.287,27.645C85.571,226.776,68.77,232.01,55.173,232.01z M225.844,225.842
		c-4.092,4.092-10.483,6.165-18.999,6.165h-0.002c-13.598,0-30.397-5.233-48.224-14.462c10.64-8.258,21.148-17.507,31.283-27.643
		c10.073-10.074,19.34-20.582,27.64-31.281C233.363,189.32,236.478,215.207,225.844,225.842z"/>
</g>
<g>
</g>
<g>
</g>
<g>
</g>
<g>
</g>
<g>
</g>
<g>
</g>
<g>
</g>
<g>
</g>
<g>
</g>
<g>
</g>
<g>
</g>
<g>
</g>
<g>
</g>
<g>
</g>
<g>
</g>
</svg>
