<?xml version="1.0" encoding="iso-8859-1"?>
<!-- Generator: Adobe Illustrator 19.0.0, SVG Export Plug-In . SVG Version: 6.00 Build 0)  -->
<svg version="1.1" id="Capa_1" xmlns="http://www.w3.org/2000/svg" xmlns:xlink="http://www.w3.org/1999/xlink" x="0px" y="0px"
	 viewBox="0 0 243.99 243.99" style="enable-background:new 0 0 243.99 243.99;" xml:space="preserve">
<path d="M208.778,138.888c-4.129-5.513-8.943-11.179-14.316-16.893c5.374-5.714,10.187-11.379,14.316-16.893
	c7.153-9.551,12.078-18.402,14.639-26.308c4.594-14.185,0.964-23.454-2.89-28.732c-3.832-5.249-11.505-11.506-26.294-11.506
	c-9.311,0-20.791,2.585-33.554,7.346c-0.375-1.343-0.76-2.665-1.156-3.96c-3.496-11.409-7.741-20.606-12.617-27.336
	C138.157,2.534,128.53,0,121.995,0s-16.162,2.534-24.909,14.607c-4.876,6.729-9.121,15.927-12.617,27.336
	c-0.397,1.295-0.781,2.617-1.157,3.96c-12.764-4.761-24.244-7.346-33.555-7.346c-14.789,0-22.462,6.257-26.294,11.506
	c-3.854,5.278-7.483,14.549-2.89,28.732c2.561,7.905,7.486,16.757,14.64,26.309c4.129,5.513,8.942,11.178,14.316,16.892
	c-5.374,5.713-10.187,11.379-14.316,16.892c-7.153,9.552-12.079,18.403-14.64,26.309c-4.594,14.184-0.964,23.454,2.89,28.732
	c3.832,5.249,11.505,11.506,26.294,11.506c9.312,0,20.791-2.585,33.555-7.346c0.375,1.343,0.76,2.665,1.157,3.96
	c3.496,11.409,7.741,20.606,12.617,27.336c8.747,12.073,18.374,14.607,24.909,14.607s16.162-2.534,24.91-14.607
	c4.876-6.729,9.121-15.927,12.617-27.336c0.397-1.295,0.781-2.836,1.157-4.179c12.764,4.761,24.243,7.127,33.554,7.127h0.002
	c14.787,0,22.46-6.038,26.292-11.287c3.854-5.278,7.483-14.438,2.89-28.623C220.856,157.18,215.932,148.438,208.778,138.888z
	 M194.233,68.557c0.378,0,0.72,0.009,1.027,0.024c-1.509,5.781-8.444,17.645-22.527,32.716c-1.232-1.063-2.481-2.123-3.743-3.18
	c-0.515-7.71-1.278-15.2-2.276-22.377C178.563,70.886,188.095,68.557,194.233,68.557z M111.507,136.362
	c-2.479-1.81-4.868-3.607-7.183-5.389c-0.075-2.92-0.118-5.909-0.118-8.978s0.042-6.057,0.118-8.978
	c2.315-1.783,4.704-3.58,7.183-5.389c3.546-2.589,7.045-5.038,10.489-7.357c3.444,2.319,6.943,4.769,10.489,7.357
	c2.479,1.81,4.868,3.606,7.182,5.389c0.075,2.921,0.118,5.909,0.118,8.978s-0.043,6.058-0.118,8.978
	c-2.314,1.783-4.703,3.579-7.182,5.389c-3.546,2.589-7.045,5.038-10.489,7.357C118.552,141.401,115.053,138.951,111.507,136.362z
	 M121.995,31.254c3.103,3.748,7.382,12.932,10.967,27.355c-3.615,1.938-7.275,3.998-10.967,6.181
	c-3.692-2.183-7.352-4.243-10.967-6.181C114.614,44.186,118.893,35.002,121.995,31.254z M49.757,68.557
	c6.138,0,15.67,2.329,27.519,7.183C76.277,82.917,75.514,90.407,75,98.118c-1.262,1.057-2.51,2.116-3.743,3.179
	C57.174,86.226,50.238,74.362,48.729,68.581C49.037,68.565,49.379,68.557,49.757,68.557z M49.757,175.434
	c-0.378,0-0.72-0.009-1.027-0.024c1.508-5.781,8.445-17.645,22.528-32.716c1.232,1.063,2.481,2.122,3.743,3.179
	c0.515,7.711,1.278,15.201,2.276,22.378C65.427,173.104,55.895,175.434,49.757,175.434z M121.995,212.736
	c-3.102-3.748-7.382-12.932-10.967-27.355c3.615-1.938,7.275-3.998,10.967-6.181c3.692,2.183,7.351,4.243,10.967,6.181
	C129.377,199.804,125.098,208.988,121.995,212.736z M194.235,175.434L194.235,175.434c-6.139,0-15.672-2.329-27.521-7.184
	c0.999-7.177,1.762-14.667,2.276-22.377c1.262-1.057,2.511-2.117,3.743-3.18c14.084,15.072,21.02,26.937,22.527,32.716
	C194.954,175.425,194.612,175.434,194.235,175.434z"/>
<g>
</g>
<g>
</g>
<g>
</g>
<g>
</g>
<g>
</g>
<g>
</g>
<g>
</g>
<g>
</g>
<g>
</g>
<g>
</g>
<g>
</g>
<g>
</g>
<g>
</g>
<g>
</g>
<g>
</g>
</svg>
