<?xml version="1.0" encoding="iso-8859-1"?>
<!-- Generator: Adobe Illustrator 19.0.0, SVG Export Plug-In . SVG Version: 6.00 Build 0)  -->
<svg version="1.1" id="Capa_1" xmlns="http://www.w3.org/2000/svg" xmlns:xlink="http://www.w3.org/1999/xlink" x="0px" y="0px"
	 viewBox="0 0 268.668 268.668" style="enable-background:new 0 0 268.668 268.668;" xml:space="preserve">
<path d="M259.661,191.957l-31.622-80.849l16.726,4.634l8.01-28.91L149.27,58.155V32.957h-30v16.885L23.647,23.349l-8.01,28.91
	l29.334,8.127L9.546,150.957H0c0.536,29,24.695,53.362,54.334,53.362c29.639,0,53.798-24.362,54.334-53.362h-9.007L66.578,66.373
	l52.692,14.599v156.985h30V89.284l54.526,15.107l-34.25,87.566H160c0.536,29,24.695,53.362,54.334,53.362
	c29.639,0,53.798-24.362,54.334-53.362H259.661z M54.334,174.319c-7.351,0-13.948-3.264-18.416-8.426l18.686-47.775l18.513,47.333
	C68.647,170.866,61.891,174.319,54.334,174.319z M214.334,215.319c-7.351,0-13.948-3.264-18.416-8.426l18.686-47.775l18.513,47.333
	C228.647,211.866,221.891,215.319,214.334,215.319z"/>
<g>
</g>
<g>
</g>
<g>
</g>
<g>
</g>
<g>
</g>
<g>
</g>
<g>
</g>
<g>
</g>
<g>
</g>
<g>
</g>
<g>
</g>
<g>
</g>
<g>
</g>
<g>
</g>
<g>
</g>
</svg>
