<?xml version="1.0" encoding="iso-8859-1"?>
<!-- Generator: Adobe Illustrator 19.0.0, SVG Export Plug-In . SVG Version: 6.00 Build 0)  -->
<svg version="1.1" id="Capa_1" xmlns="http://www.w3.org/2000/svg" xmlns:xlink="http://www.w3.org/1999/xlink" x="0px" y="0px"
	 viewBox="0 0 229 229" style="enable-background:new 0 0 229 229;" xml:space="preserve">
<path d="M229,80.586h-46.424l24.039-24.039c5.248-0.166,10.162-2.266,13.894-5.996c8.024-8.025,8.024-21.084-0.001-29.108
	c-3.888-3.889-9.057-6.029-14.555-6.029s-10.667,2.141-14.555,6.029c-3.842,3.842-5.824,8.838-5.987,13.883L140.15,80.586H0v30
	h11.133c-0.149,2.37-0.233,4.761-0.233,7.134c0,24.177,7.906,47.27,21.79,65.866H32v30h35.337h96.325H198v-29.594
	c14-18.666,22.1-41.917,22.1-66.272c0-2.372-0.084-4.764-0.233-7.134H229V80.586z M75.686,183.586
	C54.135,169.375,40.9,144.497,40.9,117.72c0-2.044,0.077-4.113,0.225-6.134h148.751c0.147,2.021,0.225,4.09,0.225,6.134
	c0,26.776-13.235,51.655-34.787,65.866H75.686z"/>
<g>
</g>
<g>
</g>
<g>
</g>
<g>
</g>
<g>
</g>
<g>
</g>
<g>
</g>
<g>
</g>
<g>
</g>
<g>
</g>
<g>
</g>
<g>
</g>
<g>
</g>
<g>
</g>
<g>
</g>
</svg>
