<?xml version="1.0" encoding="iso-8859-1"?>
<!-- Generator: Adobe Illustrator 19.0.0, SVG Export Plug-In . SVG Version: 6.00 Build 0)  -->
<svg version="1.1" id="Capa_1" xmlns="http://www.w3.org/2000/svg" xmlns:xlink="http://www.w3.org/1999/xlink" x="0px" y="0px"
	 viewBox="0 0 269.565 269.565" style="enable-background:new 0 0 269.565 269.565;" xml:space="preserve">
<path d="M222.282,154c-4.105,0-8.088,0.528-11.888,1.516l-38.3-58.242c6.24-8.013,9.971-18.071,9.971-28.991
	c0-26.071-21.211-47.282-47.283-47.282C108.711,21,87.5,42.211,87.5,68.283c0,10.89,3.71,20.924,9.92,28.926l-38.328,58.285
	c-3.776-0.974-7.734-1.493-11.81-1.493C21.211,154,0,175.211,0,201.283s21.211,47.282,47.282,47.282
	c21.015,0,38.863-13.784,45-32.782h85.002c6.137,18.998,23.985,32.782,44.999,32.782c26.072,0,47.283-21.211,47.283-47.282
	S248.354,154,222.282,154z M134.782,115.565c4.273,0,8.412-0.58,12.352-1.647l38.136,57.994c-3.279,4.123-5.882,8.801-7.647,13.871
	h-85.68c-1.774-5.097-4.396-9.798-7.699-13.936l38.108-57.951C126.316,114.977,130.481,115.565,134.782,115.565z M134.782,51
	c9.53,0,17.283,7.753,17.283,17.282s-7.753,17.282-17.283,17.282c-9.529,0-17.282-7.753-17.282-17.282S125.253,51,134.782,51z
	 M47.282,218.565c-9.529,0-17.282-7.753-17.282-17.282S37.753,184,47.282,184c9.53,0,17.283,7.753,17.283,17.282
	S56.813,218.565,47.282,218.565z M222.282,218.565c-9.529,0-17.282-7.753-17.282-17.282S212.753,184,222.282,184
	c9.53,0,17.283,7.753,17.283,17.282S231.813,218.565,222.282,218.565z"/>
<g>
</g>
<g>
</g>
<g>
</g>
<g>
</g>
<g>
</g>
<g>
</g>
<g>
</g>
<g>
</g>
<g>
</g>
<g>
</g>
<g>
</g>
<g>
</g>
<g>
</g>
<g>
</g>
<g>
</g>
</svg>
