<?xml version="1.0" encoding="iso-8859-1"?>
<!-- Generator: Adobe Illustrator 19.0.0, SVG Export Plug-In . SVG Version: 6.00 Build 0)  -->
<svg version="1.1" id="Capa_1" xmlns="http://www.w3.org/2000/svg" xmlns:xlink="http://www.w3.org/1999/xlink" x="0px" y="0px"
	 viewBox="0 0 219 219" style="enable-background:new 0 0 219 219;" xml:space="preserve">
<path d="M194,167c-1.501,0-2.97,0.141-4.399,0.395l-18.192-18.192c4.412-8.089,6.922-17.358,6.922-27.203
	c0-26.177-17.831-48.275-41.831-54.933V46.593c6-4.583,9.5-11.66,9.5-19.593c0-13.785-11.215-25-25-25S96,13.215,96,27
	c0,8.382,4.5,15.808,10.5,20.346v19.626c-20,5.299-35.107,20.844-40.289,40.528H44.593C40.01,101.719,32.933,98,25,98
	c-13.785,0-25,11.215-25,25s11.215,25,25,25c8.382,0,15.808-4.151,20.346-10.5h21.15c6.77,23.917,28.783,41.498,54.839,41.498
	c10.712,0,20.739-2.975,29.309-8.135l18.497,18.498c-0.092,0.868-0.14,1.748-0.14,2.639c0,13.785,11.215,25,25,25s25-11.215,25-25
	S207.785,167,194,167z M121.334,148.998c-14.887,0-26.998-12.111-26.998-26.998s12.111-26.998,26.998-26.998
	c14.886,0,26.997,12.111,26.997,26.998S136.22,148.998,121.334,148.998z"/>
<g>
</g>
<g>
</g>
<g>
</g>
<g>
</g>
<g>
</g>
<g>
</g>
<g>
</g>
<g>
</g>
<g>
</g>
<g>
</g>
<g>
</g>
<g>
</g>
<g>
</g>
<g>
</g>
<g>
</g>
</svg>
