<?xml version="1.0" encoding="iso-8859-1"?>
<!-- Generator: Adobe Illustrator 19.0.0, SVG Export Plug-In . SVG Version: 6.00 Build 0)  -->
<svg version="1.1" id="Capa_1" xmlns="http://www.w3.org/2000/svg" xmlns:xlink="http://www.w3.org/1999/xlink" x="0px" y="0px"
	 viewBox="0 0 251.584 251.584" style="enable-background:new 0 0 251.584 251.584;" xml:space="preserve">
<path d="M208.93,240.5l-26.748-67.274c11.111-12.974,17.844-29.81,17.844-48.226h-30c0,4.426-0.679,8.723-1.933,12.79
	l-19.036-47.879c10.828-7.434,17.78-19.896,17.78-33.994c0-17.433-10.379-32.361-26.379-38.374V0h-30v17.543
	c-15,6.012-26.045,20.94-26.045,38.374c0,14.098,7.202,26.56,18.03,33.994l-18.994,47.879c-1.254-4.067-1.892-8.363-1.892-12.789
	h-30c0,18.416,6.733,35.251,17.844,48.226L42.654,240.5l27.877,11.084l23.63-59.433c9.602,4.536,20.323,7.083,31.631,7.083
	c11.309,0,22.029-2.547,31.632-7.083l23.63,59.433L208.93,240.5z M125.792,44.705c6.183,0,11.212,5.029,11.212,11.212
	s-5.029,11.212-11.212,11.212S114.58,62.1,114.58,55.917S119.609,44.705,125.792,44.705z M125.791,169.234
	c-7.388,0-14.354-1.866-20.483-5.122l20.483-51.519l20.483,51.519C140.146,167.368,133.18,169.234,125.791,169.234z"/>
<g>
</g>
<g>
</g>
<g>
</g>
<g>
</g>
<g>
</g>
<g>
</g>
<g>
</g>
<g>
</g>
<g>
</g>
<g>
</g>
<g>
</g>
<g>
</g>
<g>
</g>
<g>
</g>
<g>
</g>
</svg>
