<?xml version="1.0" encoding="iso-8859-1"?>
<!-- Generator: Adobe Illustrator 19.0.0, SVG Export Plug-In . SVG Version: 6.00 Build 0)  -->
<svg version="1.1" id="Capa_1" xmlns="http://www.w3.org/2000/svg" xmlns:xlink="http://www.w3.org/1999/xlink" x="0px" y="0px"
	 viewBox="0 0 212.356 212.356" style="enable-background:new 0 0 212.356 212.356;" xml:space="preserve">
<path d="M212.356,57.854c0-15.359-5.981-29.799-16.842-40.658c-10.859-10.86-25.299-16.842-40.658-16.842
	c-15.358,0-29.798,5.981-40.658,16.842L94.045,37.348l-2.829-2.829L70.004,55.732l9.804,9.804l-58.072,58.072
	c-14.708,14.708-17.702,36.748-9.009,54.456L0,190.79l21.213,21.213l12.592-12.591c6.722,3.406,14.088,5.12,21.459,5.12
	c12.143,0,24.285-4.622,33.528-13.866l58.072-58.073l7.285,7.286l0.001-0.001l2.828,2.828l21.213-21.213l-2.829-2.829l20.152-20.153
	C206.375,87.652,212.356,73.213,212.356,57.854z M67.579,169.453c-3.29,3.289-7.663,5.101-12.315,5.101s-9.025-1.812-12.315-5.101
	c-3.29-3.29-5.102-7.664-5.102-12.316c0-4.651,1.812-9.025,5.102-12.315l3.625-3.625l9.289,9.288l21.213-21.213l-9.289-9.288
	l7.779-7.779l9.289,9.289l21.213-21.213l-9.289-9.289l4.243-4.243l24.631,24.631L67.579,169.453z M174.302,77.299l-20.152,20.152
	l-38.891-38.891l20.152-20.152c5.194-5.194,12.101-8.055,19.445-8.055c7.346,0,14.251,2.86,19.445,8.055s8.055,12.1,8.055,19.445
	S179.496,72.104,174.302,77.299z"/>
<g>
</g>
<g>
</g>
<g>
</g>
<g>
</g>
<g>
</g>
<g>
</g>
<g>
</g>
<g>
</g>
<g>
</g>
<g>
</g>
<g>
</g>
<g>
</g>
<g>
</g>
<g>
</g>
<g>
</g>
</svg>
