<?xml version="1.0" encoding="iso-8859-1"?>
<!-- Generator: Adobe Illustrator 19.0.0, SVG Export Plug-In . SVG Version: 6.00 Build 0)  -->
<svg version="1.1" id="Capa_1" xmlns="http://www.w3.org/2000/svg" xmlns:xlink="http://www.w3.org/1999/xlink" x="0px" y="0px"
	 viewBox="0 0 240.753 240.753" style="enable-background:new 0 0 240.753 240.753;" xml:space="preserve">
<g>
	<path d="M129.477,6.839L120.517,0l-9.062,6.704c-3.548,2.624-86.881,65.112-86.881,138.247c0,52.825,42.977,95.802,95.802,95.802
		c52.826,0,95.803-42.977,95.803-95.802C216.179,73.835,133.018,9.541,129.477,6.839z M120.376,210.753
		c-36.283,0-65.802-29.519-65.802-65.802c0-45.607,45.787-89.75,65.681-106.774c19.904,17.411,65.924,62.464,65.924,106.774
		C186.179,181.234,156.66,210.753,120.376,210.753z"/>
	<path d="M112.376,162.618v30c34,0,61.667-27.36,61.667-61.36h-30C144.043,148.258,130.376,162.618,112.376,162.618z"/>
</g>
<g>
</g>
<g>
</g>
<g>
</g>
<g>
</g>
<g>
</g>
<g>
</g>
<g>
</g>
<g>
</g>
<g>
</g>
<g>
</g>
<g>
</g>
<g>
</g>
<g>
</g>
<g>
</g>
<g>
</g>
</svg>
