<?xml version="1.0" encoding="iso-8859-1"?>
<!-- Generator: Adobe Illustrator 19.0.0, SVG Export Plug-In . SVG Version: 6.00 Build 0)  -->
<svg version="1.1" id="Capa_1" xmlns="http://www.w3.org/2000/svg" xmlns:xlink="http://www.w3.org/1999/xlink" x="0px" y="0px"
	 viewBox="0 0 254.12 254.12" style="enable-background:new 0 0 254.12 254.12;" xml:space="preserve">
<path d="M204.335,126.76c5.784-13.746,5.869-28.922,0.24-42.731c-8.61-21.121-28.91-34.768-51.717-34.768
	c-2.029,0-4.044,0.122-6.045,0.34L126.594,0l-13.89,5.662C57.487,28.172,30.878,91.405,53.387,146.62
	c10.903,26.748,31.405,47.648,58.03,58.852c6.353,2.673,13.29,4.71,19.29,6.126v12.522h-18v30h66v-30h-18v-10.392
	c12-0.798,22.684-3.393,33.472-7.79l13.974-5.662l-20.847-51.241C194.702,143.249,200.592,135.653,204.335,126.76z M176.794,95.353
	c2.605,6.39,2.565,13.411-0.11,19.771c-2.677,6.359-7.669,11.296-14.059,13.9c-3.129,1.275-6.405,1.923-9.737,1.923
	c-10.556,0-19.951-6.316-23.936-16.092c-2.605-6.39-2.565-13.411,0.111-19.771c2.676-6.36,7.669-11.297,14.059-13.901
	c3.129-1.275,6.404-1.922,9.736-1.922C163.414,79.261,172.81,85.577,176.794,95.353z M123.219,177.82
	c-19.239-8.096-34.173-23.197-42.051-42.524c-14.329-35.148-1.114-74.792,29.516-94.853l8.274,20.299
	c-7.661,5.838-13.71,13.59-17.546,22.706c-5.785,13.746-5.87,28.922-0.241,42.731c8.609,21.12,28.909,34.768,51.717,34.768
	c2.266,0,4.514-0.153,6.745-0.425l8.958,21.974C153.447,185.502,137.762,183.94,123.219,177.82z"/>
<g>
</g>
<g>
</g>
<g>
</g>
<g>
</g>
<g>
</g>
<g>
</g>
<g>
</g>
<g>
</g>
<g>
</g>
<g>
</g>
<g>
</g>
<g>
</g>
<g>
</g>
<g>
</g>
<g>
</g>
</svg>
