<?xml version="1.0" encoding="iso-8859-1"?>
<!-- Generator: Adobe Illustrator 19.0.0, SVG Export Plug-In . SVG Version: 6.00 Build 0)  -->
<svg version="1.1" id="Capa_1" xmlns="http://www.w3.org/2000/svg" xmlns:xlink="http://www.w3.org/1999/xlink" x="0px" y="0px"
	 viewBox="0 0 275.05 275.05" style="enable-background:new 0 0 275.05 275.05;" xml:space="preserve">
<path d="M275.05,157.487L186.021,42.211l-23.744,18.338l41.022,53.115c-1.366-0.094-2.741-0.159-4.13-0.159
	c-27.871,0-51.333,19.21-57.857,45.083h-7.533c-6.524-25.873-29.987-45.083-57.857-45.083c-1.405,0-2.794,0.066-4.175,0.162
	l41.024-53.118L89.027,42.211L0,157.487l0.528,31.102h17.758c6.814,25.45,30.066,44.25,57.636,44.25s50.822-18.8,57.636-44.25h7.974
	c6.814,25.45,30.067,44.25,57.636,44.25c27.57,0,50.822-18.8,57.637-44.25h17.716L275.05,157.487z M75.922,202.838
	c-16.357,0-29.666-13.309-29.666-29.667s13.309-29.666,29.666-29.666c16.358,0,29.667,13.308,29.667,29.666
	S92.28,202.838,75.922,202.838z M199.169,202.838c-16.358,0-29.667-13.309-29.667-29.667s13.309-29.666,29.667-29.666
	c16.358,0,29.667,13.308,29.667,29.666S215.527,202.838,199.169,202.838z"/>
<g>
</g>
<g>
</g>
<g>
</g>
<g>
</g>
<g>
</g>
<g>
</g>
<g>
</g>
<g>
</g>
<g>
</g>
<g>
</g>
<g>
</g>
<g>
</g>
<g>
</g>
<g>
</g>
<g>
</g>
</svg>
