<?xml version="1.0" encoding="iso-8859-1"?>
<!-- Generator: Adobe Illustrator 19.0.0, SVG Export Plug-In . SVG Version: 6.00 Build 0)  -->
<svg version="1.1" id="Capa_1" xmlns="http://www.w3.org/2000/svg" xmlns:xlink="http://www.w3.org/1999/xlink" x="0px" y="0px"
	 viewBox="0 0 213.546 213.546" style="enable-background:new 0 0 213.546 213.546;" xml:space="preserve">
<path d="M213.546,95.459l-36.77-36.77l36.063-36.062L191.626,1.415l-36.063,36.062L118.087,0L33.941,84.146L21.213,71.417L0,92.63
	l50.529,50.529l-9.9,9.9l-8.839-8.839l-21.213,21.213l38.891,38.891l21.213-21.213l-8.839-8.839l9.9-9.9l49.173,49.173
	l21.213-21.213L129.4,179.605L213.546,95.459z M118.087,42.426l53.033,53.033l-62.226,62.226l-15.233-15.233l9.9-9.9l8.839,8.839
	l21.213-21.213L94.723,81.288L73.51,102.5l8.839,8.839l-9.9,9.9L55.86,104.652L118.087,42.426z"/>
<g>
</g>
<g>
</g>
<g>
</g>
<g>
</g>
<g>
</g>
<g>
</g>
<g>
</g>
<g>
</g>
<g>
</g>
<g>
</g>
<g>
</g>
<g>
</g>
<g>
</g>
<g>
</g>
<g>
</g>
</svg>
