<?xml version="1.0" encoding="iso-8859-1"?>
<!-- Generator: Adobe Illustrator 19.0.0, SVG Export Plug-In . SVG Version: 6.00 Build 0)  -->
<svg version="1.1" id="Capa_1" xmlns="http://www.w3.org/2000/svg" xmlns:xlink="http://www.w3.org/1999/xlink" x="0px" y="0px"
	 viewBox="0 0 222.209 222.209" style="enable-background:new 0 0 222.209 222.209;" xml:space="preserve">
<path d="M111.501,0C64.426,0,25.963,38.21,25.963,85.176c0,31.71,17.114,60.065,44.114,74.825v20.208h10v21h10v21h41v-21h10v-21h10
	v-20.22c27-14.853,45.169-43.742,45.169-74.813C196.246,38.21,158.321,0,111.501,0z M130.738,136.521l-9.662,3.745v9.943h-21v-9.943
	l-9.329-3.745c-21.131-8.336-34.702-28.49-34.702-51.345C56.046,54.752,80.928,30,111.459,30c30.278,0,54.85,24.752,54.85,55.176
	C166.308,107.508,151.977,128.142,130.738,136.521z"/>
<g>
</g>
<g>
</g>
<g>
</g>
<g>
</g>
<g>
</g>
<g>
</g>
<g>
</g>
<g>
</g>
<g>
</g>
<g>
</g>
<g>
</g>
<g>
</g>
<g>
</g>
<g>
</g>
<g>
</g>
</svg>
