<?xml version="1.0" encoding="iso-8859-1"?>
<!-- Generator: Adobe Illustrator 19.0.0, SVG Export Plug-In . SVG Version: 6.00 Build 0)  -->
<svg version="1.1" id="Capa_1" xmlns="http://www.w3.org/2000/svg" xmlns:xlink="http://www.w3.org/1999/xlink" x="0px" y="0px"
	 viewBox="0 0 234.835 234.835" style="enable-background:new 0 0 234.835 234.835;" xml:space="preserve">
<g>
	<path d="M61.22,59.473c-17.936,17.936-17.936,47.118,0,65.054l21.213-21.213c-6.238-6.238-6.238-16.39,0-22.628L61.22,59.473z"/>
	<path d="M233.046,173.317L180.95,121.22c10.676-32.035,3.307-68.816-22.15-94.274C141.424,9.569,118.32,0,93.746,0
		S46.068,9.569,28.692,26.946c-35.871,35.871-35.871,94.236,0,130.107C46.068,174.431,69.172,184,93.746,184
		c8.158,0,16.147-1.077,23.825-3.122l53.957,53.957L233.046,173.317z M49.905,135.841c-24.174-24.174-24.174-63.508,0-87.682
		C61.615,36.449,77.186,30,93.746,30s32.131,6.449,43.841,18.159c24.174,24.174,24.174,63.508,0,87.682
		C125.877,147.551,110.307,154,93.746,154S61.615,147.551,49.905,135.841z M158.8,157.054c2.634-2.634,5.05-5.401,7.297-8.26
		l24.523,24.524l-19.092,19.092l-25.036-25.036C150.839,164.318,154.966,160.888,158.8,157.054z"/>
</g>
<g>
</g>
<g>
</g>
<g>
</g>
<g>
</g>
<g>
</g>
<g>
</g>
<g>
</g>
<g>
</g>
<g>
</g>
<g>
</g>
<g>
</g>
<g>
</g>
<g>
</g>
<g>
</g>
<g>
</g>
</svg>
