<?xml version="1.0" encoding="iso-8859-1"?>
<!-- Generator: Adobe Illustrator 19.0.0, SVG Export Plug-In . SVG Version: 6.00 Build 0)  -->
<svg version="1.1" id="Capa_1" xmlns="http://www.w3.org/2000/svg" xmlns:xlink="http://www.w3.org/1999/xlink" x="0px" y="0px"
	 viewBox="0 0 232 232" style="enable-background:new 0 0 232 232;" xml:space="preserve">
<path d="M157,4v108.472C157,134.44,138.194,153,115.933,153h-0.147C93.847,153,76,134.819,76,112.472V4H0v108.472
	C0,176.174,51.941,228,115.786,228h0.147C179.932,228,232,176.174,232,112.472V4H157z M202,34v11h-15V34H202z M46,34v11H30V34H46z
	 M115.933,198h-0.147C68.483,198,30,159.632,30,112.472V75h16v37.472C46,151.361,77.305,183,115.786,183h0.147
	c18.696,0,36.441-7.35,49.963-20.694C179.505,148.876,187,131.178,187,112.472V75h15v37.472C202,159.632,163.39,198,115.933,198z"/>
<g>
</g>
<g>
</g>
<g>
</g>
<g>
</g>
<g>
</g>
<g>
</g>
<g>
</g>
<g>
</g>
<g>
</g>
<g>
</g>
<g>
</g>
<g>
</g>
<g>
</g>
<g>
</g>
<g>
</g>
</svg>
