<?xml version="1.0" encoding="iso-8859-1"?>
<!-- Generator: Adobe Illustrator 19.0.0, SVG Export Plug-In . SVG Version: 6.00 Build 0)  -->
<svg version="1.1" id="Capa_1" xmlns="http://www.w3.org/2000/svg" xmlns:xlink="http://www.w3.org/1999/xlink" x="0px" y="0px"
	 viewBox="0 0 236 236" style="enable-background:new 0 0 236 236;" xml:space="preserve">
<path d="M97.372,188c-7.25-1.862-13.906-4.938-19.761-9h89.164v-30H54.845c-2.245-6.443-3.62-13.361-3.62-20.542
	c0-27.3,18.549-50.49,42.549-58.497V98h22v7h30v-7h23V14h-23V0h-30v14h-22v24.914c-41,8.706-72.549,45.546-72.549,89.544
	c0,20.849,7.064,41.249,20.139,57.442c0.576,0.713,1.257,1.405,1.853,2.1H24.775v48h30v-18h130v18h30v-48H97.372z M123.775,44h15v24
	h-15V44z"/>
<g>
</g>
<g>
</g>
<g>
</g>
<g>
</g>
<g>
</g>
<g>
</g>
<g>
</g>
<g>
</g>
<g>
</g>
<g>
</g>
<g>
</g>
<g>
</g>
<g>
</g>
<g>
</g>
<g>
</g>
</svg>
