<?xml version="1.0" encoding="iso-8859-1"?>
<!-- Generator: Adobe Illustrator 19.0.0, SVG Export Plug-In . SVG Version: 6.00 Build 0)  -->
<svg version="1.1" id="Capa_1" xmlns="http://www.w3.org/2000/svg" xmlns:xlink="http://www.w3.org/1999/xlink" x="0px" y="0px"
	 viewBox="0 0 232.203 232.203" style="enable-background:new 0 0 232.203 232.203;" xml:space="preserve">
<path d="M209.111,91.74c-14.921-14.921-34.926-23.139-56.028-23.139c-9.693,0-19.083,1.754-28.083,5.075v-6.575
	c0-34.463-28.037-62.5-62.5-62.5S0,32.639,0,67.102v98c0,34.463,28.204,62.5,62.667,62.5c16.536,0,31.667-6.463,42.853-16.989
	c13.649,10.365,30.254,15.989,47.689,15.989c21.102,0,40.961-8.218,55.882-23.139C239.893,172.661,239.914,122.542,209.111,91.74z
	 M175.95,104.159l-66.133,66.133c-9.636-18.473-6.71-41.845,8.784-57.339c9.255-9.255,21.56-14.352,34.648-14.352
	C161.289,98.602,169.028,100.532,175.95,104.159z M30,67.102c0-17.921,14.579-32.5,32.5-32.5S95,49.181,95,67.102v26.801
	c-2,2.154-3.532,4.386-5.246,6.699H30V67.102z M30,165.102v-34.5h46.146c-4.255,19.445-1.127,40.188,9.404,57.706
	c-5.862,5.743-14.046,9.294-22.883,9.294C44.746,197.602,30,183.022,30,165.102z M187.898,182.25
	c-9.255,9.255-21.56,14.352-34.648,14.352c-7.798,0-15.312-1.822-22.074-5.242l65.818-65.818
	C206.241,143.914,203.218,166.931,187.898,182.25z"/>
<g>
</g>
<g>
</g>
<g>
</g>
<g>
</g>
<g>
</g>
<g>
</g>
<g>
</g>
<g>
</g>
<g>
</g>
<g>
</g>
<g>
</g>
<g>
</g>
<g>
</g>
<g>
</g>
<g>
</g>
</svg>
