<?xml version="1.0" encoding="iso-8859-1"?>
<!-- Generator: Adobe Illustrator 19.0.0, SVG Export Plug-In . SVG Version: 6.00 Build 0)  -->
<svg version="1.1" id="Capa_1" xmlns="http://www.w3.org/2000/svg" xmlns:xlink="http://www.w3.org/1999/xlink" x="0px" y="0px"
	 viewBox="0 0 266.306 266.306" style="enable-background:new 0 0 266.306 266.306;" xml:space="preserve">
<path d="M191.453,112.336c1.965-10.778,3.457-20.053,3.457-24.503c0-41.273-47.168-77.294-52.551-81.265L133.477,0l-8.894,6.566
	c-5.386,3.971-52.61,39.989-52.61,81.265c0,4.45,1.245,13.726,3.21,24.505l-39.03,31.509v113.871l49.296-39.28l47.954,47.87
	l47.746-47.87l49.004,39.28V143.845L191.453,112.336z M113.191,147.862c-2.553-11.773-5.036-23.783-7.015-34h54.619
	c-1.979,10.217-4.462,22.227-7.014,34H113.191z M133.511,38.101c12.03,10.848,28.742,29.198,31.172,45.762h-62.391
	C104.736,67.368,121.48,48.974,133.511,38.101z M66.153,195.216V158.12l15.69-12.536c1.841,8.647,3.578,16.115,4.573,20.556
	l2.372,11.148L66.153,195.216z M133.486,223.88l-20.178-20.179l20.178-19.21l20.179,19.21L133.486,223.88z M200.153,195.216
	l-22.344-17.928l2.581-11.146c0.995-4.442,2.523-11.91,4.364-20.558l15.399,12.536V195.216z"/>
<g>
</g>
<g>
</g>
<g>
</g>
<g>
</g>
<g>
</g>
<g>
</g>
<g>
</g>
<g>
</g>
<g>
</g>
<g>
</g>
<g>
</g>
<g>
</g>
<g>
</g>
<g>
</g>
<g>
</g>
</svg>
