<?xml version="1.0" encoding="iso-8859-1"?>
<!-- Generator: Adobe Illustrator 19.0.0, SVG Export Plug-In . SVG Version: 6.00 Build 0)  -->
<svg version="1.1" id="Capa_1" xmlns="http://www.w3.org/2000/svg" xmlns:xlink="http://www.w3.org/1999/xlink" x="0px" y="0px"
	 viewBox="0 0 220 220" style="enable-background:new 0 0 220 220;" xml:space="preserve">
<path d="M184.92,87.608c-9.045-12.528-20.857-22.428-34.857-29.041V30h12V0h-104v30h11v28.698
	c-31,15.288-51.266,47.325-51.266,82.813c0,30.037,15.023,58.38,40.186,75.817L61.837,220h97.199l3.854-2.671
	c24.617-17.058,39.314-45.4,39.314-75.817C202.204,121.911,196.227,103.271,184.92,87.608z M89.032,82.793l10.03-3.522V30h21v49.385
	l10.174,3.457c16.166,5.494,28.696,16.768,35.708,31.158H54.145C61.133,99.673,73.468,88.258,89.032,82.793z M149.368,190H71.486
	c-14.249-11.397-22.877-28.177-23.617-46h124.266C171.432,162.108,163.115,178.881,149.368,190z"/>
<g>
</g>
<g>
</g>
<g>
</g>
<g>
</g>
<g>
</g>
<g>
</g>
<g>
</g>
<g>
</g>
<g>
</g>
<g>
</g>
<g>
</g>
<g>
</g>
<g>
</g>
<g>
</g>
<g>
</g>
</svg>
