<?xml version="1.0" encoding="iso-8859-1"?>
<!-- Generator: Adobe Illustrator 19.0.0, SVG Export Plug-In . SVG Version: 6.00 Build 0)  -->
<svg version="1.1" id="Capa_1" xmlns="http://www.w3.org/2000/svg" xmlns:xlink="http://www.w3.org/1999/xlink" x="0px" y="0px"
	 viewBox="0 0 228.306 228.306" style="enable-background:new 0 0 228.306 228.306;" xml:space="preserve">
<g>
	<path d="M144.677,81.284l38.033-38.033l-21.213-21.213l-38.033,38.033L63.393,0L52.786,10.606
		c-38.972,38.972-38.972,102.384,0,141.355c18.879,18.879,43.979,29.276,70.678,29.276s51.799-10.397,70.678-29.276l10.606-10.606
		L144.677,81.284z M123.464,151.238c-18.686,0-36.252-7.276-49.465-20.489c-23.636-23.636-26.79-60.115-9.462-87.178l96.651,96.651
		C150.033,147.395,137.043,151.238,123.464,151.238z"/>
	<rect x="38.69" y="198.306" width="118" height="30"/>
</g>
<g>
</g>
<g>
</g>
<g>
</g>
<g>
</g>
<g>
</g>
<g>
</g>
<g>
</g>
<g>
</g>
<g>
</g>
<g>
</g>
<g>
</g>
<g>
</g>
<g>
</g>
<g>
</g>
<g>
</g>
</svg>
