<?xml version="1.0" encoding="iso-8859-1"?>
<!-- Generator: Adobe Illustrator 19.0.0, SVG Export Plug-In . SVG Version: 6.00 Build 0)  -->
<svg version="1.1" id="Capa_1" xmlns="http://www.w3.org/2000/svg" xmlns:xlink="http://www.w3.org/1999/xlink" x="0px" y="0px"
	 viewBox="0 0 230 230" style="enable-background:new 0 0 230 230;" xml:space="preserve">
<path d="M141,128v30h-11v-43.727c12-2.708,22.304-8.556,30.933-17.139C173.228,84.905,180,68.521,180,51V36h-50V12h-30v24H50v15
	c0,17.521,6.771,33.905,19.066,46.135C77.696,105.718,89,111.565,100,114.274V158H89v-30H0v90h89v-30h52v30h89v-90H141z M83.592,66
	h63.482c-5.521,11.921-17.514,20-31.741,20S89.113,77.921,83.592,66z M59,188H30v-30h29V188z M200,188h-29v-30h29V188z"/>
<g>
</g>
<g>
</g>
<g>
</g>
<g>
</g>
<g>
</g>
<g>
</g>
<g>
</g>
<g>
</g>
<g>
</g>
<g>
</g>
<g>
</g>
<g>
</g>
<g>
</g>
<g>
</g>
<g>
</g>
</svg>
