<?xml version="1.0" encoding="iso-8859-1"?>
<!-- Generator: Adobe Illustrator 19.0.0, SVG Export Plug-In . SVG Version: 6.00 Build 0)  -->
<svg version="1.1" id="Capa_1" xmlns="http://www.w3.org/2000/svg" xmlns:xlink="http://www.w3.org/1999/xlink" x="0px" y="0px"
	 viewBox="0 0 224.417 224.417" style="enable-background:new 0 0 224.417 224.417;" xml:space="preserve">
<path d="M182.417,108.542c-23.159,0-42,18.841-42,42c0,5.194,0.954,10.168,2.686,14.763l-30.382,24.904H85v-54h28.482
	c14.555,0,26.518-11.799,26.518-25.766V4.209H89v30h21v72H30v-72h21v-30H0v106.234c0,14.448,11.458,25.766,25.661,25.766H55v84
	h68.445l39.57-32.435c5.808,3.039,12.405,4.768,19.402,4.768c23.159,0,42-18.841,42-42S205.576,108.542,182.417,108.542z
	 M182.417,162.542c-6.617,0-12-5.383-12-12s5.383-12,12-12s12,5.383,12,12S189.034,162.542,182.417,162.542z"/>
<g>
</g>
<g>
</g>
<g>
</g>
<g>
</g>
<g>
</g>
<g>
</g>
<g>
</g>
<g>
</g>
<g>
</g>
<g>
</g>
<g>
</g>
<g>
</g>
<g>
</g>
<g>
</g>
<g>
</g>
</svg>
