<?xml version="1.0" encoding="iso-8859-1"?>
<!-- Generator: Adobe Illustrator 18.0.0, SVG Export Plug-In . SVG Version: 6.00 Build 0)  -->
<!DOCTYPE svg PUBLIC "-//W3C//DTD SVG 1.1//EN" "http://www.w3.org/Graphics/SVG/1.1/DTD/svg11.dtd">
<svg version="1.1" id="Capa_1" xmlns="http://www.w3.org/2000/svg" xmlns:xlink="http://www.w3.org/1999/xlink" x="0px" y="0px"
	 viewBox="0 0 297 297" style="enable-background:new 0 0 297 297;" xml:space="preserve">
<g>
	<path d="M148.5,0C66.617,0,0,66.617,0,148.5S66.617,297,148.5,297S297,230.383,297,148.5S230.383,0,148.5,0z M244.567,64.637
		l-8.46-4.387c-3.017-1.564-6.61-1.564-9.627,0l-18.025,9.346l3.317-20.03c0.556-3.354-0.554-6.77-2.975-9.156l-8.709-8.587
		C217.224,39.429,232.384,50.698,244.567,64.637z M96.911,31.822l-8.709,8.587c-2.421,2.387-3.53,5.802-2.975,9.156l3.317,20.03
		L70.52,60.25c-3.017-1.564-6.61-1.564-9.627,0l-8.46,4.387C64.616,50.698,79.776,39.429,96.911,31.822z M96.352,264.933
		C83.249,259.041,71.317,251,61,241.264l4.706-9.398l9.09,18.154c1.522,3.041,4.427,5.15,7.789,5.659l20.074,3.034L96.352,264.933z
		 M265.992,98.771c6.496,15.289,10.093,32.097,10.093,49.729c0,28.423-9.346,54.702-25.121,75.934l-10.319-20.609
		c-1.771-3.541-5.392-5.776-9.351-5.776c-3.959,0-7.579,2.235-9.352,5.776l-16.014,31.983l-35.367,5.347
		c-3.916,0.591-7.16,3.344-8.384,7.109c-1.224,3.765-0.216,7.898,2.604,10.678l13.755,13.563c-9.637,2.335-19.692,3.58-30.037,3.58
		s-20.4-1.245-30.037-3.58l13.755-13.563c2.82-2.779,3.828-6.913,2.604-10.678c-1.224-3.766-4.468-6.519-8.384-7.109l-35.367-5.347
		l-16.014-31.983c-1.772-3.541-5.393-5.776-9.352-5.776c-3.959,0-7.579,2.235-9.351,5.776l-10.319,20.609
		c-15.775-21.231-25.121-47.511-25.121-75.934c0-17.632,3.597-35.432,10.093-50.721l34.698-16.465l31.755,16.465
		c1.516,0.785,3.167,1.173,4.813,1.173c2.169,0,4.326-0.674,6.148-1.997c3.202-2.327,4.817-6.264,4.169-10.169l-5.843-35.29
		l28.218-29.862c4.449-0.472,8.963-0.719,13.534-0.719s9.085,0.247,13.534,0.719l28.218,29.862l-5.843,35.29
		c-0.648,3.905,0.967,7.842,4.169,10.169c1.822,1.323,3.98,1.997,6.148,1.997c1.646,0,3.297-0.388,4.813-1.173l31.755-16.465
		L265.992,98.771z M200.648,264.933l-6.308-6.22l20.074-3.034c3.362-0.509,6.267-2.618,7.789-5.659l9.09-18.154l4.706,9.398
		C225.683,251,213.751,259.041,200.648,264.933z"/>
	<path d="M185.067,215.231c2.169,0,4.326-0.674,6.148-1.998c3.202-2.326,4.816-6.263,4.17-10.168l-5.844-35.29l25.47-25.113
		c2.82-2.779,3.828-6.912,2.604-10.678c-1.224-3.766-4.468-6.518-8.384-7.109l-35.367-5.347l-16.015-31.983
		c-1.771-3.541-5.391-5.776-9.351-5.776s-7.579,2.235-9.351,5.776l-16.015,31.983l-35.367,5.347
		c-3.916,0.592-7.16,3.344-8.384,7.109c-1.224,3.766-0.215,7.898,2.604,10.678l25.47,25.113l-5.844,35.29
		c-0.647,3.905,0.968,7.842,4.17,10.168c3.204,2.328,7.447,2.646,10.961,0.824l31.755-16.465l31.755,16.465
		C181.77,214.844,183.422,215.231,185.067,215.231z M153.314,176.529c-1.509-0.782-3.161-1.173-4.814-1.173
		s-3.305,0.391-4.814,1.173l-18.025,9.346l3.317-20.031c0.556-3.354-0.554-6.769-2.975-9.155l-14.457-14.255l20.075-3.034
		c3.361-0.509,6.266-2.618,7.788-5.659l9.09-18.154l9.091,18.154c1.521,3.041,4.426,5.15,7.787,5.659l20.075,3.034l-14.457,14.255
		c-2.421,2.387-3.53,5.802-2.975,9.155l3.317,20.031L153.314,176.529z"/>
</g>
<g>
</g>
<g>
</g>
<g>
</g>
<g>
</g>
<g>
</g>
<g>
</g>
<g>
</g>
<g>
</g>
<g>
</g>
<g>
</g>
<g>
</g>
<g>
</g>
<g>
</g>
<g>
</g>
<g>
</g>
</svg>
