<?xml version="1.0" encoding="iso-8859-1"?>
<!-- Generator: Adobe Illustrator 18.0.0, SVG Export Plug-In . SVG Version: 6.00 Build 0)  -->
<!DOCTYPE svg PUBLIC "-//W3C//DTD SVG 1.1//EN" "http://www.w3.org/Graphics/SVG/1.1/DTD/svg11.dtd">
<svg version="1.1" id="Capa_1" xmlns="http://www.w3.org/2000/svg" xmlns:xlink="http://www.w3.org/1999/xlink" x="0px" y="0px"
	 viewBox="0 0 297 297" style="enable-background:new 0 0 297 297;" xml:space="preserve">
<path d="M148.5,0C66.617,0,0,66.617,0,148.5S66.617,297,148.5,297S297,230.383,297,148.5S230.383,0,148.5,0z M274.373,127.658
	c-49.907-30.311-96.271-31.568-116.314-30.3c-1.847-8.183-6.459-15.325-12.804-20.393c15.828-19.962,51.558-33.844,67.656-38.558
	C244.956,57.229,268.099,89.635,274.373,127.658z M107.192,105.361c0-8.505,6.92-15.425,15.425-15.425s15.425,6.92,15.425,15.425
	c0,8.506-6.92,15.426-15.425,15.426S107.192,113.867,107.192,105.361z M184.965,26.234c-19.799,8.19-46.408,22.321-59.8,42.886
	c-0.844-0.059-1.691-0.099-2.548-0.099c-1.563,0-3.1,0.11-4.611,0.302c-5.629-4.343-19.97-14.854-40.981-26.457
	c20.404-13.849,45.012-21.951,71.476-21.951C161.168,20.915,173.405,22.78,184.965,26.234z M59.49,57.188
	c16.307,8.52,29.108,16.817,37.354,22.582c-3.943,3.971-6.972,8.846-8.756,14.28c-13.276-0.607-37.181,0.523-60.229,12.924
	C34.426,87.95,45.374,70.953,59.49,57.188z M21.421,137.205c22.583-21.367,52.493-22.827,66.165-22.198
	c0.746,2.708,1.791,5.294,3.11,7.711c-0.474,0.336-0.933,0.707-1.357,1.132c-1.366,1.367-31.038,31.583-49.667,91.174
	c-11.891-19.382-18.757-42.165-18.757-66.523C20.915,144.692,21.093,140.928,21.421,137.205z M55.519,235.765
	c16.337-63.819,48.145-96.652,48.626-97.142c0.419-0.421,0.783-0.873,1.116-1.342c5.051,2.759,10.825,4.345,16.959,4.411
	c8.022,16.475,31.045,69.147,32.948,134.219c-2.208,0.114-4.432,0.173-6.668,0.173C111.873,276.084,78.808,260.565,55.519,235.765z
	 M176.006,273.09c-2.309-64.686-23.646-116.719-33.426-137.383c6.263-4.135,11.172-10.151,13.924-17.24
	c15.979-1.359,66.924-2.078,119.464,35.271C273.591,212.317,231.532,260.841,176.006,273.09z"/>
<g>
</g>
<g>
</g>
<g>
</g>
<g>
</g>
<g>
</g>
<g>
</g>
<g>
</g>
<g>
</g>
<g>
</g>
<g>
</g>
<g>
</g>
<g>
</g>
<g>
</g>
<g>
</g>
<g>
</g>
</svg>
