<?xml version="1.0" encoding="iso-8859-1"?>
<!-- Generator: Adobe Illustrator 18.0.0, SVG Export Plug-In . SVG Version: 6.00 Build 0)  -->
<!DOCTYPE svg PUBLIC "-//W3C//DTD SVG 1.1//EN" "http://www.w3.org/Graphics/SVG/1.1/DTD/svg11.dtd">
<svg version="1.1" id="Capa_1" xmlns="http://www.w3.org/2000/svg" xmlns:xlink="http://www.w3.org/1999/xlink" x="0px" y="0px"
	 viewBox="0 0 297 297" style="enable-background:new 0 0 297 297;" xml:space="preserve">
<path d="M148.5,0C66.617,0,0,66.617,0,148.5S66.617,297,148.5,297S297,230.383,297,148.5S230.383,0,148.5,0z M251.047,224.319
	H45.953c-3.21-4.331-6.149-8.871-8.8-13.596h222.693C257.196,215.448,254.257,219.988,251.047,224.319z M45.953,72.682h205.094
	c3.21,4.33,6.149,8.87,8.8,13.595H37.153C39.804,81.552,42.743,77.012,45.953,72.682z M148.5,130.73l47.262,59.078h-94.523
	L148.5,130.73z M81.523,180.97l-36.889-73.777h95.918c-0.075,0.086-0.147,0.174-0.219,0.264L81.523,180.97z M156.666,107.456
	c-0.071-0.09-0.144-0.178-0.219-0.264h95.918l-36.889,73.777L156.666,107.456z M62.558,189.808H27.782
	c-4.447-12.961-6.867-26.856-6.867-41.308c0-11.48,1.533-22.607,4.39-33.198L62.558,189.808z M234.442,189.808l37.253-74.506
	c2.856,10.591,4.39,21.719,4.39,33.198c0,14.451-2.42,28.347-6.867,41.308H234.442z M231.595,51.766H65.405
	c22.34-19.217,51.384-30.851,83.095-30.851C180.211,20.915,209.255,32.549,231.595,51.766z M65.405,245.234h166.189
	c-22.34,19.217-51.384,30.851-83.095,30.851C116.789,276.085,87.745,264.451,65.405,245.234z"/>
<g>
</g>
<g>
</g>
<g>
</g>
<g>
</g>
<g>
</g>
<g>
</g>
<g>
</g>
<g>
</g>
<g>
</g>
<g>
</g>
<g>
</g>
<g>
</g>
<g>
</g>
<g>
</g>
<g>
</g>
</svg>
