<?xml version="1.0" encoding="iso-8859-1"?>
<!-- Generator: Adobe Illustrator 18.0.0, SVG Export Plug-In . SVG Version: 6.00 Build 0)  -->
<!DOCTYPE svg PUBLIC "-//W3C//DTD SVG 1.1//EN" "http://www.w3.org/Graphics/SVG/1.1/DTD/svg11.dtd">
<svg version="1.1" id="Capa_1" xmlns="http://www.w3.org/2000/svg" xmlns:xlink="http://www.w3.org/1999/xlink" x="0px" y="0px"
	 viewBox="0 0 297 297" style="enable-background:new 0 0 297 297;" xml:space="preserve">
<g>
	<path d="M269.287,120.787h-29.688c-0.918-18.82-4.02-43.848-8.164-64.898C223.62,16.192,214.877,0,201.262,0
		c-13.616,0-22.358,16.192-30.175,55.89c-4.145,21.05-7.244,46.077-8.163,64.898H151.33c-0.918-18.82-4.02-43.848-8.164-64.898
		C135.35,16.192,126.608,0,112.993,0C99.376,0,90.633,16.192,82.818,55.89c-4.146,21.05-7.245,46.077-8.163,64.898H44.967
		c-5.774,0-10.457,4.683-10.457,10.457c0,5.775,4.683,10.458,10.457,10.458H73.54c6.863,17.677,24.022,73.87-2.813,140.956
		c-1.289,3.223-0.895,6.873,1.051,9.747c1.945,2.873,5.189,4.595,8.659,4.595h153.38c3.471,0,6.714-1.722,8.659-4.595
		c1.945-2.874,2.34-6.524,1.051-9.747c-16.81-42.025-16.044-79.587-12.44-103.698c2.571-17.215,6.915-30.252,9.635-37.258h28.565
		c5.775,0,10.458-4.683,10.458-10.458C279.745,125.47,275.062,120.787,269.287,120.787z M210.835,172.553H103.418
		c-2.099-12.635-5.007-23.108-7.605-30.851h122.629C215.842,149.444,212.934,159.918,210.835,172.553z M190.406,66.323
		c3.931-21.856,7.959-34.55,10.856-41.045c2.898,6.495,6.924,19.189,10.854,41.045c3.297,18.329,5.721,38.798,6.542,54.464h-9.03
		V79.479c0-4.62-3.746-8.365-8.366-8.365s-8.366,3.745-8.366,8.365v41.309h-9.03C184.687,105.121,187.111,84.651,190.406,66.323z
		 M102.136,66.323c3.931-21.856,7.959-34.55,10.856-41.045c2.896,6.495,6.924,19.189,10.854,41.045
		c3.297,18.329,5.72,38.798,6.541,54.464h-9.03V79.479c0-4.62-3.745-8.365-8.365-8.365c-4.621,0-8.367,3.745-8.367,8.365v41.309
		h-9.029C96.418,105.121,98.84,84.651,102.136,66.323z M95.351,276.084c10.079-30.902,12.044-59.165,10.486-82.615h102.58
		c-1.558,23.45,0.407,51.713,10.486,82.615H95.351z"/>
	<path d="M35.355,19.086l-1.295,1.295c-2.654,2.654-2.654,6.957,0.001,9.613c1.326,1.326,3.066,1.99,4.806,1.99
		c1.739,0,3.479-0.664,4.808-1.992l1.293-1.293l1.295,1.295c1.327,1.326,3.067,1.99,4.807,1.99c1.739,0,3.479-0.664,4.807-1.99
		c2.654-2.656,2.654-6.959,0-9.615l-1.295-1.295l1.294-1.293c2.654-2.654,2.654-6.959-0.001-9.613c-2.653-2.654-6.957-2.654-9.613,0
		l-1.293,1.293l-1.293-1.293c-2.656-2.654-6.959-2.654-9.614,0c-2.654,2.654-2.654,6.959,0,9.613L35.355,19.086z"/>
	<path d="M38.621,89.401l-1.295-1.295l1.295-1.295c2.654-2.654,2.654-6.958-0.001-9.613c-2.653-2.653-6.958-2.654-9.613,0.001
		l-1.293,1.293l-1.294-1.293c-2.654-2.654-6.959-2.655-9.613-0.001c-2.655,2.655-2.655,6.959-0.001,9.613l1.295,1.295l-1.295,1.295
		c-2.654,2.654-2.654,6.958,0.001,9.613c1.327,1.327,3.067,1.99,4.807,1.99c1.739,0,3.479-0.663,4.807-1.991l1.294-1.293
		l1.293,1.293c1.328,1.328,3.067,1.991,4.808,1.991c1.739,0,3.479-0.663,4.806-1.99C41.275,96.359,41.275,92.056,38.621,89.401z"/>
	<path d="M278.9,70.852l1.295-1.295c2.654-2.654,2.654-6.958-0.001-9.613c-2.653-2.653-6.958-2.654-9.613,0.001l-1.293,1.293
		l-1.294-1.293c-2.654-2.654-6.959-2.655-9.613-0.001c-2.655,2.655-2.655,6.959-0.001,9.613l1.295,1.295l-1.295,1.295
		c-2.654,2.654-2.654,6.957,0.001,9.613c1.327,1.326,3.067,1.99,4.806,1.99c1.739,0,3.479-0.664,4.808-1.992l1.294-1.293
		l1.293,1.293c1.327,1.328,3.066,1.992,4.807,1.992c1.739,0,3.479-0.664,4.807-1.99c2.655-2.656,2.655-6.959,0.001-9.613
		L278.9,70.852z"/>
</g>
<g>
</g>
<g>
</g>
<g>
</g>
<g>
</g>
<g>
</g>
<g>
</g>
<g>
</g>
<g>
</g>
<g>
</g>
<g>
</g>
<g>
</g>
<g>
</g>
<g>
</g>
<g>
</g>
<g>
</g>
</svg>
