<?xml version="1.0" encoding="iso-8859-1"?>
<!-- Generator: Adobe Illustrator 18.0.0, SVG Export Plug-In . SVG Version: 6.00 Build 0)  -->
<!DOCTYPE svg PUBLIC "-//W3C//DTD SVG 1.1//EN" "http://www.w3.org/Graphics/SVG/1.1/DTD/svg11.dtd">
<svg version="1.1" id="Capa_1" xmlns="http://www.w3.org/2000/svg" xmlns:xlink="http://www.w3.org/1999/xlink" x="0px" y="0px"
	 viewBox="0 0 297 297" style="enable-background:new 0 0 297 297;" xml:space="preserve">
<g>
	<path d="M165.339,110.336h-33.68c-5.637,0-10.206,4.57-10.206,10.207v67.361c0,5.637,4.569,10.205,10.206,10.205h33.68
		c5.637,0,10.206-4.568,10.206-10.205v-67.361C175.545,114.906,170.976,110.336,165.339,110.336z M155.133,177.697h-13.268V130.75
		h13.268V177.697z"/>
	<path d="M232.7,110.336h-33.681c-5.637,0-10.206,4.57-10.206,10.207v67.361c0,5.637,4.569,10.205,10.206,10.205H232.7
		c5.636,0,10.206-4.568,10.206-10.205v-67.361C242.906,114.906,238.336,110.336,232.7,110.336z M222.494,177.697h-13.268V130.75
		h13.268V177.697z"/>
	<path d="M97.978,110.336H64.298c-5.636,0-10.206,4.57-10.206,10.207v67.361c0,5.637,4.57,10.205,10.206,10.205h33.681
		c5.637,0,10.206-4.568,10.206-10.205v-67.361C108.185,114.906,103.615,110.336,97.978,110.336z M87.772,177.697H74.504V130.75
		h13.269V177.697z"/>
	<path d="M297,57.609c0-1.35-0.269-2.688-0.788-3.934l-17.289-41.391c-1.587-3.797-5.301-6.272-9.418-6.272H27.493
		c-4.117,0-7.831,2.475-9.418,6.273L0.788,53.676C0.269,54.922,0,56.26,0,57.609c0,6.215,1.274,12.135,3.572,17.519v168.398
		c0,5.637,4.569,10.207,10.206,10.207h23.975c3.207,21.063,21.441,37.252,43.386,37.252c21.943,0,40.178-16.189,43.385-37.252
		h47.951c3.207,21.063,21.441,37.252,43.385,37.252c21.944,0,40.179-16.189,43.386-37.252h23.977c5.637,0,10.206-4.57,10.206-10.207
		V75.129C295.726,69.744,297,63.824,297,57.609z M34.29,26.426h228.418l13.808,33.059c-0.96,12.564-11.49,22.496-24.298,22.496
		c-13.436,0-24.365-10.934-24.365-24.371l0,0c0-5.637-4.57-10.205-10.207-10.205c-5.637,0-10.206,4.568-10.206,10.205
		c0,0,0,0,0,0.002c0,6.508-2.534,12.627-7.136,17.23c-4.604,4.604-10.723,7.139-17.231,7.139c-13.436,0-24.366-10.934-24.366-24.371
		c0-5.637-4.568-10.205-10.206-10.205c-5.637,0-10.206,4.568-10.206,10.205c-0.001,13.437-10.932,24.371-24.368,24.371
		S89.559,71.047,89.559,57.609l0,0c0-5.637-4.57-10.205-10.206-10.205c-5.638,0-10.207,4.568-10.207,10.205c0,0,0,0,0,0.002
		c0,6.508-2.534,12.627-7.136,17.23c-4.603,4.604-10.721,7.139-17.229,7.139c-12.807,0-23.337-9.932-24.297-22.496L34.29,26.426z
		 M81.139,270.574c-12.944,0-23.475-10.531-23.475-23.475c0-12.943,10.53-23.475,23.475-23.475
		c12.943,0,23.474,10.531,23.474,23.475C104.612,260.043,94.082,270.574,81.139,270.574z M215.859,270.574
		c-12.943,0-23.474-10.531-23.474-23.475c0-12.943,10.53-23.475,23.474-23.475c12.944,0,23.475,10.531,23.475,23.475
		C239.334,260.043,228.804,270.574,215.859,270.574z M257.519,233.322c-5.793-17.469-22.273-30.109-41.659-30.109
		c-19.386,0-35.865,12.641-41.658,30.109h-51.404c-5.793-17.469-22.273-30.109-41.658-30.109c-19.387,0-35.866,12.641-41.659,30.109
		H23.984V97.252c6.22,3.275,13.293,5.141,20.797,5.141c11.961,0,23.205-4.658,31.662-13.117c1.032-1.033,2.008-2.105,2.924-3.217
		c8.221,9.969,20.66,16.334,34.559,16.334c13.906,0,26.353-6.375,34.573-16.354c8.22,9.979,20.667,16.354,34.573,16.354
		c11.962,0,23.207-4.658,31.665-13.117c1.032-1.033,2.007-2.105,2.924-3.217c8.22,9.969,20.658,16.334,34.557,16.334
		c7.504,0,14.578-1.865,20.798-5.141v136.07H257.519z"/>
</g>
<g>
</g>
<g>
</g>
<g>
</g>
<g>
</g>
<g>
</g>
<g>
</g>
<g>
</g>
<g>
</g>
<g>
</g>
<g>
</g>
<g>
</g>
<g>
</g>
<g>
</g>
<g>
</g>
<g>
</g>
</svg>
