<?xml version="1.0" encoding="iso-8859-1"?>
<!-- Generator: Adobe Illustrator 18.0.0, SVG Export Plug-In . SVG Version: 6.00 Build 0)  -->
<!DOCTYPE svg PUBLIC "-//W3C//DTD SVG 1.1//EN" "http://www.w3.org/Graphics/SVG/1.1/DTD/svg11.dtd">
<svg version="1.1" id="Capa_1" xmlns="http://www.w3.org/2000/svg" xmlns:xlink="http://www.w3.org/1999/xlink" x="0px" y="0px"
	 viewBox="0 0 297 297" style="enable-background:new 0 0 297 297;" xml:space="preserve">
<g>
	<path d="M158.534,12.919c0-3.226-1.551-6.254-4.168-8.141c-2.616-1.886-5.98-2.397-9.039-1.379L93.402,20.707
		c-4.098,1.366-6.861,5.2-6.861,9.52c0,4.319,2.764,8.153,6.861,9.519l45.063,15.021V76.59L4.716,160.183
		C1.782,162.018,0,165.233,0,168.693v115.388c0,5.542,4.492,10.034,10.034,10.034h276.932c5.541,0,10.034-4.492,10.034-10.034
		V168.693c0-3.46-1.782-6.675-4.716-8.51L158.534,76.59V12.919z M90.894,158.659H45.021l73.397-45.874L90.894,158.659z
		 M148.5,101.653l34.203,57.006h-68.406L148.5,101.653z M190.391,178.726v95.321h-83.781v-95.321H190.391z M206.106,158.659
		l-27.524-45.874l73.397,45.874H206.106z M128.305,30.226l10.161-3.387v6.775L128.305,30.226z M20.067,178.726h66.474v95.321H20.067
		V178.726z M210.459,274.048v-95.321h66.474v95.321H210.459z"/>
</g>
<g>
</g>
<g>
</g>
<g>
</g>
<g>
</g>
<g>
</g>
<g>
</g>
<g>
</g>
<g>
</g>
<g>
</g>
<g>
</g>
<g>
</g>
<g>
</g>
<g>
</g>
<g>
</g>
<g>
</g>
</svg>
