<?xml version="1.0" encoding="iso-8859-1"?>
<!-- Generator: Adobe Illustrator 18.0.0, SVG Export Plug-In . SVG Version: 6.00 Build 0)  -->
<!DOCTYPE svg PUBLIC "-//W3C//DTD SVG 1.1//EN" "http://www.w3.org/Graphics/SVG/1.1/DTD/svg11.dtd">
<svg version="1.1" id="Capa_1" xmlns="http://www.w3.org/2000/svg" xmlns:xlink="http://www.w3.org/1999/xlink" x="0px" y="0px"
	 viewBox="0 0 297 297" style="enable-background:new 0 0 297 297;" xml:space="preserve">
<path d="M284.954,57.797c-7.656-5.006-17.711-5.393-27.592-1.064l-12.23,5.359c-0.001,0-0.001,0.002-0.001,0.002l-12.333,5.402
	l-54.891,24.051c-3.003-0.764-6.145-1.172-9.381-1.172h-40.053c-3.236,0-6.378,0.408-9.381,1.172L39.639,56.732
	c-9.88-4.33-19.937-3.941-27.593,1.064C4.391,62.799,0,71.855,0,82.64v131.719c0,10.787,4.391,19.842,12.046,24.846
	c4.126,2.697,8.947,4.053,14.063,4.053c4.378,0,8.973-0.994,13.529-2.99l79.454-34.814c3.003,0.764,6.146,1.172,9.381,1.172h40.053
	c3.235,0,6.378-0.408,9.381-1.172l79.455,34.814c4.556,1.996,9.149,2.99,13.527,2.99c5.117,0,9.94-1.355,14.065-4.053
	C292.61,234.201,297,225.146,297,214.359V82.64C297,71.855,292.61,62.799,284.954,57.797z M269.146,188.797
	c0-6.098,3.359-11.418,8.316-14.232v28.465C272.505,200.215,269.146,194.894,269.146,188.797z M251.561,92.086
	c0,7.943-6.465,14.408-14.409,14.408c-7.565,0-13.788-5.859-14.365-13.279l16.659-7.301l8.265-3.621
	C250.148,84.924,251.561,88.412,251.561,92.086z M206.625,172.849v-32.563c8.222,0.857,14.653,7.826,14.653,16.273
	C221.278,165.09,214.966,172.107,206.625,172.849z M96.477,108.447c-8.4,0-19.728-6.363-20.645-14.525l23.343,10.23
	C98.203,105.32,97.306,107.168,96.477,108.447z M124.566,124.322c0,8.445-6.431,15.414-14.653,16.273v-12.121
	c0-6.912,3.805-12.941,9.423-16.137C122.611,115.383,124.566,119.699,124.566,124.322z M109.913,168.527v-12.258
	c16.85-0.893,30.283-14.879,30.283-31.947c0-5.111-1.238-10.021-3.455-14.408h20.109c0.861,16.281,13.954,29.375,30.236,30.236
	v28.377c0,2.498-0.503,4.879-1.402,7.057c-5.04-11.064-16.195-18.779-29.125-18.779c-16.932,0-30.823,13.221-31.916,29.881
	C116.242,184.916,109.913,177.449,109.913,168.527z M186.624,124.408c-7.284-0.973-13.059-6.746-14.031-14.031
	C179.564,111.943,185.058,117.435,186.624,124.408z M156.56,172.433c8.27,0,15.114,6.172,16.199,14.148
	c-1.362,0.32-2.774,0.506-4.232,0.506h-28.239C141.144,178.865,148.113,172.433,156.56,172.433z M19.538,110.088
	c2.426-1.385,5.177-2.129,8.072-2.129c9.022,0,16.363,7.34,16.363,16.363c0,9.023-7.341,16.363-16.363,16.363
	c-2.896,0-5.646-0.744-8.072-2.127V110.088z M31.797,222.373c-3.728,1.633-7.029,1.807-9.062,0.479
	c-2.032-1.328-3.197-4.424-3.197-8.492v-59.088c2.615,0.684,5.327,1.045,8.072,1.045c17.642,0,31.993-14.354,31.993-31.994
	c0-17.641-14.351-31.992-31.993-31.992c-2.745,0-5.457,0.359-8.072,1.045V82.64c0-4.068,1.165-7.162,3.197-8.49
	c2.032-1.328,5.336-1.156,9.062,0.479l28.688,12.568c-0.251,1.617-0.393,3.252-0.393,4.889c0,17.156,13.576,31.197,30.55,31.957
	c-0.17,1.453-0.267,2.932-0.267,4.432v40.053c0,9.24,3.309,17.719,8.801,24.322l-8.272,3.625c0.608-2.461,0.938-5.031,0.938-7.678
	c0-17.641-14.351-31.992-31.993-31.992s-31.993,14.352-31.993,31.992c0,12.061,6.711,22.582,16.594,28.031L31.797,222.373z
	 M43.484,188.797c0-9.023,7.341-16.363,16.363-16.363c9.022,0,16.362,7.34,16.362,16.363c0,9.023-7.34,16.363-16.362,16.363
	C50.825,205.16,43.484,197.82,43.484,188.797z M201.417,188.553c17.641,0,35.491-11.418,35.491-31.992
	c0-17.135-13.538-31.162-30.48-31.955c-0.783-7.73-3.888-14.785-8.604-20.453l6.645-2.912c4.007,14.283,17.137,24.791,32.683,24.791
	c18.718,0,33.946-15.229,33.946-33.945c0-6.383-1.82-12.518-5.066-17.785c3.383-1.307,6.354-1.379,8.232-0.15
	c2.032,1.328,3.197,4.422,3.197,8.49v75.189c-13.759,3.576-23.947,16.104-23.947,30.967c0,14.57,9.794,26.887,23.142,30.738
	c-0.546,1.494-1.354,2.637-2.392,3.316c-2.032,1.328-5.336,1.154-9.063-0.479l-67.378-29.523
	C199.158,191.246,200.357,190.361,201.417,188.553z"/>
<g>
</g>
<g>
</g>
<g>
</g>
<g>
</g>
<g>
</g>
<g>
</g>
<g>
</g>
<g>
</g>
<g>
</g>
<g>
</g>
<g>
</g>
<g>
</g>
<g>
</g>
<g>
</g>
<g>
</g>
</svg>
