<?xml version="1.0" encoding="iso-8859-1"?>
<!-- Generator: Adobe Illustrator 18.0.0, SVG Export Plug-In . SVG Version: 6.00 Build 0)  -->
<!DOCTYPE svg PUBLIC "-//W3C//DTD SVG 1.1//EN" "http://www.w3.org/Graphics/SVG/1.1/DTD/svg11.dtd">
<svg version="1.1" id="Capa_1" xmlns="http://www.w3.org/2000/svg" xmlns:xlink="http://www.w3.org/1999/xlink" x="0px" y="0px"
	 viewBox="0 0 297 297" style="enable-background:new 0 0 297 297;" xml:space="preserve">
<g>
	<path d="M120.24,165.623c0,15.726,12.674,28.52,28.252,28.52s28.252-12.794,28.252-28.52c0-15.728-12.674-28.522-28.252-28.522
		S120.24,149.895,120.24,165.623z M148.492,156.704c4.768,0,8.648,4.001,8.648,8.919c0,4.916-3.88,8.916-8.648,8.916
		c-4.769,0-8.649-4-8.649-8.916C139.843,160.705,143.724,156.704,148.492,156.704z"/>
	<path d="M171.207,125.023c-4.725,2.642-6.413,8.613-3.771,13.338c2.644,4.726,8.616,6.414,13.339,3.771
		c8.487-4.746,16.981-2.058,21.283,2.445c1.926,2.016,4.505,3.031,7.089,3.031c2.434,0,4.87-0.9,6.77-2.713
		c3.914-3.739,4.057-9.943,0.317-13.858C204.799,119.063,186.28,116.591,171.207,125.023z"/>
	<path d="M115.978,142.132c4.722,2.644,10.695,0.955,13.339-3.771c2.643-4.725,0.954-10.696-3.771-13.338
		c-15.074-8.431-33.593-5.96-45.027,6.014c-3.738,3.915-3.596,10.119,0.318,13.858c1.898,1.814,4.335,2.713,6.769,2.713
		c2.584,0,5.163-1.016,7.089-3.031C98.998,140.072,107.494,137.387,115.978,142.132z"/>
	<path d="M180.556,194.102c-1.327,0-2.661,0.124-3.975,0.371c-18.476,3.486-37.694,3.488-56.186-0.002
		c-1.303-0.245-2.638-0.369-3.964-0.369c-9.438,0-17.678,6.133-20.038,14.907c-2.65,9.829,3.153,19.229,14.787,23.946
		c17.973,7.285,26.993,10.941,37.312,10.941c10.318,0,19.34-3.656,37.313-10.941c11.632-4.716,17.435-14.114,14.786-23.941
		C198.229,200.235,189.989,194.102,180.556,194.102z M178.441,214.789c-15.614,6.328-23.452,9.505-29.949,9.505
		c-6.496,0-14.334-3.177-29.946-9.504c-0.898-0.365-1.596-0.744-2.117-1.084c0.001,0,0.002,0,0.003,0c0.114,0,0.23,0.011,0.337,0.03
		c20.868,3.938,42.59,3.936,63.439,0.002c0.113-0.021,0.231-0.032,0.348-0.032h0.002
		C180.035,214.046,179.34,214.425,178.441,214.789z"/>
	<path d="M297,56.622c0-22.402-18.223-40.629-40.622-40.629c-13.52,0-25.922,6.731-33.39,17.491
		c-4.11-1.369-8.438-2.074-12.845-2.074c-15.841,0-30.287,9.355-36.874,23.575c-7.569-0.809-15.809-1.215-24.838-1.215
		c-8.975,0-17.173,0.402-24.708,1.202c-6.59-14.213-21.031-23.562-36.866-23.562c-4.408,0-8.735,0.705-12.845,2.074
		c-7.468-10.76-19.869-17.491-33.391-17.491C18.223,15.993,0,34.22,0,56.622c0,5.022,0.938,10.001,2.74,14.662
		C0.937,75.111,0,79.281,0,83.596c0,11.134,6.39,21.093,15.96,25.946c2.828,17.032,16.289,30.511,33.304,33.38
		c0.165,3.764,0.396,7.477,0.707,11.118c-9.581,4.232-16.162,13.781-16.162,24.964c0,15.06,12.239,27.311,27.283,27.311
		c0.028,0,0.058,0,0.086,0c17.7,48.255,48.458,74.691,87.254,74.691c38.795,0,69.55-26.438,87.246-74.692
		c0.077,0.001,0.154,0.001,0.23,0.001c15.045,0,27.285-12.252,27.285-27.311c0-11.054-6.734-20.699-16.312-24.966
		c0.31-3.636,0.542-7.341,0.707-11.094c17.085-2.814,30.615-16.321,33.451-33.401c9.57-4.854,15.96-14.813,15.96-25.947
		c0-4.315-0.936-8.486-2.739-12.312C296.063,66.625,297,61.646,297,56.622z M35.015,102.946l0.009-0.322
		c0.069-4.718-3.232-8.815-7.856-9.752c-4.383-0.887-7.563-4.788-7.563-9.276c0-2.639,1.079-4.595,1.985-5.77
		c2.41-3.127,2.707-7.396,0.757-10.828c-1.794-3.153-2.742-6.742-2.742-10.376c0-11.593,9.429-21.025,21.019-21.025
		c8.912,0,16.886,5.654,19.84,14.069c1.004,2.86,3.276,5.096,6.152,6.053c2.879,0.957,6.035,0.53,8.554-1.159
		c3.461-2.32,7.503-3.546,11.689-3.546c6.337,0,12.233,2.902,16.162,7.616c-8.794,2.301-16.421,5.429-23.065,9.459
		c-18.762,11.378-29.076,29.744-30.733,54.648C40.993,119.906,35.05,112.117,35.015,102.946z M235.908,186.712
		c-1.024,0-2.024-0.201-2.972-0.599c-2.533-1.063-5.396-1.012-7.891,0.138c-2.495,1.15-4.393,3.293-5.231,5.909
		c-10.132,31.588-30.74,69.243-71.383,69.243c-40.63,0-61.241-37.631-71.377-69.199c-0.837-2.605-2.725-4.743-5.207-5.896
		c-1.307-0.605-2.716-0.91-4.126-0.91c-1.269,0-2.539,0.246-3.736,0.741c-0.922,0.38-1.896,0.572-2.894,0.572
		c-4.235,0-7.68-3.458-7.68-7.708c0-4.191,3.277-7.567,7.46-7.688c2.755-0.078,5.35-1.314,7.148-3.402
		c1.799-2.089,2.635-4.838,2.303-7.573c-1.156-9.542-1.742-19.732-1.742-30.292c0-21.925,6.845-36.287,21.538-45.199
		c12.734-7.723,31.809-11.477,58.312-11.477c26.5,0,45.571,3.754,58.304,11.477c14.693,8.912,21.537,23.274,21.537,45.199
		c0,10.528-0.585,20.719-1.741,30.287c-0.333,2.75,0.514,5.511,2.33,7.603c1.817,2.092,4.433,3.316,7.202,3.372
		c4.15,0.083,7.526,3.535,7.526,7.693C243.59,183.254,240.144,186.712,235.908,186.712z M275.413,77.828
		c0.905,1.173,1.983,3.127,1.983,5.768c0,4.488-3.181,8.39-7.564,9.276c-4.624,0.937-7.926,5.034-7.856,9.752l0.009,0.314
		c-0.032,9.229-6.044,17.062-14.349,19.852c-1.646-24.931-11.961-43.314-30.735-54.701c-6.615-4.013-14.203-7.131-22.947-9.429
		c3.928-4.731,9.837-7.646,16.189-7.646c4.186,0,8.227,1.226,11.688,3.546c2.518,1.688,5.675,2.115,8.553,1.159
		c2.877-0.957,5.148-3.192,6.153-6.052c2.955-8.416,10.929-14.07,19.84-14.07c11.59,0,21.019,9.433,21.019,21.025
		c0,3.637-0.947,7.225-2.74,10.375C272.704,70.43,273.002,74.7,275.413,77.828z"/>
</g>
<g>
</g>
<g>
</g>
<g>
</g>
<g>
</g>
<g>
</g>
<g>
</g>
<g>
</g>
<g>
</g>
<g>
</g>
<g>
</g>
<g>
</g>
<g>
</g>
<g>
</g>
<g>
</g>
<g>
</g>
</svg>
