<?xml version="1.0" encoding="iso-8859-1"?>
<!-- Generator: Adobe Illustrator 18.0.0, SVG Export Plug-In . SVG Version: 6.00 Build 0)  -->
<!DOCTYPE svg PUBLIC "-//W3C//DTD SVG 1.1//EN" "http://www.w3.org/Graphics/SVG/1.1/DTD/svg11.dtd">
<svg version="1.1" id="Capa_1" xmlns="http://www.w3.org/2000/svg" xmlns:xlink="http://www.w3.org/1999/xlink" x="0px" y="0px"
	 viewBox="0 0 297 297" style="enable-background:new 0 0 297 297;" xml:space="preserve">
<path d="M286.966,215.285h-21.337c-5.05-52.055-48.95-92.879-102.189-92.879c-22.5,0-43.328,7.295-60.266,19.644
	c-1.109-1.033-2.25-2.049-3.437-3.039c-0.374-0.311-0.748-0.615-1.121-0.916c7.228-4.258,12.091-12.119,12.091-21.096
	c0-13.494-10.978-24.473-24.472-24.473c-1.791,0-4.298,0.256-7.191,0.781c0.525-2.893,0.781-5.4,0.781-7.191
	c0-13.492-10.979-24.471-24.472-24.471c-13.494,0-24.472,10.979-24.472,24.471c0,1.791,0.256,4.299,0.781,7.191
	c-2.894-0.525-5.4-0.781-7.191-0.781C10.979,92.527,0,103.506,0,117c0,13.492,10.979,24.471,24.472,24.471
	c1.791,0,4.298-0.256,7.191-0.781c-0.525,2.893-0.781,5.4-0.781,7.191c0,13.494,10.978,24.471,24.472,24.471
	c13.493,0,24.472-10.977,24.472-24.471c0-0.33-0.012-0.695-0.029-1.072c3.061,1.869,6.42,4.24,9.729,7.154
	c-15.624,16.25-25.976,37.621-28.275,61.322H39.913c-5.541,0-10.034,4.492-10.034,10.033c0,5.543,4.493,10.035,10.034,10.035
	h247.053c5.541,0,10.034-4.492,10.034-10.035C297,219.777,292.507,215.285,286.966,215.285z M48.944,117
	c0-3.535,2.875-6.41,6.409-6.41s6.409,2.875,6.409,6.41c0,3.533-2.875,6.408-6.409,6.408S48.944,120.533,48.944,117z M92.646,117
	c0,3.533-2.876,6.408-6.41,6.408c-1.863,0-4.354-0.428-6.995-1.107c0.38-1.709,0.585-3.48,0.585-5.301
	c0-1.822-0.205-3.594-0.585-5.301c2.642-0.68,5.132-1.109,6.995-1.109C89.77,110.59,92.646,113.465,92.646,117z M55.354,79.709
	c3.534,0,6.409,2.875,6.409,6.408c0,1.863-0.429,4.354-1.108,6.996c-1.709-0.379-3.48-0.586-5.301-0.586
	c-1.821,0-3.593,0.207-5.301,0.584c-0.679-2.641-1.108-5.131-1.108-6.994C48.944,82.584,51.819,79.709,55.354,79.709z M18.063,117
	c0-3.535,2.875-6.41,6.409-6.41c1.863,0,4.352,0.43,6.995,1.109c-0.379,1.707-0.585,3.478-0.585,5.301
	c0,1.82,0.206,3.592,0.585,5.301c-2.642,0.68-5.132,1.107-6.995,1.107C20.938,123.408,18.063,120.533,18.063,117z M55.354,154.289
	c-3.534,0-6.409-2.875-6.409-6.408c0-1.863,0.43-4.354,1.108-6.994c1.708,0.379,3.479,0.584,5.301,0.584
	c1.82,0,3.592-0.205,5.301-0.584c0.68,2.641,1.108,5.131,1.108,6.994C61.763,151.414,58.888,154.289,55.354,154.289z
	 M102.19,169.789c3.55,6.719,5.895,14.789,5.895,24.414c0,4.988,4.043,9.031,9.031,9.031c4.988,0,9.031-4.043,9.031-9.031
	c0-13.367-3.476-25.734-10.17-36.629c13.44-9.498,29.806-15.1,47.462-15.1c42.162,0,77.024,31.848,81.982,72.811H81.457
	C83.561,197.9,91.035,182.152,102.19,169.789z"/>
<g>
</g>
<g>
</g>
<g>
</g>
<g>
</g>
<g>
</g>
<g>
</g>
<g>
</g>
<g>
</g>
<g>
</g>
<g>
</g>
<g>
</g>
<g>
</g>
<g>
</g>
<g>
</g>
<g>
</g>
</svg>
