<?xml version="1.0" encoding="iso-8859-1"?>
<!-- Generator: Adobe Illustrator 18.0.0, SVG Export Plug-In . SVG Version: 6.00 Build 0)  -->
<!DOCTYPE svg PUBLIC "-//W3C//DTD SVG 1.1//EN" "http://www.w3.org/Graphics/SVG/1.1/DTD/svg11.dtd">
<svg version="1.1" id="Capa_1" xmlns="http://www.w3.org/2000/svg" xmlns:xlink="http://www.w3.org/1999/xlink" x="0px" y="0px"
	 viewBox="0 0 297 297" style="enable-background:new 0 0 297 297;" xml:space="preserve">
<path d="M234.134,85.817c0-25.403-17.25-46.239-38.93-47.694C190.737,16.39,171.495,0,148.501,0
	c-22.994,0-42.238,16.39-46.703,38.123c-21.682,1.455-38.932,22.291-38.932,47.694c0,16.13,6.844,30.726,17.994,39.476
	c-2.588,8.774-2.551,18.633,0.238,28.163c4.668,15.984,16.41,27.837,30.855,31.73c4.563,11.822,14.635,20.693,26.814,23.825v78.257
	c0,5.374,4.357,9.731,9.732,9.731c5.373,0,9.73-4.357,9.73-9.731v-78.257c12.18-3.132,22.252-12.004,26.814-23.825
	c14.445-3.895,26.186-15.747,30.857-31.727c2.787-9.533,2.822-19.393,0.236-28.166C227.292,116.544,234.134,101.948,234.134,85.817z
	 M199.97,112.527c-2.469,1.131-4.354,3.241-5.197,5.822c-0.844,2.581-0.572,5.397,0.752,7.769
	c3.328,5.958,3.963,14.137,1.699,21.879c-3.125,10.689-11.256,18.155-20.713,19.02c-4.313,0.395-7.844,3.59-8.668,7.84
	c-1.789,9.229-9.924,15.928-19.342,15.928c-9.42,0-17.555-6.699-19.344-15.93c-0.824-4.25-4.355-7.445-8.668-7.84
	c-9.459-0.863-17.586-8.327-20.711-19.022c-2.266-7.739-1.631-15.915,1.697-21.872c1.326-2.371,1.6-5.188,0.756-7.77
	c-0.844-2.582-2.729-4.693-5.199-5.824c-8.793-4.027-14.703-14.762-14.703-26.71c0-15.611,9.822-28.313,21.895-28.313
	c1.355,0,2.709,0.163,4.025,0.486c2.934,0.724,6.035,0.038,8.395-1.848c2.359-1.885,3.711-4.76,3.656-7.781l-0.018-0.589
	c0-15.61,12.658-28.311,28.219-28.311c15.559,0,28.219,12.7,28.219,28.282l-0.018,0.58c-0.068,3.025,1.275,5.91,3.637,7.806
	c2.361,1.893,5.471,2.582,8.408,1.862c1.32-0.324,2.678-0.488,4.029-0.488c12.072,0,21.895,12.702,21.895,28.313
	C214.671,97.766,208.763,108.5,199.97,112.527z"/>
<g>
</g>
<g>
</g>
<g>
</g>
<g>
</g>
<g>
</g>
<g>
</g>
<g>
</g>
<g>
</g>
<g>
</g>
<g>
</g>
<g>
</g>
<g>
</g>
<g>
</g>
<g>
</g>
<g>
</g>
</svg>
