<?xml version="1.0" encoding="iso-8859-1"?>
<!-- Generator: Adobe Illustrator 18.0.0, SVG Export Plug-In . SVG Version: 6.00 Build 0)  -->
<!DOCTYPE svg PUBLIC "-//W3C//DTD SVG 1.1//EN" "http://www.w3.org/Graphics/SVG/1.1/DTD/svg11.dtd">
<svg version="1.1" id="Capa_1" xmlns="http://www.w3.org/2000/svg" xmlns:xlink="http://www.w3.org/1999/xlink" x="0px" y="0px"
	 viewBox="0 0 297 297" style="enable-background:new 0 0 297 297;" xml:space="preserve">
<path d="M80.795,166.782c0,3.205,0.433,7.624,1.233,10.577L57.615,226.23c-8.77,17.551-1.629,38.973,15.915,47.752l2.317,1.16
	c4.897,2.449,10.377,3.746,15.846,3.746c0.001,0,0.002,0,0.003,0c13.612,0,25.831-7.531,31.89-19.658l25.059-50.162
	c0.88-1.762,1.592-3.563,2.157-5.385h11.491c0.564,1.822,1.276,3.623,2.156,5.385l25.061,50.162
	c6.059,12.125,18.278,19.658,31.893,19.658c5.468,0,10.948-1.295,15.847-3.746l2.317-1.16c17.544-8.779,24.684-30.201,15.916-47.752
	l-18.649-37.332c4.235-5.857,6.744-14.353,6.744-22.116c0-10.684-4.738-21.589-12.217-28.116l26.431-26.457
	c3.441,1.516,7.239,2.363,11.232,2.363c15.427,0,27.977-12.555,27.977-27.988s-12.55-27.99-27.977-27.99
	c-15.425,0-27.975,12.557-27.975,27.99c0,3.998,0.849,7.801,2.365,11.246l-32.177,32.207l-61.867-0.154l-16.651-33.334l24.88-24.902
	c11.884-11.895,11.884-31.25,0.004-43.141l-1.476-1.48c-5.744-5.748-13.403-8.914-21.566-8.914c-8.163,0-15.822,3.166-21.567,8.916
	L79.79,60.395c-3.513-1.162-7.262-1.801-11.159-1.801H35.586C15.964,58.594,0,74.559,0,94.18v2.629
	c0,19.623,15.964,35.586,35.586,35.586H68.17l13.242,26.51C81.013,161.033,80.795,164.54,80.795,166.782z M93.724,138.049
	l-5.704-11.422c5.479-3.576,9.92-8.613,12.755-14.561c1.177,0.137,2.366,0.213,3.569,0.213c4.285,0,8.428-0.881,12.23-2.541
	l10.063,20.145h-10.256C107.78,129.883,99.883,132.951,93.724,138.049z M127.38,41.4c1.903-1.904,4.453-2.953,7.181-2.953
	c2.728,0,5.277,1.049,7.176,2.947l1.477,1.48c3.966,3.969,3.966,10.43,0,14.398L111.524,88.99c-1.902,1.904-4.453,2.953-7.181,2.953
	c-0.068,0-0.136-0.008-0.204-0.01c-0.465-7.414-3.21-14.217-7.542-19.721L127.38,41.4z M20.335,96.809V94.18
	c0-8.41,6.841-15.252,15.251-15.252h33.045c8.41,0,15.252,6.842,15.252,15.252v2.629c0,8.41-6.842,15.252-15.252,15.252H35.586
	C27.176,112.061,20.335,105.219,20.335,96.809z M130.453,199.979l-25.059,50.162c-2.554,5.111-7.931,8.412-13.699,8.412
	c-2.36,0-4.63-0.537-6.745-1.596l-2.317-1.16c-7.524-3.766-10.587-12.951-6.825-20.479l25.058-50.162
	c2.554-5.111,7.931-8.412,13.7-8.412c2.358,0,4.628,0.537,6.745,1.596l2.317,1.16C131.152,183.266,134.215,192.451,130.453,199.979z
	 M223.242,165.883c-6.51-6.262-15.273-9.475-24.712-9.475c-5.469,0-10.947,1.295-15.846,3.746l-2.319,1.162
	c-9.257,4.631-15.613,12.785-18.267,22.031h-11.1c-2.655-9.246-9.012-17.4-18.269-22.031l-2.317-1.16
	c-4.898-2.451-10.378-3.748-15.847-3.748c-4.055,0-7.98,0.682-11.662,1.941c2.562-4.83,7.639-8.133,13.479-8.133h91.609
	C216.401,150.217,223.242,157.473,223.242,165.883z M230.465,255.797l-2.317,1.16c-2.117,1.059-4.386,1.596-6.745,1.596
	c-5.77,0-11.147-3.301-13.7-8.412l-25.061-50.162c-3.76-7.527-0.697-16.713,6.826-20.479l2.319-1.16
	c2.117-1.061,4.386-1.596,6.744-1.596c5.77,0,11.148,3.301,13.7,8.41l25.061,50.164
	C241.052,242.846,237.989,252.031,230.465,255.797z M269.023,94.238c-4.212,0-7.64-3.434-7.64-7.654s3.428-7.656,7.64-7.656
	c4.213,0,7.641,3.436,7.641,7.656S273.236,94.238,269.023,94.238z"/>
<g>
</g>
<g>
</g>
<g>
</g>
<g>
</g>
<g>
</g>
<g>
</g>
<g>
</g>
<g>
</g>
<g>
</g>
<g>
</g>
<g>
</g>
<g>
</g>
<g>
</g>
<g>
</g>
<g>
</g>
</svg>
