<?xml version="1.0" encoding="iso-8859-1"?>
<!-- Generator: Adobe Illustrator 18.0.0, SVG Export Plug-In . SVG Version: 6.00 Build 0)  -->
<!DOCTYPE svg PUBLIC "-//W3C//DTD SVG 1.1//EN" "http://www.w3.org/Graphics/SVG/1.1/DTD/svg11.dtd">
<svg version="1.1" id="Capa_1" xmlns="http://www.w3.org/2000/svg" xmlns:xlink="http://www.w3.org/1999/xlink" x="0px" y="0px"
	 viewBox="0 0 297 297" style="enable-background:new 0 0 297 297;" xml:space="preserve">
<g>
	<path d="M286.542,128.633H10.458C4.683,128.633,0,133.314,0,139.09v125.493c0,5.775,4.683,10.458,10.458,10.458h276.084
		c5.775,0,10.458-4.683,10.458-10.458V139.09C297,133.314,292.317,128.633,286.542,128.633z M148.618,164.922l45.744,89.203h-90.349
		L148.618,164.922z M88.323,239.072l-59.49-89.524h104.252L88.323,239.072z M164.073,149.548h104.262l-58.348,89.535
		L164.073,149.548z M20.915,175.157l52.477,78.968H20.915V175.157z M224.975,254.125l51.11-78.431v78.431H224.975z"/>
	<path d="M58.917,42.343l64.354,21.451l-24.656,8.22c-4.979-4.763-11.719-7.696-19.137-7.696c-15.281,0-27.713,12.432-27.713,27.713
		c0,15.281,12.432,27.713,27.713,27.713c15.281,0,27.714-12.432,27.714-27.713c0-0.276-0.014-0.548-0.021-0.821l49.172-16.392
		l49.172,16.392c-0.008,0.273-0.02,0.545-0.02,0.821c0,15.281,12.432,27.713,27.713,27.713c15.281,0,27.713-12.432,27.713-27.713
		c0-15.281-12.432-27.713-27.713-27.713c-7.418,0-14.157,2.934-19.137,7.696l-24.656-8.22l64.355-21.451
		c5.479-1.827,8.441-7.749,6.615-13.229c-1.827-5.479-7.747-8.442-13.229-6.615L156.344,52.77L65.53,22.499
		c-5.479-1.827-11.401,1.136-13.228,6.615C50.476,34.594,53.438,40.515,58.917,42.343z M79.479,98.828
		c-3.748,0-6.797-3.05-6.797-6.798c0-3.748,3.049-6.798,6.797-6.798c3.748,0,6.798,3.05,6.798,6.798
		C86.276,95.778,83.227,98.828,79.479,98.828z M233.208,85.232c3.748,0,6.797,3.05,6.797,6.798c0,3.748-3.049,6.798-6.797,6.798
		c-3.748,0-6.798-3.05-6.798-6.798C226.41,88.282,229.46,85.232,233.208,85.232z"/>
</g>
<g>
</g>
<g>
</g>
<g>
</g>
<g>
</g>
<g>
</g>
<g>
</g>
<g>
</g>
<g>
</g>
<g>
</g>
<g>
</g>
<g>
</g>
<g>
</g>
<g>
</g>
<g>
</g>
<g>
</g>
</svg>
