<?xml version="1.0" encoding="iso-8859-1"?>
<!-- Generator: Adobe Illustrator 18.0.0, SVG Export Plug-In . SVG Version: 6.00 Build 0)  -->
<!DOCTYPE svg PUBLIC "-//W3C//DTD SVG 1.1//EN" "http://www.w3.org/Graphics/SVG/1.1/DTD/svg11.dtd">
<svg version="1.1" id="Capa_1" xmlns="http://www.w3.org/2000/svg" xmlns:xlink="http://www.w3.org/1999/xlink" x="0px" y="0px"
	 viewBox="0 0 296.999 296.999" style="enable-background:new 0 0 296.999 296.999;" xml:space="preserve">
<path d="M296.999,34.502c0-5.576-4.521-10.1-10.098-10.1c-5.576,0-10.1,4.524-10.1,10.1c0,0.99-0.004,2.918-1.253,4.43
	c-2.86-4.197-6.146-8.166-9.856-11.877c-12.071-12.072-32.325-18.723-60.199-19.771C188.992,6.658,170.937,8.23,165.07,8.82
	c-4.823-3.719-11.174-6.055-19.55-6.055c-8.378,0-16.244,2.502-23.063,6.863C115.448,11.881,74.96,26.41,62.073,65.07
	c-4.699,14.1-11.6,22.883-19.428,24.73c-4.577,1.084-9.474-0.434-13.094-4.055c-1.894-1.895-4.463-2.959-7.141-2.959
	c-2.679,0-5.247,1.064-7.142,2.959L2.957,98.056c-3.415,3.416-3.934,8.771-1.236,12.781c0.627,0.93,15.62,22.846,38.953,26.273
	c2.1,0.309,4.188,0.463,6.267,0.463c9.045-0.002,17.881-2.93,26.385-8.721c7.872,3.008,22.586,7.059,34.939,1.529
	c4.904,5.313,12.149,14.695,16.181,27.164c4.308,13.326,3.165,25.854,1.776,33.176H91.924c-5.576,0-10.099,4.521-10.099,10.1v83.313
	c0,5.578,4.522,10.1,10.099,10.1h183.29c5.576,0,10.098-4.522,10.098-10.1v-83.313c0-5.578-4.521-10.1-10.098-10.1h-28.918
	c3.274-6.514,8.871-16.348,18.426-30.68c14.141-21.211,22.846-44.756,24.513-66.299c1.01-13.063-0.508-25.344-4.442-36.535
	C291.505,53.209,296.999,46.004,296.999,34.502z M160.043,55.953c0,32.99-9.091,32.99-14.523,32.99
	c-14.797,0-26.834-14.799-26.834-32.99c0-18.189,12.037-32.99,26.834-32.99C150.952,22.963,160.043,22.963,160.043,55.953z
	 M255.909,210.92l-31.417,48.211l-24.723-48.211H255.909z M183.682,223.261l26.038,50.775h-51.426L183.682,223.261z M167.552,210.92
	l-24.099,48.201l-32.029-48.201H167.552z M102.023,232.814l27.394,41.223h-27.394V232.814z M238.587,274.037l26.528-40.711v40.711
	H238.587z M247.917,148.839c-13.926,20.889-20.648,33.869-23.777,41.883h-20.527c-0.754-6.723-1.613-16.814-1.613-27.895
	c0-5.576-4.521-10.098-10.099-10.098h-9.273c-3.156,0-6.131,1.477-8.041,3.988c-1.909,2.514-2.534,5.775-1.688,8.816
	c3.902,14.027,4.017,21.555,3.576,25.188h-29.77c1.448-9.871,1.892-24.127-3.041-39.389c-8.419-26.037-27.167-41.113-27.962-41.742
	c-4.02-3.184-9.785-2.85-13.411,0.775c-2.499,2.5-6.893,2.873-11.467,2.279c0.204-0.219,0.385-0.41,0.512-0.545
	c3.813-4.072,3.603-10.461-0.468-14.275c-4.072-3.811-10.461-3.602-14.274,0.469c-3.527,3.766-9.378,9.793-11.343,11.404
	c-7.357,6.029-14.413,8.461-21.556,7.441c-7.609-1.088-14.173-5.869-18.695-10.17c6.907,3.334,14.71,4.277,22.284,2.488
	c8.627-2.037,24.51-9.682,33.949-38.002c3.678-11.033,10.664-19.574,18.184-26.027c-0.607,3.402-0.929,6.922-0.929,10.523
	c0,29.328,21.099,53.188,47.031,53.188c34.721,0,34.721-40.033,34.721-53.188c0-5.852-0.003-17.023-3.06-27.625
	c19.512-2.01,58.703-2.52,74.23,13.008C281.57,71.496,269.38,116.644,247.917,148.839z"/>
<g>
</g>
<g>
</g>
<g>
</g>
<g>
</g>
<g>
</g>
<g>
</g>
<g>
</g>
<g>
</g>
<g>
</g>
<g>
</g>
<g>
</g>
<g>
</g>
<g>
</g>
<g>
</g>
<g>
</g>
</svg>
