<?xml version="1.0" encoding="iso-8859-1"?>
<!-- Generator: Adobe Illustrator 18.0.0, SVG Export Plug-In . SVG Version: 6.00 Build 0)  -->
<!DOCTYPE svg PUBLIC "-//W3C//DTD SVG 1.1//EN" "http://www.w3.org/Graphics/SVG/1.1/DTD/svg11.dtd">
<svg version="1.1" id="Capa_1" xmlns="http://www.w3.org/2000/svg" xmlns:xlink="http://www.w3.org/1999/xlink" x="0px" y="0px"
	 viewBox="0 0 297 297" style="enable-background:new 0 0 297 297;" xml:space="preserve">
<path d="M259.157,167.757c2.781,0.995,5.773,1.541,8.892,1.541c14.588,0,26.455-11.867,26.455-26.455
	c0-14.588-11.867-26.456-26.455-26.456c-3.467,0-6.776,0.678-9.813,1.896c-3.086-12.176-8.23-23.539-15.037-33.698
	c10.64-3.428,18.361-13.419,18.361-25.184c0-14.588-11.867-26.456-26.455-26.456c-12.121,0-22.357,8.196-25.475,19.336
	c-10.174-6.264-21.449-10.898-33.466-13.545c1.934-3.673,3.034-7.849,3.034-12.28C179.198,11.867,167.331,0,152.743,0
	c-14.588,0-26.456,11.867-26.456,26.455c0,4.432,1.101,8.607,3.034,12.28c-12.016,2.646-23.292,7.281-33.465,13.545
	c-3.118-11.14-13.353-19.336-25.475-19.336c-14.588,0-26.456,11.868-26.456,26.456c0,11.765,7.722,21.756,18.362,25.184
	c-7.646,11.41-13.194,24.337-16.084,38.229c-4.636-3.999-10.664-6.426-17.253-6.426c-14.588,0-26.455,11.868-26.455,26.456
	c0,14.588,11.867,26.455,26.455,26.455c6.258,0,12.012-2.188,16.547-5.835c4,23.309,15.443,44.101,31.783,59.85l-42.218,53.721
	h-5.862c-5.514,0-9.983,4.471-9.983,9.983c0,5.514,4.47,9.983,9.983,9.983h247.084c5.513,0,9.983-4.47,9.983-9.983
	c0-5.513-4.471-9.983-9.983-9.983h-5.862l-42.218-53.721C243.533,208.537,254.55,189.323,259.157,167.757z M162.726,56.72
	c17.03,1.913,32.617,8.656,45.356,18.828l-45.356,45.356V56.72z M142.76,120.902L97.403,75.547
	c12.739-10.171,28.327-16.914,45.356-18.827V120.902z M126.477,132.859H64.726c2.224-16.186,8.819-30.995,18.559-43.193
	L126.477,132.859z M222.201,89.666c9.739,12.198,16.336,27.008,18.559,43.193h-61.751L222.201,89.666z M268.049,136.354
	c3.578,0,6.489,2.911,6.489,6.489c0,3.578-2.911,6.489-6.489,6.489c-3.578,0-6.489-2.911-6.489-6.489
	C261.56,139.265,264.471,136.354,268.049,136.354z M235.105,52.911c3.578,0,6.488,2.911,6.488,6.489c0,3.577-2.91,6.488-6.488,6.488
	c-3.578,0-6.489-2.911-6.489-6.488C228.615,55.822,231.526,52.911,235.105,52.911z M152.743,19.967c3.578,0,6.488,2.91,6.488,6.488
	s-2.91,6.489-6.488,6.489c-3.578,0-6.489-2.911-6.489-6.489S149.165,19.967,152.743,19.967z M70.382,52.911
	c3.578,0,6.488,2.911,6.488,6.489c0,3.577-2.91,6.488-6.488,6.488c-3.578,0-6.489-2.911-6.489-6.488
	C63.893,55.822,66.804,52.911,70.382,52.911z M28.951,149.332c-3.578,0-6.489-2.911-6.489-6.489c0-3.578,2.911-6.489,6.489-6.489
	c3.578,0,6.489,2.911,6.489,6.489C35.44,146.421,32.529,149.332,28.951,149.332z M64.234,152.826h68.441l-42.991,54.703
	C75.476,193.2,66.097,174.076,64.234,152.826z M106.768,277.033l22.046-25.886c7.704,1.737,15.708,2.675,23.93,2.675
	c8.221,0,16.225-0.938,23.929-2.675l22.046,25.886H106.768z M143.918,233.412l8.825-10.363l8.824,10.363
	c-2.902,0.287-5.845,0.444-8.824,0.444C149.764,233.856,146.821,233.699,143.918,233.412z M223.243,275.037l-62.899-73.859
	c-1.897-2.228-4.675-3.511-7.601-3.511c-2.926,0-5.703,1.283-7.601,3.511l-62.9,73.859H62.025l90.718-115.434l90.717,115.434
	H223.243z M172.81,152.826h68.441c-1.862,21.25-11.24,40.374-25.45,54.703L172.81,152.826z"/>
<g>
</g>
<g>
</g>
<g>
</g>
<g>
</g>
<g>
</g>
<g>
</g>
<g>
</g>
<g>
</g>
<g>
</g>
<g>
</g>
<g>
</g>
<g>
</g>
<g>
</g>
<g>
</g>
<g>
</g>
</svg>
