<?xml version="1.0" encoding="iso-8859-1"?>
<!-- Generator: Adobe Illustrator 18.0.0, SVG Export Plug-In . SVG Version: 6.00 Build 0)  -->
<!DOCTYPE svg PUBLIC "-//W3C//DTD SVG 1.1//EN" "http://www.w3.org/Graphics/SVG/1.1/DTD/svg11.dtd">
<svg version="1.1" id="Capa_1" xmlns="http://www.w3.org/2000/svg" xmlns:xlink="http://www.w3.org/1999/xlink" x="0px" y="0px"
	 viewBox="0 0 297 297" style="enable-background:new 0 0 297 297;" xml:space="preserve">
<g>
	<path d="M296.725,217.301l-13.005-78.028c-0.841-5.042-5.203-8.737-10.315-8.737h-53.063c-5.112,0-9.475,3.695-10.314,8.738
		l-13.118,78.707c-0.504,3.032,0.35,6.133,2.337,8.479c1.986,2.346,4.905,3.697,7.979,3.697h79.298c0.006,0,0.015,0,0.021,0
		c5.775,0,10.457-4.682,10.457-10.457C297,218.875,296.905,218.07,296.725,217.301z M219.569,209.242l9.632-57.793h35.345
		l9.633,57.793H219.569z"/>
	<path d="M86.951,139.272c-0.84-5.042-5.202-8.737-10.314-8.737H23.574c-5.112,0-9.475,3.695-10.315,8.738L0.142,217.98
		c-0.504,3.032,0.35,6.133,2.337,8.479c1.986,2.346,4.904,3.697,7.979,3.697h79.298c0.006,0,0.015,0,0.021,0
		c5.775,0,10.457-4.682,10.457-10.457c0-0.824-0.095-1.629-0.276-2.398L86.951,139.272z M22.801,209.242l9.633-57.793h35.344
		l9.633,57.793H22.801z"/>
	<path d="M189.485,77.232L137.41,67.041c-5.021-0.985-10.009,1.808-11.801,6.594L97.62,148.359
		c-1.078,2.879-0.835,6.085,0.664,8.768c1.499,2.684,4.103,4.571,7.119,5.161l77.821,15.23c0.668,0.131,1.34,0.194,2.009,0.194
		c2.355,0,4.663-0.795,6.532-2.291c2.4-1.92,3.834-4.799,3.921-7.872l2.242-79.762C198.073,82.679,194.501,78.214,189.485,77.232z
		 M175.128,154.624l-53.594-10.489l20.553-54.868l34.687,6.789L175.128,154.624z"/>
	<ellipse cx="148.49" cy="207.151" rx="12.57" ry="12.712"/>
</g>
<g>
</g>
<g>
</g>
<g>
</g>
<g>
</g>
<g>
</g>
<g>
</g>
<g>
</g>
<g>
</g>
<g>
</g>
<g>
</g>
<g>
</g>
<g>
</g>
<g>
</g>
<g>
</g>
<g>
</g>
</svg>
