<?xml version="1.0" encoding="iso-8859-1"?>
<!-- Generator: Adobe Illustrator 18.0.0, SVG Export Plug-In . SVG Version: 6.00 Build 0)  -->
<!DOCTYPE svg PUBLIC "-//W3C//DTD SVG 1.1//EN" "http://www.w3.org/Graphics/SVG/1.1/DTD/svg11.dtd">
<svg version="1.1" id="Capa_1" xmlns="http://www.w3.org/2000/svg" xmlns:xlink="http://www.w3.org/1999/xlink" x="0px" y="0px"
	 viewBox="0 0 297 297" style="enable-background:new 0 0 297 297;" xml:space="preserve">
<path d="M274.337,226.844c-88.942-1.553-150.419-33.621-186.33-60.249c-22.147-16.425-37.597-32.867-46.85-44.074
	c1.939-0.081,3.852-0.188,5.766-0.292l46.776,47.044c1.807,1.817,4.251,2.816,6.771,2.816c0.519,0,1.042-0.042,1.563-0.129
	c3.05-0.506,5.666-2.456,7.021-5.235l26.553-54.438l48.538,34.192c1.631,1.15,3.556,1.743,5.501,1.743
	c1.066,0,2.14-0.179,3.174-0.542c2.915-1.028,5.153-3.403,6.005-6.376l17.49-60.996l52.947,15.347
	c0.875,0.253,1.77,0.377,2.658,0.377c2.13,0,4.228-0.712,5.936-2.067c2.422-1.921,3.765-4.896,3.603-7.983l-3.43-65.455
	c2.685-3.19,4.105-5.149,4.309-5.436c3.06-4.285,2.068-10.233-2.21-13.304c-4.278-3.068-10.243-2.087-13.321,2.186
	c-0.182,0.25-18.463,25.283-57.545,49.96c-36.037,22.753-97.702,49.875-186.826,49.875c-3.46,0-6.648,1.871-8.337,4.892
	c-1.688,3.021-1.609,6.718,0.203,9.664c0.383,0.622,5.052,8.099,14.46,19.158l-1.146,79.763c-0.044,3.086,1.406,6.003,3.892,7.832
	c1.662,1.221,3.649,1.855,5.659,1.855c0.998,0,2.003-0.156,2.976-0.476l52.381-17.185l19.608,60.349
	c0.955,2.941,3.274,5.236,6.225,6.161c0.937,0.295,1.9,0.439,2.858,0.439c2.059,0,4.089-0.665,5.771-1.94l47.315-35.867
	l28.435,53.48c1.451,2.729,4.134,4.587,7.199,4.986c0.413,0.055,0.824,0.08,1.234,0.08c2.639,0,5.183-1.095,7.002-3.057
	l44.842-48.362c3.648,0.163,7.309,0.296,10.991,0.36c0.057,0.001,0.113,0.002,0.171,0.002c5.195,0,9.454-4.168,9.545-9.384
	C283.81,231.285,279.61,226.936,274.337,226.844z M97.774,146.281L71.78,120.14c14.997-1.72,29.068-4.177,42.241-7.169
	L97.774,146.281z M184.167,123.13l-30.547-21.519c15.696-5.497,29.631-11.636,41.845-17.885L184.167,123.13z M259.886,39.301
	l1.796,34.269l-32.989-9.561C241.458,55.277,251.807,46.74,259.886,39.301z M47.579,157.433
	c7.918,7.594,17.311,15.743,28.281,23.932c4.206,3.139,8.501,6.165,12.867,9.091l-41.82,13.719L47.579,157.433z M159.331,225.832
	l-33.183,25.154l-15.271-46.998C125.408,212.062,143.493,220.04,159.331,225.832z M213.295,271.108l-18.54-34.869
	c14.27,3.362,28.931,5.861,43.929,7.485L213.295,271.108z"/>
<g>
</g>
<g>
</g>
<g>
</g>
<g>
</g>
<g>
</g>
<g>
</g>
<g>
</g>
<g>
</g>
<g>
</g>
<g>
</g>
<g>
</g>
<g>
</g>
<g>
</g>
<g>
</g>
<g>
</g>
</svg>
