<?xml version="1.0" encoding="iso-8859-1"?>
<!-- Generator: Adobe Illustrator 18.0.0, SVG Export Plug-In . SVG Version: 6.00 Build 0)  -->
<!DOCTYPE svg PUBLIC "-//W3C//DTD SVG 1.1//EN" "http://www.w3.org/Graphics/SVG/1.1/DTD/svg11.dtd">
<svg version="1.1" id="Capa_1" xmlns="http://www.w3.org/2000/svg" xmlns:xlink="http://www.w3.org/1999/xlink" x="0px" y="0px"
	 viewBox="0 0 297 297" style="enable-background:new 0 0 297 297;" xml:space="preserve">
<g>
	<path d="M148.5,0c-24.795,0-44.969,20.173-44.969,44.969c0,24.795,20.174,44.968,44.969,44.968s44.968-20.173,44.968-44.968
		C193.468,20.173,173.295,0,148.5,0z M148.5,69.021c-13.263,0-24.053-10.79-24.053-24.053c0-13.264,10.79-24.054,24.053-24.054
		c13.263,0,24.053,10.79,24.053,24.054C172.553,58.231,161.763,69.021,148.5,69.021z"/>
	<path d="M148.5,207.064c-24.795,0-44.969,20.173-44.969,44.968c0,24.796,20.174,44.969,44.969,44.969s44.968-20.173,44.968-44.969
		C193.468,227.236,173.295,207.064,148.5,207.064z M148.5,276.084c-13.263,0-24.053-10.789-24.053-24.053
		c0-13.263,10.79-24.053,24.053-24.053c13.263,0,24.053,10.79,24.053,24.053C172.553,265.295,161.763,276.084,148.5,276.084z"/>
	<path d="M89.936,148.5c0-24.795-20.173-44.969-44.968-44.969C20.173,103.531,0,123.705,0,148.5s20.173,44.969,44.969,44.969
		C69.764,193.469,89.936,173.295,89.936,148.5z M20.915,148.5c0-13.264,10.79-24.053,24.054-24.053
		c13.263,0,24.053,10.789,24.053,24.053c0,13.263-10.79,24.053-24.053,24.053C31.705,172.553,20.915,161.763,20.915,148.5z"/>
	<path d="M252.031,103.531c-24.795,0-44.968,20.174-44.968,44.969s20.173,44.969,44.968,44.969
		c24.796,0,44.969-20.174,44.969-44.969S276.827,103.531,252.031,103.531z M252.031,172.553c-13.263,0-24.053-10.79-24.053-24.053
		c0-13.264,10.79-24.053,24.053-24.053c13.264,0,24.054,10.789,24.054,24.053C276.085,161.763,265.295,172.553,252.031,172.553z"/>
	<path d="M243.089,212.119c3.227-4.789,1.961-11.289-2.829-14.516c-4.789-3.229-11.289-1.963-14.517,2.829
		c-6.766,10.041-15.281,18.558-25.31,25.315c-4.79,3.228-6.057,9.727-2.829,14.517c2.02,2.997,5.32,4.615,8.682,4.615
		c2.011,0,4.042-0.578,5.835-1.786C224.393,234.824,234.811,224.403,243.089,212.119z"/>
	<path d="M96.566,225.748c-10.028-6.758-18.544-15.274-25.31-25.315c-3.229-4.792-9.73-6.058-14.517-2.829
		c-4.79,3.227-6.056,9.727-2.829,14.516c8.277,12.284,18.696,22.705,30.968,30.975c1.793,1.208,3.824,1.786,5.835,1.786
		c3.361,0,6.663-1.618,8.682-4.615C102.623,235.475,101.356,228.976,96.566,225.748z"/>
	<path d="M84.879,53.906c-12.271,8.27-22.69,18.69-30.968,30.974c-3.226,4.79-1.961,11.289,2.829,14.517
		c1.792,1.208,3.824,1.786,5.835,1.786c3.36,0,6.662-1.617,8.682-4.615c6.766-10.041,15.281-18.559,25.31-25.315
		c4.79-3.228,6.057-9.727,2.829-14.517C96.166,51.944,89.666,50.678,84.879,53.906z"/>
	<path d="M200.434,71.252c10.028,6.757,18.544,15.274,25.31,25.315c2.021,2.998,5.321,4.615,8.682,4.615
		c2.011,0,4.042-0.578,5.835-1.786c4.79-3.228,6.056-9.727,2.829-14.517c-8.277-12.283-18.696-22.704-30.968-30.974
		c-4.788-3.229-11.289-1.962-14.517,2.829C194.377,61.525,195.644,68.024,200.434,71.252z"/>
	<path d="M266.5,215.249c-4.789-3.229-11.29-1.962-14.517,2.829c-9.061,13.448-20.469,24.859-33.904,33.913
		c-4.789,3.228-6.056,9.728-2.828,14.517c2.019,2.996,5.32,4.614,8.682,4.614c2.011,0,4.043-0.579,5.836-1.786
		c15.677-10.566,28.988-23.879,39.56-39.571C272.556,224.976,271.29,218.476,266.5,215.249z"/>
	<path d="M78.921,251.991c-13.436-9.054-24.843-20.465-33.904-33.913c-3.228-4.789-9.727-6.058-14.517-2.829
		c-4.79,3.227-6.056,9.727-2.829,14.516c10.572,15.692,23.884,29.005,39.56,39.571c1.794,1.208,3.825,1.786,5.836,1.786
		c3.361,0,6.662-1.618,8.682-4.614C84.977,261.719,83.71,255.219,78.921,251.991z"/>
	<path d="M30.5,81.75c1.792,1.208,3.823,1.786,5.835,1.786c3.36,0,6.661-1.617,8.682-4.615c9.063-13.45,20.47-24.859,33.903-33.912
		c4.79-3.227,6.057-9.727,2.829-14.516c-3.23-4.791-9.73-6.058-14.517-2.829C51.557,38.227,38.245,51.54,27.671,67.234
		C24.444,72.023,25.71,78.523,30.5,81.75z"/>
	<path d="M218.08,45.009c13.434,9.053,24.84,20.462,33.903,33.912c2.02,2.998,5.321,4.615,8.682,4.615
		c2.012,0,4.043-0.578,5.835-1.786c4.79-3.227,6.056-9.727,2.829-14.516c-10.574-15.694-23.886-29.008-39.562-39.57
		c-4.788-3.229-11.287-1.962-14.516,2.829C212.023,35.282,213.29,41.782,218.08,45.009z"/>
</g>
<g>
</g>
<g>
</g>
<g>
</g>
<g>
</g>
<g>
</g>
<g>
</g>
<g>
</g>
<g>
</g>
<g>
</g>
<g>
</g>
<g>
</g>
<g>
</g>
<g>
</g>
<g>
</g>
<g>
</g>
</svg>
