<?xml version="1.0" encoding="iso-8859-1"?>
<!-- Generator: Adobe Illustrator 18.0.0, SVG Export Plug-In . SVG Version: 6.00 Build 0)  -->
<!DOCTYPE svg PUBLIC "-//W3C//DTD SVG 1.1//EN" "http://www.w3.org/Graphics/SVG/1.1/DTD/svg11.dtd">
<svg version="1.1" id="Capa_1" xmlns="http://www.w3.org/2000/svg" xmlns:xlink="http://www.w3.org/1999/xlink" x="0px" y="0px"
	 viewBox="0 0 297 297" style="enable-background:new 0 0 297 297;" xml:space="preserve">
<g>
	<path d="M148.499,124.092c-33.601,0-60.937,27.336-60.937,60.936c0,33.602,27.336,60.937,60.937,60.937
		s60.936-27.335,60.936-60.937C209.436,151.428,182.1,124.092,148.499,124.092z M148.499,225.481
		c-22.306,0-40.453-18.147-40.453-40.454c0-22.306,18.147-40.453,40.453-40.453c22.306,0,40.453,18.147,40.453,40.453
		C188.952,207.334,170.805,225.481,148.499,225.481z"/>
	<path d="M277.029,67.082c0-18.98-11.603-35.972-32.675-47.843C221.695,6.473,189.444,0,148.5,0S75.305,6.473,52.646,19.239
		C31.574,31.11,19.971,48.102,19.971,67.082c0,26.605,12.565,53.252,34.772,74.319c-11.304,17.448-17.875,38.233-17.875,60.524
		c0,37.748,18.87,72.661,50.478,93.396c1.669,1.095,3.621,1.678,5.618,1.678h111.07c1.997,0,3.949-0.583,5.618-1.678
		c31.607-20.735,50.478-55.648,50.478-93.396c0-22.291-6.571-43.076-17.874-60.524C264.464,120.336,277.029,93.689,277.029,67.082z
		 M91.975,105.7C78.82,94.225,72.054,78.759,72.054,73.854c0-9.064,26.566-21.623,76.446-21.623s76.446,12.559,76.446,21.623
		c0,4.905-6.767,20.371-19.923,31.847c-16.589-9.782-35.911-15.405-56.524-15.405C127.887,90.295,108.564,95.918,91.975,105.7z
		 M40.453,67.082c0-23.195,33.409-46.6,108.047-46.6s108.047,23.404,108.047,46.6c0,20.08-9.945,41.227-26.995,58.09
		c-2.411-2.547-4.938-4.976-7.575-7.283c14.372-14.074,23.452-32.544,23.452-44.035c0-10.123-5.604-24.119-32.298-33.311
		c-16.713-5.754-39.062-8.795-64.631-8.795s-47.918,3.041-64.631,8.795C57.175,49.734,51.571,63.73,51.571,73.854
		c0,11.491,9.08,29.961,23.452,44.034c-2.639,2.309-5.166,4.737-7.576,7.283C50.398,108.307,40.453,87.162,40.453,67.082z
		 M200.887,276.518H96.111c-24.327-17.104-38.761-44.768-38.761-74.592c0-50.26,40.889-91.148,91.148-91.148
		c50.26,0,91.148,40.889,91.148,91.148C239.647,231.75,225.213,259.414,200.887,276.518z"/>
</g>
<g>
</g>
<g>
</g>
<g>
</g>
<g>
</g>
<g>
</g>
<g>
</g>
<g>
</g>
<g>
</g>
<g>
</g>
<g>
</g>
<g>
</g>
<g>
</g>
<g>
</g>
<g>
</g>
<g>
</g>
</svg>
