<?xml version="1.0" encoding="iso-8859-1"?>
<!-- Generator: Adobe Illustrator 18.0.0, SVG Export Plug-In . SVG Version: 6.00 Build 0)  -->
<!DOCTYPE svg PUBLIC "-//W3C//DTD SVG 1.1//EN" "http://www.w3.org/Graphics/SVG/1.1/DTD/svg11.dtd">
<svg version="1.1" id="Capa_1" xmlns="http://www.w3.org/2000/svg" xmlns:xlink="http://www.w3.org/1999/xlink" x="0px" y="0px"
	 viewBox="0 0 297 297" style="enable-background:new 0 0 297 297;" xml:space="preserve">
<g>
	<path d="M138.779,161.352v24.574c0,5.369,4.353,9.723,9.722,9.723c5.369,0,9.722-4.354,9.722-9.723v-24.574
		c10.479-5.166,17.429-17.629,17.429-24.889c0-10.707-11.419-18.479-27.15-18.479c-15.731,0-27.149,7.771-27.149,18.479
		C121.352,143.723,128.301,156.186,138.779,161.352z M148.501,137.428c2.825,0,5.074,0.461,6.601,0.971
		c-1.664,2.729-4.664,5.861-6.601,5.861c-1.937,0-4.937-3.133-6.6-5.861C143.428,137.889,145.676,137.428,148.501,137.428z"/>
	<path d="M192.733,118.717c2.557,0,5.064-1.039,6.872-2.848c1.809-1.818,2.85-4.316,2.85-6.873c0-2.557-1.041-5.066-2.85-6.875
		c-1.808-1.807-4.306-2.848-6.872-2.848c-2.557,0-5.065,1.041-6.874,2.848c-1.809,1.809-2.849,4.318-2.849,6.875
		c0,2.557,1.04,5.055,2.849,6.873C187.668,117.678,190.177,118.717,192.733,118.717z"/>
	<path d="M104.263,118.717c2.558,0,5.065-1.039,6.884-2.848c1.808-1.818,2.848-4.316,2.848-6.873c0-2.557-1.04-5.066-2.848-6.875
		c-1.818-1.807-4.317-2.848-6.884-2.848c-2.557,0-5.064,1.041-6.873,2.848c-1.809,1.809-2.849,4.318-2.849,6.875
		c0,2.557,1.04,5.055,2.849,6.873C99.207,117.678,101.706,118.717,104.263,118.717z"/>
	<path d="M116.882,166.104c-1.021,0-2.032,0.418-2.752,1.137c-0.718,0.729-1.137,1.73-1.137,2.752c0,1.029,0.419,2.031,1.137,2.75
		c0.72,0.719,1.731,1.139,2.752,1.139c1.031,0,2.031-0.42,2.751-1.139c0.72-0.719,1.138-1.721,1.138-2.75
		c0-1.021-0.418-2.033-1.138-2.752C118.913,166.521,117.913,166.104,116.882,166.104z"/>
	<path d="M114.13,156.926c0.729,0.729,1.731,1.146,2.752,1.146s2.022-0.418,2.751-1.146c0.72-0.721,1.138-1.721,1.138-2.742
		s-0.418-2.023-1.138-2.752c-0.72-0.719-1.73-1.137-2.751-1.137s-2.032,0.418-2.752,1.137c-0.718,0.729-1.137,1.73-1.137,2.752
		S113.412,156.205,114.13,156.926z"/>
	<path d="M104.429,166.104c-1.031,0-2.032,0.418-2.752,1.137c-0.729,0.729-1.138,1.73-1.138,2.752c0,1.02,0.408,2.021,1.138,2.75
		c0.72,0.719,1.721,1.139,2.752,1.139c1.021,0,2.021-0.42,2.751-1.139c0.719-0.729,1.138-1.73,1.138-2.75
		c0-1.021-0.419-2.023-1.138-2.752C106.45,166.521,105.449,166.104,104.429,166.104z"/>
	<path d="M104.429,150.295c-1.031,0-2.032,0.418-2.752,1.137c-0.72,0.719-1.138,1.721-1.138,2.752c0,1.021,0.418,2.021,1.138,2.742
		c0.72,0.729,1.721,1.146,2.752,1.146c1.021,0,2.021-0.418,2.751-1.146c0.719-0.721,1.138-1.721,1.138-2.742
		c0-1.031-0.419-2.033-1.138-2.752C106.45,150.713,105.449,150.295,104.429,150.295z"/>
	<path d="M193.044,166.104c-1.03,0-2.032,0.418-2.752,1.137c-0.729,0.729-1.138,1.73-1.138,2.752c0,1.029,0.409,2.031,1.138,2.75
		c0.72,0.719,1.722,1.139,2.752,1.139c1.021,0,2.021-0.42,2.741-1.139c0.729-0.719,1.147-1.721,1.147-2.75
		c0-1.021-0.418-2.023-1.147-2.752C195.065,166.521,194.065,166.104,193.044,166.104z"/>
	<path d="M193.044,150.295c-1.03,0-2.032,0.418-2.752,1.137c-0.729,0.729-1.138,1.73-1.138,2.752s0.409,2.021,1.138,2.742
		c0.72,0.729,1.722,1.146,2.752,1.146c1.021,0,2.021-0.418,2.741-1.146c0.729-0.721,1.147-1.721,1.147-2.742
		s-0.418-2.023-1.147-2.752C195.065,150.713,194.065,150.295,193.044,150.295z"/>
	<path d="M180.581,173.881c1.029,0,2.031-0.42,2.751-1.139c0.729-0.729,1.138-1.73,1.138-2.75c0-1.021-0.408-2.023-1.138-2.752
		c-0.72-0.719-1.722-1.137-2.751-1.137c-1.021,0-2.023,0.418-2.742,1.137c-0.729,0.729-1.147,1.73-1.147,2.752
		c0,1.029,0.418,2.031,1.147,2.75C178.559,173.461,179.56,173.881,180.581,173.881z"/>
	<path d="M180.581,158.072c1.029,0,2.031-0.418,2.751-1.146c0.729-0.721,1.138-1.721,1.138-2.742c0-1.031-0.408-2.033-1.138-2.752
		c-0.72-0.719-1.722-1.137-2.751-1.137c-1.021,0-2.023,0.418-2.752,1.137c-0.72,0.719-1.138,1.721-1.138,2.752
		c0,1.021,0.418,2.021,1.138,2.742C178.559,157.654,179.56,158.072,180.581,158.072z"/>
	<path d="M159.601,283.756l30.164,11.797c2.472,0.969,4.969,1.447,7.377,1.447c3.368,0,6.563-0.94,9.278-2.791
		c4.398-3,6.921-8.002,6.921-13.719V263.5c16.338-2.754,29.407-16.814,32.603-34.814c17.312-4.553,30.238-21.977,30.238-42.717
		c0-5.158-0.799-10.223-2.345-14.994c10.495-8.047,17.09-21.561,17.09-36.238c0-9.244-2.625-18.211-7.37-25.615
		c4.745-7.402,7.37-16.369,7.37-25.615c0-13.408-5.549-26.049-14.764-34.295c-0.399-21.297-17.819-38.5-39.191-38.5
		c-6.698,0-13.008,1.691-18.529,4.668C211.488,5.508,202.46,0,192.734,0c-8.122,0-15.766,3.83-22.115,10.844
		C164.269,3.83,156.624,0,148.501,0c-8.123,0-15.768,3.83-22.118,10.844C120.033,3.83,112.39,0,104.268,0
		C94.542,0,85.513,5.508,78.56,15.379c-5.521-2.977-11.831-4.668-18.528-4.668c-21.372,0-38.793,17.203-39.191,38.5
		C11.623,57.459,6.073,70.098,6.073,83.506c0,9.246,2.626,18.211,7.371,25.615c-4.745,7.404-7.371,16.371-7.371,25.615
		c0,14.678,6.595,28.191,17.094,36.238c-1.547,4.771-2.346,9.836-2.346,14.994c0,20.74,12.927,38.164,30.237,42.717
		c3.196,18,16.266,32.061,32.602,34.814v16.99c0,5.717,2.522,10.717,6.921,13.719c2.715,1.851,5.912,2.791,9.282,2.791
		c2.408,0,4.903-0.478,7.374-1.445l30.165-11.799H159.601z M217.2,51.324c0-10.918,8.87-21.168,19.771-21.168
		c10.899,0,19.767,8.881,19.767,19.797c0,9.842-7.207,18.133-16.852,19.557c-2.577-4.066-5.861-7.709-9.838-10.858
		C226.242,55.639,221.919,53.193,217.2,51.324z M87.023,130.107c-9.361-5.428-17.27-21.857-17.27-35.877
		c0-20.533,17.829-27.85,34.515-27.85h88.467c16.686,0,34.516,7.316,34.516,27.85c0,14.02-7.91,30.449-17.271,35.877
		c-2.999,1.738-4.846,4.943-4.846,8.41v29.516c0,20.744-9.631,34.559-56.632,34.559s-56.632-13.814-56.632-34.559v-29.516
		C91.869,135.051,90.022,131.846,87.023,130.107z M99.132,47.111c-0.483-6.723-2.664-12.977-6.117-18.342
		c3.482-5.836,7.609-9.326,11.253-9.326c4.392,0,9.491,5.066,13.311,13.219c1.602,3.416,5.032,5.598,8.805,5.598
		c3.771,0,7.203-2.182,8.804-5.598c3.819-8.152,8.922-13.219,13.315-13.219c4.393,0,9.495,5.066,13.314,13.219
		c1.601,3.416,5.032,5.598,8.804,5.598c3.773,0,7.203-2.182,8.805-5.598c3.819-8.152,8.919-13.219,13.311-13.219
		c3.644,0,7.771,3.49,11.253,9.326c-3.453,5.365-5.634,11.619-6.117,18.342H99.132z M79.802,51.324
		c-4.718,1.869-9.042,4.314-12.849,7.328c-3.977,3.148-7.26,6.791-9.838,10.858c-9.646-1.424-16.851-9.713-16.851-19.557
		c0-10.916,8.867-19.797,19.767-19.797C70.932,30.156,79.802,40.406,79.802,51.324z M103.104,276.293v-38.328l17.255,6.748
		c-0.503,1.693-0.792,3.471-0.792,5.313v14.209c0,1.84,0.289,3.617,0.791,5.31L103.104,276.293z M155.955,249.705
		c0.816,0,2.037,0.74,2.037,2.018v11.271c0,1.031-1.007,1.564-1.824,1.564h-15.222c-0.817,0-1.935-0.441-1.935-1.535V251.57
		c0-0.881,0.659-1.865,1.965-1.865H155.955z M193.898,276.291l-17.252-6.746c0.502-1.693,0.791-3.471,0.791-5.31v-14.209
		c0-1.842-0.289-3.619-0.792-5.311l17.253-6.748V276.291z M137.41,230.506l-30.173-11.803c-5.933-2.318-12.003-1.826-16.657,1.35
		c-4.397,3.002-6.919,8.004-6.919,13.719v9.688c-8.049-3.094-13.908-12.385-13.908-23.336c0-5.369-4.354-9.721-9.722-9.721
		c-10.899,0-19.767-10.961-19.767-24.434c0-5.092,1.271-9.979,3.676-14.127c1.409-2.436,1.696-5.361,0.784-8.023
		c-0.912-2.662-2.933-4.801-5.54-5.859c-8.176-3.318-13.668-12.65-13.668-23.223c0-7.267,2.632-14.125,7.223-18.814
		c3.698-3.777,3.698-9.822,0-13.6c-4.591-4.69-7.223-11.547-7.223-18.816c0-3.998,0.797-7.844,2.247-11.262
		c5.342,7.74,13.406,13.486,22.916,15.809c-0.237,2.01-0.371,4.066-0.371,6.178c0,16.234,7.713,37.859,22.117,49.373v24.43
		c0,20.703,8.255,35.658,24.536,44.451c12.067,6.516,28.443,9.551,51.539,9.551c23.096,0,39.472-3.035,51.539-9.551
		c16.281-8.793,24.536-23.748,24.536-44.451v-24.43c14.404-11.512,22.117-33.139,22.117-49.373c0-2.111-0.133-4.168-0.369-6.178
		c9.508-2.322,17.572-8.068,22.914-15.809c1.449,3.42,2.245,7.266,2.245,11.262c0,7.27-2.632,14.129-7.221,18.814
		c-3.7,3.779-3.7,9.824,0,13.604c4.589,4.686,7.221,11.543,7.221,18.813c0,10.572-5.491,19.904-13.664,23.223
		c-2.607,1.059-4.629,3.197-5.54,5.859c-0.912,2.662-0.626,5.588,0.784,8.023c2.404,4.148,3.675,9.033,3.675,14.127
		c0,13.473-8.867,24.434-19.767,24.434c-5.368,0-9.722,4.352-9.722,9.721c0,10.951-5.859,20.242-13.909,23.336v-9.688
		c0-5.717-2.522-10.717-6.92-13.719c-4.65-3.178-10.719-3.668-16.652-1.35l-30.178,11.803H137.41z"/>
</g>
<g>
</g>
<g>
</g>
<g>
</g>
<g>
</g>
<g>
</g>
<g>
</g>
<g>
</g>
<g>
</g>
<g>
</g>
<g>
</g>
<g>
</g>
<g>
</g>
<g>
</g>
<g>
</g>
<g>
</g>
</svg>
