<?xml version="1.0" encoding="iso-8859-1"?>
<!-- Generator: Adobe Illustrator 18.0.0, SVG Export Plug-In . SVG Version: 6.00 Build 0)  -->
<!DOCTYPE svg PUBLIC "-//W3C//DTD SVG 1.1//EN" "http://www.w3.org/Graphics/SVG/1.1/DTD/svg11.dtd">
<svg version="1.1" id="Capa_1" xmlns="http://www.w3.org/2000/svg" xmlns:xlink="http://www.w3.org/1999/xlink" x="0px" y="0px"
	 viewBox="0 0 297 297" style="enable-background:new 0 0 297 297;" xml:space="preserve">
<g>
	<path d="M260.771,175.518c5.781,0,10.468-4.688,10.468-10.468c0-5.781-4.687-10.468-10.468-10.468h-22.145
		c-1.805-21.438-5.266-77.687,0.902-143.129c0.276-2.934-0.697-5.85-2.68-8.029c-1.984-2.18-4.795-3.422-7.742-3.422L67.894,0
		c-2.947,0-5.758,1.242-7.742,3.422c-1.983,2.18-2.956,5.096-2.68,8.029c6.168,65.445,2.708,121.694,0.902,143.128H36.229
		c-5.781,0-10.468,4.688-10.468,10.468c0,5.781,4.687,10.469,10.468,10.469h13.382c0.138,2.723,0.339,5.311,0.614,8.086
		c-9.413,4.427-15.827,13.957-15.827,25.08c0,15.173,12.245,27.54,27.371,27.738C77.36,276.102,107.161,297,148.428,297
		c41.269,0,71.067-20.897,86.657-60.579c15.193-0.12,27.517-12.518,27.517-27.739c0-10.992-6.562-20.613-15.975-25.077
		c0.275-2.777,0.478-5.366,0.616-8.087H260.771z M217.689,20.938c-2.63,32.987-2.976,62.954-2.451,87.007H81.762
		c0.524-24.054,0.179-54.02-2.45-87.009L217.689,20.938z M79.409,154.579c0.525-6.333,1.142-15.053,1.639-25.697h134.904
		c0.497,10.645,1.113,19.366,1.639,25.698H148.5L79.409,154.579z M234.861,215.486c-0.914,0-1.798-0.178-2.628-0.524
		c-2.704-1.137-5.762-1.085-8.427,0.141c-2.666,1.227-4.694,3.516-5.591,6.31c-11.813,36.775-34.641,54.652-69.788,54.652
		c-35.133,0-57.956-17.863-69.774-54.609c-0.893-2.778-2.907-5.059-5.554-6.289c-2.648-1.23-5.689-1.301-8.388-0.189
		c-0.822,0.338-1.688,0.51-2.573,0.51c-3.751,0-6.804-3.053-6.804-6.805c0-3.698,2.902-6.678,6.607-6.783
		c2.943-0.084,5.715-1.402,7.637-3.634c1.921-2.231,2.813-5.168,2.459-8.091c-0.729-6.007-1.197-10.225-1.458-14.658l77.92,0.001
		l77.774,0.001c-0.261,4.43-0.73,8.646-1.458,14.65c-0.355,2.938,0.548,5.889,2.489,8.123c1.94,2.234,4.735,3.543,7.694,3.602
		c3.675,0.074,6.665,3.119,6.665,6.789C241.665,212.434,238.612,215.486,234.861,215.486z"/>
	<path d="M185.27,235.436c-35.397-14.356-38.146-14.354-73.539,0c-5.358,2.172-7.94,8.276-5.767,13.634
		c1.649,4.069,5.566,6.538,9.704,6.538c1.31,0,2.642-0.248,3.93-0.771c2.187-0.887,4.199-1.701,6.09-2.461
		c0.396,1.21,1.064,2.349,2.024,3.31c5.928,5.935,12.925,9.07,20.238,9.07c11.934,0,20.41-8.142,21.338-9.07
		c0.96-0.961,1.629-2.101,2.024-3.31c1.891,0.759,3.903,1.574,6.09,2.461c5.353,2.177,11.462-0.406,13.634-5.767
		C193.21,243.713,190.628,237.607,185.27,235.436z M147.95,248.006c-1.784,0-3.527-0.533-5.267-1.619
		c2.15-0.507,4.047-0.77,5.817-0.77c1.664,0,3.441,0.232,5.434,0.681C152.275,247.199,150.173,248.006,147.95,248.006z"/>
	<path d="M118.747,209.258c1.946-1.947,3.066-4.638,3.066-7.401c0-2.753-1.12-5.454-3.066-7.4c-1.947-1.947-4.648-3.067-7.401-3.067
		c-2.753,0-5.454,1.12-7.401,3.067c-1.946,1.946-3.066,4.647-3.066,7.4c0,2.764,1.12,5.454,3.066,7.401
		c1.947,1.957,4.648,3.066,7.401,3.066C114.099,212.324,116.8,211.215,118.747,209.258z"/>
	<path d="M185.658,191.389c-2.764,0-5.454,1.12-7.401,3.067c-1.947,1.946-3.066,4.647-3.066,7.4c0,2.764,1.119,5.454,3.066,7.401
		c1.947,1.957,4.648,3.066,7.401,3.066s5.443-1.109,7.4-3.066c1.947-1.947,3.067-4.647,3.067-7.401c0-2.753-1.12-5.454-3.067-7.4
		C191.112,192.509,188.411,191.389,185.658,191.389z"/>
</g>
<g>
</g>
<g>
</g>
<g>
</g>
<g>
</g>
<g>
</g>
<g>
</g>
<g>
</g>
<g>
</g>
<g>
</g>
<g>
</g>
<g>
</g>
<g>
</g>
<g>
</g>
<g>
</g>
<g>
</g>
</svg>
