<?xml version="1.0" encoding="iso-8859-1"?>
<!-- Generator: Adobe Illustrator 18.0.0, SVG Export Plug-In . SVG Version: 6.00 Build 0)  -->
<!DOCTYPE svg PUBLIC "-//W3C//DTD SVG 1.1//EN" "http://www.w3.org/Graphics/SVG/1.1/DTD/svg11.dtd">
<svg version="1.1" id="Capa_1" xmlns="http://www.w3.org/2000/svg" xmlns:xlink="http://www.w3.org/1999/xlink" x="0px" y="0px"
	 viewBox="0 0 297 297" style="enable-background:new 0 0 297 297;" xml:space="preserve">
<g>
	<path d="M111.648,159.007c-2.574,0-5.09,1.043-6.904,2.856c-1.813,1.814-2.848,4.331-2.848,6.896c0,2.564,1.034,5.081,2.848,6.895
		c1.814,1.814,4.33,2.858,6.904,2.858c2.565,0,5.081-1.044,6.896-2.858c1.814-1.814,2.857-4.33,2.857-6.895
		c0-2.564-1.043-5.081-2.857-6.896C116.729,160.05,114.214,159.007,111.648,159.007z"/>
	<path d="M187.707,159.007c-2.564,0-5.08,1.043-6.895,2.856c-1.813,1.814-2.857,4.331-2.857,6.896c0,2.564,1.044,5.081,2.857,6.895
		c1.815,1.814,4.33,2.858,6.895,2.858c2.574,0,5.081-1.044,6.895-2.858c1.814-1.814,2.858-4.33,2.858-6.895
		c0-2.564-1.044-5.081-2.858-6.896C192.788,160.05,190.281,159.007,187.707,159.007z"/>
	<path d="M260.709,138.352c16.132-16.133,22.602-30.832,19.781-44.938c-2.48-12.405-11.672-21.597-19.781-29.705
		C234.361,37.36,178.985,11.849,159.92,3.523c-2.871-2.181-6.18-3.445-9.945-3.51c-0.089-0.003-0.178-0.012-0.266-0.012
		c-0.011,0-0.022-0.002-0.032-0.002c-3.787,0-7.118,1.211-10.012,3.341C120.329,11.519,62.819,37.18,36.291,63.708
		c-8.109,8.108-17.301,17.3-19.781,29.705c-2.821,14.106,3.649,28.806,19.781,44.938c6.451,6.45,13.844,10.184,21.646,11.975
		c0.102,1.604,0.211,3.199,0.342,4.777c-8.817,4.105-14.835,13.01-14.835,23.408c0,14.135,11.407,25.656,25.5,25.841
		c10.616,27.021,28.309,44.684,52.072,52.236c3.44,17.461,12.645,40.411,28.66,40.411c16.017,0,25.22-22.95,28.661-40.41
		c23.764-7.553,41.456-25.216,52.072-52.236c14.154-0.112,25.635-11.661,25.635-25.842c0-10.276-6.154-19.266-14.971-23.406
		c0.148-1.781,0.27-3.584,0.381-5.396C248.375,147.734,254.922,144.138,260.709,138.352z M261.364,97.237
		c1.424,7.119-3.438,16.312-14.448,27.322c-19.892,19.893-61.342-4.687-74.461-13.332c1.401-3.116,2.187-6.565,2.187-10.198
		c0-6.972-2.876-13.282-7.5-17.816c5.085-9.321,7.5-22.643,7.5-35.429c0-5.564-0.461-11.229-1.396-16.624
		c23.532,11.376,56.368,29.035,73.671,46.34C253.667,84.25,260.042,90.624,261.364,97.237z M149.677,74.647
		c-2.4-3.891-5.461-13.302-5.461-26.863s3.061-22.972,5.461-26.862c2.4,3.891,5.46,13.301,5.46,26.862
		S152.077,70.757,149.677,74.647z M149.677,95.568c3.011,0,5.46,2.45,5.46,5.461c0,3.011-2.449,5.461-5.46,5.461
		c-3.011,0-5.461-2.45-5.461-5.461C144.216,98.019,146.666,95.568,149.677,95.568z M35.636,97.237
		c1.322-6.613,7.697-12.987,14.448-19.737c17.497-17.498,51.835-35.397,76.094-46.755c-0.984,5.519-1.466,11.333-1.466,17.039
		c0,12.787,2.416,26.107,7.501,35.43c-4.625,4.533-7.501,10.844-7.501,17.815c0,3.16,0.596,6.183,1.672,8.968
		c-10.501,7.144-55.353,35.51-76.3,14.563C39.073,113.549,34.212,104.356,35.636,97.237z M144.24,205.85
		c1.975-0.426,3.753-0.643,5.437-0.643c1.579,0,3.241,0.191,5.07,0.565c-0.733,0.4-1.559,0.785-2.45,1.082
		C150.223,207.544,147.539,207.939,144.24,205.85z M149.677,276.739c-4.449-4.844-10.728-22.734-10.728-33.862
		c0-4.881,0.82-9.264,10.728-9.264c9.908,0,10.727,4.383,10.727,9.264C160.404,254.004,154.127,271.894,149.677,276.739z
		 M230.201,184.851c-0.852,0-1.674-0.165-2.447-0.489c-2.521-1.059-5.369-1.01-7.852,0.132c-2.483,1.143-4.373,3.275-5.209,5.878
		c-7.261,22.605-18.992,37.536-35.537,45.086c-1.44-6.771-4.92-12.163-10.074-15.836c1.533-1.184,2.482-2.104,2.703-2.324
		c1.344-1.344,2.203-2.984,2.6-4.71c1.646,0.663,3.385,1.368,5.24,2.119c4.992,2.021,10.677-0.385,12.7-5.377
		c2.023-4.991-0.385-10.678-5.377-12.701c-35.877-14.535-38.664-14.534-74.543,0c-4.992,2.023-7.399,7.71-5.377,12.701
		c1.537,3.792,5.188,6.093,9.041,6.093c1.221,0,2.46-0.23,3.659-0.716c1.856-0.751,3.594-1.456,5.24-2.119
		c0.396,1.726,1.255,3.366,2.599,4.71c0.854,0.854,1.728,1.646,2.617,2.388c-5.105,3.67-8.555,9.04-9.986,15.77
		c-16.533-7.543-28.262-22.463-35.524-45.044c-0.832-2.589-2.708-4.712-5.174-5.859c-1.302-0.604-2.705-0.907-4.11-0.907
		c-1.258,0-2.517,0.243-3.704,0.732c-0.767,0.314-1.573,0.475-2.397,0.475c-3.495,0-6.339-2.845-6.339-6.339
		c0-3.446,2.704-6.223,6.156-6.32c2.742-0.078,5.323-1.307,7.114-3.385c1.789-2.079,2.621-4.815,2.291-7.538
		c-0.396-3.273-0.715-6.633-0.962-10.058c30.193-3.334,60.109-25.186,62.659-27.087c2.923,1.203,6.119,1.87,9.469,1.87
		c2.764,0,5.42-0.458,7.907-1.29c5.668,4.104,35.133,24.466,64.204,26.729c-0.244,3.346-0.556,6.629-0.944,9.83
		c-0.332,2.737,0.51,5.486,2.318,7.567c1.808,2.082,4.412,3.301,7.169,3.356c3.424,0.068,6.209,2.905,6.209,6.325
		C236.54,182.006,233.696,184.851,230.201,184.851z"/>
</g>
<g>
</g>
<g>
</g>
<g>
</g>
<g>
</g>
<g>
</g>
<g>
</g>
<g>
</g>
<g>
</g>
<g>
</g>
<g>
</g>
<g>
</g>
<g>
</g>
<g>
</g>
<g>
</g>
<g>
</g>
</svg>
