<?xml version="1.0" encoding="iso-8859-1"?>
<!-- Generator: Adobe Illustrator 18.0.0, SVG Export Plug-In . SVG Version: 6.00 Build 0)  -->
<!DOCTYPE svg PUBLIC "-//W3C//DTD SVG 1.1//EN" "http://www.w3.org/Graphics/SVG/1.1/DTD/svg11.dtd">
<svg version="1.1" id="Capa_1" xmlns="http://www.w3.org/2000/svg" xmlns:xlink="http://www.w3.org/1999/xlink" x="0px" y="0px"
	 viewBox="0 0 297 297" style="enable-background:new 0 0 297 297;" xml:space="preserve">
<g>
	<path d="M193.283,108.79c2.523,0,4.999-1.018,6.783-2.802c1.785-1.794,2.813-4.261,2.813-6.794c0-2.523-1.027-4.999-2.813-6.784
		c-1.784-1.786-4.26-2.812-6.783-2.812c-2.524,0-5,1.025-6.785,2.812c-1.785,1.785-2.812,4.261-2.812,6.784
		c0,2.533,1.026,5,2.812,6.794C188.283,107.772,190.759,108.79,193.283,108.79z"/>
	<path d="M110.508,105.988c1.784-1.794,2.811-4.271,2.811-6.794c0-2.523-1.026-4.99-2.811-6.784
		c-1.795-1.786-4.262-2.812-6.785-2.812c-2.533,0-5.009,1.025-6.784,2.812c-1.795,1.785-2.811,4.261-2.811,6.784
		c0,2.533,1.017,5,2.811,6.794c1.785,1.784,4.251,2.802,6.784,2.802C106.246,108.79,108.713,107.772,110.508,105.988z"/>
	<path d="M138.905,170.24v33.498c0,5.3,4.296,9.596,9.596,9.596c5.3,0,9.596-4.296,9.596-9.596V170.24
		c8.766-3.744,14.926-12.452,14.926-22.573c0-10.469-7.313-13.262-11.634-13.262c-3.019,0-5.517,1.066-7.932,2.1
		c-1.717,0.733-3.662,1.566-4.956,1.566c-1.294,0-3.24-0.833-4.957-1.566c-2.415-1.033-4.913-2.1-7.932-2.1
		c-4.321,0-11.634,2.793-11.634,13.262C123.979,157.788,130.139,166.496,138.905,170.24z"/>
	<path d="M159.457,283.927l29.772,11.645c2.44,0.955,4.905,1.429,7.282,1.429c3.324,0,6.479-0.927,9.158-2.755
		c4.342-2.962,6.831-7.898,6.831-13.542v-38.391c8.722-5.329,16.359-11.993,22.869-19.993
		c13.741-16.888,22.545-39.611,26.813-69.294c17.161-3.196,30.259-19.42,30.259-38.893c0-18.265-11.523-33.671-27.113-38.15
		c-1.819-29.757-13.743-50.172-36.299-62.255C206.448,1.63,175.65,0,148.501,0S90.554,1.63,67.972,13.727
		C45.416,25.81,33.492,46.226,31.673,75.982c-15.591,4.479-27.115,19.886-27.115,38.15c0,19.473,13.099,35.696,30.261,38.893
		c4.268,29.683,13.072,52.406,26.813,69.294c6.51,8,14.147,14.664,22.869,19.993v38.391c0,5.643,2.489,10.579,6.831,13.541
		c2.681,1.829,5.836,2.756,9.162,2.756c2.377,0,4.84-0.474,7.279-1.427l29.774-11.646H159.457z M91.991,132.393
		c-14.032-4.964-23.46-18.304-23.46-33.194c0-19.413,15.785-35.207,35.188-35.207c19.401,0,35.187,15.794,35.187,35.207
		c0,5.299,4.296,9.596,9.596,9.596c5.3,0,9.596-4.297,9.596-9.596c0-19.413,15.785-35.207,35.187-35.207
		c19.402,0,35.188,15.794,35.188,35.207c0,14.891-9.428,28.231-23.46,33.194c-3.834,1.356-6.395,4.981-6.395,9.047v32.431
		c0,27.647-22.481,50.139-50.114,50.139s-50.114-22.491-50.114-50.139v-32.431C98.387,137.374,95.825,133.749,91.991,132.393z
		 M140.805,264.978c-1.05,0-1.67-0.637-1.67-1.627v-11.365c0-0.96,0.77-1.67,1.88-1.67h14.964c1.079,0,1.891,0.65,1.891,1.55v11.666
		c0,0.989-0.811,1.446-1.891,1.446H140.805z M103.692,276.56V238.73l17.031,6.662c-0.496,1.67-0.781,3.424-0.781,5.242v14.024
		c0,1.817,0.285,3.57,0.78,5.241L103.692,276.56z M193.31,276.559l-17.028-6.659c0.495-1.671,0.78-3.424,0.78-5.241v-14.024
		c0-1.818-0.285-3.572-0.781-5.242l17.029-6.66V276.559z M255.979,134.405h-2.314c-4.885,0-8.99,3.668-9.536,8.522
		c-4.326,38.437-16.037,64.538-36.506,79.712c-0.602-0.577-1.25-1.112-1.951-1.591c-1.402-0.958-2.938-1.665-4.557-2.126
		c10.393-12.128,16.693-27.863,16.693-45.053v-26.119c18.103-9.158,29.855-27.891,29.855-48.553
		c0-29.995-24.396-54.398-54.38-54.398c-18.552,0-34.964,9.343-44.782,23.57c-9.818-14.228-26.231-23.57-44.782-23.57
		c-29.984,0-54.38,24.403-54.38,54.398c0,20.662,11.753,39.395,29.855,48.553v26.119c0,17.189,6.301,32.927,16.694,45.055
		c-1.62,0.459-3.155,1.167-4.559,2.125c-0.701,0.479-1.349,1.013-1.95,1.59c-20.469-15.174-32.181-41.275-36.506-79.712
		c-0.547-4.855-4.652-8.522-9.536-8.522h-2.314c-9.525,0-17.274-9.094-17.274-20.273s7.749-20.273,17.274-20.273
		c5.299,0,9.596-4.297,9.596-9.596c0-26.927,8.394-43.964,26.415-53.618c18.84-10.093,46.7-11.453,71.467-11.453
		s52.627,1.36,71.466,11.453c18.023,9.654,26.416,26.691,26.416,53.618c0,5.299,4.297,9.596,9.596,9.596
		c9.524,0,17.273,9.095,17.273,20.273S265.503,134.405,255.979,134.405z"/>
</g>
<g>
</g>
<g>
</g>
<g>
</g>
<g>
</g>
<g>
</g>
<g>
</g>
<g>
</g>
<g>
</g>
<g>
</g>
<g>
</g>
<g>
</g>
<g>
</g>
<g>
</g>
<g>
</g>
<g>
</g>
</svg>
