<?xml version="1.0" encoding="iso-8859-1"?>
<!-- Generator: Adobe Illustrator 18.0.0, SVG Export Plug-In . SVG Version: 6.00 Build 0)  -->
<!DOCTYPE svg PUBLIC "-//W3C//DTD SVG 1.1//EN" "http://www.w3.org/Graphics/SVG/1.1/DTD/svg11.dtd">
<svg version="1.1" id="Capa_1" xmlns="http://www.w3.org/2000/svg" xmlns:xlink="http://www.w3.org/1999/xlink" x="0px" y="0px"
	 viewBox="0 0 297 297" style="enable-background:new 0 0 297 297;" xml:space="preserve">
<path d="M221.108,297c4.829,0,8.966-3.454,9.828-8.205L267.239,88.77c0.529-2.914-0.263-5.912-2.16-8.186
	c-0.802-0.96-1.771-1.737-2.841-2.328c5.554-7.911,6.689-18.246,2.962-27.152c0.815-4.063,0.664-8.298-0.478-12.307
	c-3.181-11.137-13.475-18.914-25.033-18.914c-2.111,0-4.216,0.259-6.238,0.76c-7.137-5.141-15.816-8.003-24.638-8.003
	c-3.909,0-7.809,0.55-11.593,1.634c-9.208,2.637-17.064,8.295-22.509,15.818c-3.573-4.944-8.222-9.143-13.739-12.193
	c-4.033-2.227-8.427-3.778-12.948-4.59C142.984,5.144,134.043,0,124.105,0C113.7,0,104.338,5.816,99.483,14.593
	c-4.04-1.276-8.279-1.953-12.581-1.953c-3.304,0-6.62,0.395-9.855,1.173c-12.664,3.045-23.083,11.757-28.426,23.396
	c-13.4,3.754-21.571,17.531-18.299,31.188c0.872,3.641,2.474,6.939,4.622,9.763c-1.141,0.601-2.175,1.411-3.021,2.425
	c-1.898,2.273-2.69,5.271-2.16,8.186l36.303,200.025c0.862,4.751,4.999,8.205,9.828,8.205H221.108z M202.72,33.479
	c1.996-0.571,4.045-0.861,6.092-0.861c5.818,0,11.526,2.382,15.662,6.534c3.213,3.227,8.201,3.872,12.129,1.571
	c0.492-0.289,0.95-0.494,1.415-0.625c0.55-0.158,1.111-0.237,1.67-0.237c2.686,0,5.08,1.818,5.822,4.418
	c0.481,1.688,0.136,3.117-0.239,4.019c-1.265,3.04-0.95,6.509,0.842,9.272c2.096,3.229,1.632,7.549-1.099,10.27
	c-1.537,1.53-3.577,2.374-5.745,2.374c-1.311,0-2.613-0.316-3.763-0.916c-3.788-1.972-8.41-1.321-11.503,1.623
	c-2.596,2.47-5.663,4.225-9.122,5.215c-1.979,0.567-4.009,0.856-6.037,0.86h-0.093c-5.082-0.009-10.078-1.834-14.014-5.068
	c0.447-7.585-2.445-15.131-8.037-20.46c0.22-0.52,0.4-1.063,0.531-1.628C189.052,41.962,194.987,35.692,202.72,33.479z
	 M107.194,36.314c0.841-1.527,2.092-2.294,2.991-2.668c3.044-1.268,5.268-3.955,5.941-7.183c0.784-3.758,4.141-6.486,7.979-6.486
	c3.565,0,6.691,2.29,7.776,5.699c1.293,4.062,5.021,6.855,9.283,6.956c3.58,0.085,6.994,1.011,10.144,2.75
	c7.047,3.896,11.431,11.339,11.444,19.422c0.008,4.544,3.082,8.511,7.48,9.652c0.556,0.145,1.02,0.322,1.438,0.554
	c2.939,1.623,4.007,5.345,2.387,8.29c-1.072,1.943-3.113,3.151-5.327,3.151c-1.02,0-1.999-0.255-2.928-0.769
	c-0.406-0.224-0.805-0.521-1.219-0.911c-3.311-3.118-8.309-3.609-12.162-1.189c-3.555,2.233-7.648,3.413-11.835,3.413
	c-3.696,0-7.377-0.954-10.644-2.76c-7.049-3.896-11.435-11.338-11.449-19.423c-0.008-4.552-3.091-8.522-7.5-9.657
	c-0.544-0.139-1.002-0.314-1.417-0.545C106.639,42.986,105.57,39.263,107.194,36.314z M54.209,56.392
	c0.45-0.106,0.912-0.159,1.409-0.159l0.126,0.002c4.556,0.101,8.592-2.935,9.805-7.328c2.15-7.785,8.346-13.789,16.168-15.671
	c1.708-0.41,3.452-0.618,5.184-0.618c0.138,0,0.272,0.018,0.409,0.021c-2.88,10.978,1.704,22.928,11.762,28.973
	c0.54,3.299,1.475,6.494,2.751,9.532c-2.724,2.508-6.068,4.343-9.787,5.235c-1.706,0.41-3.449,0.618-5.181,0.618
	c-6.169,0-12.114-2.634-16.313-7.226c-1.943-2.125-4.639-3.249-7.376-3.249c-1.594,0-3.201,0.382-4.682,1.168
	c-0.496,0.264-0.956,0.444-1.422,0.555c-0.473,0.113-0.952,0.171-1.427,0.171c-2.808,0-5.229-1.921-5.888-4.672
	C48.965,60.471,50.98,57.169,54.209,56.392z M84.232,277.022L51.555,96.974h23.096l26.009,180.049H84.232z M138.512,277.022h-17.668
	L94.836,96.974h43.676V277.022z M176.156,277.022h-17.667V96.974h43.676L176.156,277.022z M212.769,277.022H196.34l26.01-180.049
	h23.096L212.769,277.022z"/>
<g>
</g>
<g>
</g>
<g>
</g>
<g>
</g>
<g>
</g>
<g>
</g>
<g>
</g>
<g>
</g>
<g>
</g>
<g>
</g>
<g>
</g>
<g>
</g>
<g>
</g>
<g>
</g>
<g>
</g>
</svg>
