<?xml version="1.0" encoding="iso-8859-1"?>
<!-- Generator: Adobe Illustrator 18.0.0, SVG Export Plug-In . SVG Version: 6.00 Build 0)  -->
<!DOCTYPE svg PUBLIC "-//W3C//DTD SVG 1.1//EN" "http://www.w3.org/Graphics/SVG/1.1/DTD/svg11.dtd">
<svg version="1.1" id="Capa_1" xmlns="http://www.w3.org/2000/svg" xmlns:xlink="http://www.w3.org/1999/xlink" x="0px" y="0px"
	 viewBox="0 0 297 297" style="enable-background:new 0 0 297 297;" xml:space="preserve">
<path d="M277.426,91.521c-2.185-54.623-38.503-73.398-40.049-74.17c-3.062-1.532-6.7-1.369-9.614,0.432
	c-2.914,1.802-4.689,4.982-4.689,8.408c0,6.04-3.598,12.834-7.252,18.078c-2.809-3.075-5.706-5.975-8.49-8.76
	c-5.051-5.051-4.72-8.996-3.866-11.869c1.154-3.888,3.869-6.77,3.866-6.77c2.91-2.793,3.759-7.004,2.253-10.747
	C208.08,2.381,204.378,0,200.343,0c-30.917,0-49.056,23.813-55.304,33.799c-3.21-0.767-6.535-1.184-9.927-1.184
	c-5.801,0-17.34-14.34-23.776-27.151c-1.42-2.843-4.121-4.828-7.257-5.337c-3.138-0.507-6.325,0.522-8.572,2.767
	c-5.972,5.973-10.088,11.964-12.925,17.419C63.231,0.285,38.544,0,37.265,0c-3.997,0-7.601,2.408-9.131,6.101
	c-1.529,3.694-0.684,7.944,2.143,10.772c0.112,0.113,10.913,11.985-1.852,37.515c-13.839,27.678-9.01,47.431-2.523,59.127
	c4.209,7.586,9.571,12.724,13.457,15.775c-2.489,8.698-3.824,17.878-3.824,27.365c0,51.571,39.409,94.108,89.693,99.086v21.492
	h-22.732c-5.458,0-9.884,4.426-9.884,9.884c0,5.458,4.426,9.884,9.884,9.884h65.231c5.458,0,9.884-4.426,9.884-9.884
	c0-5.458-4.426-9.884-9.884-9.884h-22.732V255.74c50.284-4.978,89.693-47.515,89.693-99.086c0-1.018-0.02-2.03-0.05-3.041
	C256.88,146.09,278.738,124.305,277.426,91.521z M183.373,23.865c-0.795,8.192,1.631,17.272,9.982,25.623
	c13.81,13.81,24.299,24.321,18.505,43.789c-9.375-11.335-21.213-20.561-34.68-26.863c-1.484-9.227-6.785-17.642-14.297-23.77
	C166.373,37.491,173.284,28.926,183.373,23.865z M43.19,103.926c-6.085-10.969-5.104-24.662,2.916-40.699
	c8.171-16.343,9.237-29.516,7.688-39.336c8.001,3.605,17.224,10.365,23.556,23.028c2.073,4.146,6.754,6.433,11.245,5.304
	c4.477-1.122,7.578-5.056,7.48-9.663c0.035-0.819,0.463-7.134,5.226-15.225c7.559,11.226,19.728,25.048,33.812,25.048
	c5.444,0,11.344,2.263,15.769,5.948c-5.138-0.821-10.403-1.254-15.769-1.254c-37.945,0-70.997,21.337-87.799,52.64
	C45.902,108.128,44.455,106.205,43.19,103.926z M135.113,236.463c-44.007,0-79.81-35.803-79.81-79.809
	c0-44.007,35.803-79.81,79.81-79.81c44.006,0,79.809,35.803,79.809,79.81C214.921,200.66,179.119,236.463,135.113,236.463z
	 M231.942,133.405c-1.68-6.995-4.095-13.707-7.167-20.045c0.263-0.381,0.503-0.784,0.717-1.21
	c10.984-21.969,9.15-38.187,2.454-51.161c3.329-4.039,7.819-10.247,11-17.591c7.968,8.355,17.719,23.638,18.729,48.913
	C258.593,115.271,243.648,128.067,231.942,133.405z"/>
<g>
</g>
<g>
</g>
<g>
</g>
<g>
</g>
<g>
</g>
<g>
</g>
<g>
</g>
<g>
</g>
<g>
</g>
<g>
</g>
<g>
</g>
<g>
</g>
<g>
</g>
<g>
</g>
<g>
</g>
</svg>
