<?xml version="1.0" encoding="iso-8859-1"?>
<!-- Generator: Adobe Illustrator 18.0.0, SVG Export Plug-In . SVG Version: 6.00 Build 0)  -->
<!DOCTYPE svg PUBLIC "-//W3C//DTD SVG 1.1//EN" "http://www.w3.org/Graphics/SVG/1.1/DTD/svg11.dtd">
<svg version="1.1" id="Capa_1" xmlns="http://www.w3.org/2000/svg" xmlns:xlink="http://www.w3.org/1999/xlink" x="0px" y="0px"
	 viewBox="0 0 297 297" style="enable-background:new 0 0 297 297;" xml:space="preserve">
<path d="M283.686,28.346c-0.723-4.354-4.151-7.758-8.512-8.448c-3.579-0.567-7.033-0.854-10.265-0.854
	c-11.184,0-18.941,3.446-24.204,7.468c-6.12-8.981-16.445-14.678-30.776-16.947c-4.359-0.694-8.672,1.485-10.704,5.403
	c-1.287,2.477-12.291,24.753-2.734,43.687c4.208,8.335,11.444,14.331,21.574,17.917c-14.936,11.897-25.431,19.569-36.612,19.569
	c-5.234,0-11.038-1.631-17.745-4.984c-10.931-5.465-14.02-19.186-17.598-35.072c-4.056-18.015-8.652-38.433-27.272-49.194
	C110.927,2.317,102.563,0,93.975,0C78,0,61.376,8.179,45.9,23.654c-4.745,4.745-9.829,7.151-15.11,7.151
	c-2.173,0-3.7-0.43-4.099-0.557c-3.146-1.431-6.604-1.087-9.532,0.774c-2.961,1.882-4.539,5.241-4.539,8.749
	c0,19.268,13.604,24.027,23.538,27.504c9.616,3.364,20.132,7.06,28.311,22.797H38.013c-3.296,0-6.391,1.584-8.318,4.259
	c-1.928,2.674-2.451,6.111-1.41,9.237c0.181,0.539,4.519,13.336,15.098,26.029c11.989,14.387,27.24,23.1,44.549,25.616
	c10.838,17.602,26.138,30.435,43.949,36.682H50.398c-5.662,0-10.254,4.591-10.254,10.254v84.596c0,5.663,4.592,10.254,10.254,10.254
	h186.111c5.662,0,10.254-4.591,10.254-10.254V202.15c0-5.663-4.592-10.254-10.254-10.254h-54.301
	c10.254-3.539,20.047-9.24,29.024-16.979c36.894-31.801,36.354-76.783,34.598-93.806c15.226-0.177,24.028-6.768,28.735-12.32
	C287.435,53.609,284.107,30.888,283.686,28.346z M143.566,225.106l26.349,51.386h-52.041L143.566,225.106z M103.127,261.153
	l-32.391-48.749H127.5L103.127,261.153z M159.586,212.404h56.776l-31.773,48.761L159.586,212.404z M60.652,233.46l28.593,43.032
	H60.652V233.46z M198.532,276.492l27.722-42.542v42.542H198.532z M214.821,49.458c-2.642-5.184-1.738-12.19-0.182-17.685
	c4.92,1.776,8.266,4.368,9.987,7.744c2.64,5.181,1.739,12.182,0.182,17.684C219.89,55.425,216.542,52.833,214.821,49.458z
	 M54.666,110.581h51.153c1.723,8.307,2.328,18.273-0.778,22.57c-0.507,0.699-1.691,2.338-6.475,2.338
	C75.738,135.489,62.003,121.654,54.666,110.581z M224.925,107.694c-2.952,21.354-12.063,38.746-27.081,51.69
	c-12.353,10.646-26.472,16.272-40.832,16.272c-17.564,0-33.465-8.266-45.226-22.356c4.694-2.174,7.849-5.324,9.898-8.166
	c11.807-16.383,2.813-44.857,1.75-48.05c-1.396-4.188-5.315-7.012-9.729-7.012h-26.9C75.26,60.606,57.288,53.012,44.877,48.603
	c4.953-1.956,10.28-5.201,15.525-10.446c8.052-8.051,20.411-17.649,33.572-17.649c5.008,0,9.783,1.353,14.6,4.137
	c10.848,6.269,14.093,20.683,17.528,35.942c4.127,18.326,8.803,39.097,28.433,48.912c9.621,4.81,18.425,7.148,26.917,7.148
	c16.192,0,29.374-8.424,44.4-20.103C225.75,99.963,225.474,103.721,224.925,107.694z M258.922,55.531
	c-2.733,3.224-6.866,4.889-12.613,5.071c0.208-5.366,1.373-11.834,4.935-16.003c2.734-3.199,6.857-4.851,12.584-5.031
	C263.616,44.884,262.462,51.355,258.922,55.531z"/>
<g>
</g>
<g>
</g>
<g>
</g>
<g>
</g>
<g>
</g>
<g>
</g>
<g>
</g>
<g>
</g>
<g>
</g>
<g>
</g>
<g>
</g>
<g>
</g>
<g>
</g>
<g>
</g>
<g>
</g>
</svg>
