<?xml version="1.0" encoding="iso-8859-1"?>
<!-- Generator: Adobe Illustrator 18.0.0, SVG Export Plug-In . SVG Version: 6.00 Build 0)  -->
<!DOCTYPE svg PUBLIC "-//W3C//DTD SVG 1.1//EN" "http://www.w3.org/Graphics/SVG/1.1/DTD/svg11.dtd">
<svg version="1.1" id="Capa_1" xmlns="http://www.w3.org/2000/svg" xmlns:xlink="http://www.w3.org/1999/xlink" x="0px" y="0px"
	 viewBox="0 0 297 297" style="enable-background:new 0 0 297 297;" xml:space="preserve">
<g>
	<path d="M180.432,192.749l13.688-13.744c2.629-2.641,3.552-6.533,2.391-10.073c-1.163-3.539-4.214-6.126-7.895-6.694l-18.855-2.905
		l-8.569-17.436c-1.664-3.386-5.108-5.531-8.881-5.531h-0.001c-3.772,0-7.218,2.145-8.882,5.53l-8.573,17.437l-18.853,2.905
		c-3.682,0.568-6.733,3.155-7.896,6.694c-1.161,3.539-0.238,7.431,2.39,10.071l13.686,13.746l-3.146,19.358
		c-0.603,3.707,0.944,7.436,3.995,9.626c3.05,2.193,7.077,2.469,10.397,0.714l16.883-8.918l16.883,8.918
		c1.452,0.767,3.039,1.146,4.621,1.146c2.035,0,4.061-0.627,5.776-1.859c3.051-2.191,4.597-5.92,3.994-9.628L180.432,192.749z
		 M162.839,182.363c-2.24,2.251-3.267,5.439-2.756,8.574l0.768,4.718l-3.919-2.07c-2.895-1.529-6.352-1.529-9.246,0l-3.925,2.072
		l0.768-4.722c0.51-3.134-0.515-6.321-2.755-8.571l-3.512-3.528l4.706-0.726c3.194-0.492,5.948-2.514,7.374-5.415l1.966-3.997
		l1.964,3.996c1.427,2.902,4.18,4.924,7.375,5.417l4.706,0.725L162.839,182.363z"/>
	<path d="M242.234,90.647l-8.854-35.48c-1.1-4.408-5.06-7.502-9.603-7.502H122.917L95.246,4.554
		c-2.799-4.359-8.482-5.824-13.037-3.361L59.667,13.379c-4.809,2.601-6.599,8.606-3.999,13.414
		c2.599,4.808,8.604,6.599,13.413,3.999l14.465-7.82l15.85,24.693h-17.31c-4.543,0-8.502,3.092-9.603,7.501l-8.858,35.479
		c-0.271,1.084-0.349,2.191-0.251,3.278c0,0.008-0.004,0.011-0.004,0.011l17.714,194.068c0.466,5.096,4.739,8.997,9.856,8.997
		H214.92c5.117,0,9.391-3.901,9.857-8.997l17.712-194.061c0.001-0.011-0.003-0.019-0.002-0.03
		C242.582,92.829,242.504,91.726,242.234,90.647z M216.047,67.46l3.914,15.686H85.9l3.916-15.686H216.047z M99.976,277.205
		l-6.373-69.814h9.989c5.466,0,9.897-4.432,9.897-9.898c0-5.466-4.432-9.897-9.897-9.897H91.797l-7.728-84.656H221.79l-7.727,84.656
		h-12.485c-5.466,0-9.897,4.432-9.897,9.897c0,5.466,4.432,9.898,9.897,9.898h10.678l-6.372,69.814H99.976z"/>
</g>
<g>
</g>
<g>
</g>
<g>
</g>
<g>
</g>
<g>
</g>
<g>
</g>
<g>
</g>
<g>
</g>
<g>
</g>
<g>
</g>
<g>
</g>
<g>
</g>
<g>
</g>
<g>
</g>
<g>
</g>
</svg>
