<?xml version="1.0" encoding="iso-8859-1"?>
<!-- Generator: Adobe Illustrator 18.0.0, SVG Export Plug-In . SVG Version: 6.00 Build 0)  -->
<!DOCTYPE svg PUBLIC "-//W3C//DTD SVG 1.1//EN" "http://www.w3.org/Graphics/SVG/1.1/DTD/svg11.dtd">
<svg version="1.1" id="Capa_1" xmlns="http://www.w3.org/2000/svg" xmlns:xlink="http://www.w3.org/1999/xlink" x="0px" y="0px"
	 viewBox="0 0 297 297" style="enable-background:new 0 0 297 297;" xml:space="preserve">
<path d="M158.187,9.687c0-3.114-1.496-6.038-4.023-7.859c-2.526-1.82-5.773-2.314-8.728-1.332L97.481,16.481
	c-3.956,1.318-6.624,5.021-6.624,9.191c0,4.17,2.668,7.872,6.624,9.19l41.331,13.777v14.374l-103.454,82.88
	c-2.295,1.839-3.631,4.621-3.631,7.562c0,16.287,10.737,30.111,25.503,34.773l-14.227,97.686c-0.406,2.784,0.419,5.606,2.259,7.734
	c1.841,2.128,4.515,3.35,7.328,3.35L244.41,297c2.813,0,5.487-1.222,7.327-3.35c1.84-2.128,2.665-4.95,2.259-7.734l-14.227-97.685
	c14.767-4.662,25.503-18.487,25.503-34.774c0-2.941-1.336-5.723-3.631-7.562l-103.454-82.88V9.687z M131.181,25.673l7.632-2.544
	v5.088L131.181,25.673z M131.417,277.624v-47.552h34.166v47.552H131.417z M184.959,277.625v-57.241c0-5.35-4.338-9.688-9.688-9.688
	h-53.543c-5.35,0-9.688,4.338-9.688,9.688v57.24h-48.25l12.924-88.729c7.115-1.712,13.431-5.506,18.243-10.714
	c6.665,7.212,16.2,11.734,26.771,11.734c10.571,0,20.106-4.522,26.771-11.734c6.665,7.212,16.2,11.734,26.771,11.734
	c10.57,0,20.105-4.523,26.77-11.734c4.814,5.207,11.128,9.001,18.244,10.714l12.923,88.73H184.959z M228.815,170.539h-0.002
	c-9.42,0-17.083-7.663-17.083-17.083c0-5.351-4.338-9.689-9.689-9.689c-5.35,0-9.688,4.338-9.688,9.689
	c0,9.42-7.663,17.083-17.083,17.083s-17.084-7.663-17.084-17.083c0-5.351-4.337-9.689-9.688-9.689c-5.35,0-9.688,4.338-9.688,9.689
	c0,9.42-7.663,17.083-17.084,17.083c-9.42,0-17.083-7.663-17.083-17.083c0-5.351-4.338-9.689-9.688-9.689
	c-5.351,0-9.688,4.338-9.688,9.689c0,9.42-7.663,17.083-17.083,17.083c-7.961,0-14.668-5.475-16.554-12.855L148.5,80.08
	l96.867,77.603C243.481,165.066,236.776,170.539,228.815,170.539z"/>
<g>
</g>
<g>
</g>
<g>
</g>
<g>
</g>
<g>
</g>
<g>
</g>
<g>
</g>
<g>
</g>
<g>
</g>
<g>
</g>
<g>
</g>
<g>
</g>
<g>
</g>
<g>
</g>
<g>
</g>
</svg>
