<?xml version="1.0" encoding="iso-8859-1"?>
<!-- Generator: Adobe Illustrator 18.0.0, SVG Export Plug-In . SVG Version: 6.00 Build 0)  -->
<!DOCTYPE svg PUBLIC "-//W3C//DTD SVG 1.1//EN" "http://www.w3.org/Graphics/SVG/1.1/DTD/svg11.dtd">
<svg version="1.1" id="Capa_1" xmlns="http://www.w3.org/2000/svg" xmlns:xlink="http://www.w3.org/1999/xlink" x="0px" y="0px"
	 viewBox="0 0 297 297" style="enable-background:new 0 0 297 297;" xml:space="preserve">
<path d="M292.258,66.752c-6.134-14.313-17.472-25.381-31.929-31.164c-6.939-2.777-14.22-4.185-21.64-4.185
	c-12.704,0-24.631,4.051-34.372,11.159c-6.955-24.415-29.445-42.351-56.061-42.351c-26.509,0-48.925,17.792-55.977,42.058
	c-9.665-6.929-21.44-10.866-33.97-10.866c-7.42,0-14.7,1.407-21.64,4.185C22.214,41.371,10.876,52.439,4.742,66.752
	C-1.39,81.066-1.581,96.91,4.204,111.366c9.088,22.718,35.072,47.774,60.687,52.398c-1.056,4.945-0.629,10.092,1.292,14.892
	c3.762,9.401,10.956,10.417,13.875,10.417c3.86,0,7.223-1.474,10.451-3.047c5.392,6.558,17.295,21.736,28.671,41.035
	c-2.231-0.402-4.432,0-6.549,0c-13.684,0-22.184,8.551-22.184,23.333c0,26.19,17.808,28.227,23.266,28.228c0.002,0,0.002,0,0.002,0
	c7.857,0,16.701-3.452,24.825-8.377v16.827c0,5.365,4.351,9.716,9.716,9.716c5.366,0,9.716-4.351,9.716-9.716v-16.827
	c8.125,4.925,16.97,8.377,24.827,8.377c5.457,0,23.267-2.036,23.267-28.228c0-14.782-8.5-23.966-22.185-23.966
	c-1.945,0-3.963,0.289-6.01,0.633c11.361-19.257,23.234-34.489,28.618-41.035c3.229,1.573,6.591,3.047,10.451,3.047
	c2.92,0,10.113-1.016,13.875-10.417c1.92-4.8,2.348-9.946,1.292-14.892c25.614-4.623,51.599-29.68,60.688-52.398
	C298.581,96.91,298.389,81.066,292.258,66.752z M183.008,159.527c-1.915,4.785-1.96,9.158-0.135,13.001
	c1.199,2.524,2.951,4.318,4.935,5.67c-7.276,9.17-18.994,29.555-29.835,48.863v-67.017c9.892-0.056,16.031-6.187,16.031-16.038
	c0-5.278-1.599-10.189-4.334-14.278c3.934-2.46,7.731-5.602,11.341-9.378c2.218,11.031,6.084,20.314,11.326,27.491
	C188.237,150.654,184.953,154.662,183.008,159.527z M113.993,159.527c-1.946-4.865-5.23-8.873-9.33-11.686
	c5.176-7.087,9.007-16.231,11.236-27.08c3.491,3.593,7.154,6.597,10.945,8.967c-2.736,4.089-4.335,9-4.335,14.278
	c0,9.852,6.14,15.982,16.031,16.038v67.017c-10.702-18.918-22.18-39.83-29.349-48.863c1.983-1.352,3.735-3.145,4.935-5.67
	C115.952,168.685,115.907,164.312,113.993,159.527z M148.257,140.12c-1.857,0-3.577,0.105-5.141,0.221
	c1.148-1.604,3.024-2.649,5.141-2.649c2.117,0,3.994,1.046,5.141,2.649C151.834,140.226,150.115,140.12,148.257,140.12z
	 M148.257,19.644c21.43,0,38.863,17.435,38.863,38.863c0,11.612-4.978,26.845-12.681,38.806
	c-7.978,12.386-17.521,19.489-26.183,19.489c-8.661,0-18.205-7.104-26.183-19.489c-7.703-11.961-12.681-27.193-12.681-38.806
	C109.394,37.078,126.828,19.644,148.257,19.644z M22.244,104.147c-3.855-9.638-3.729-20.2,0.359-29.742
	c4.089-9.542,11.649-16.921,21.286-20.777c4.633-1.854,9.485-2.793,14.421-2.793c13.275,0,25.288,6.615,32.387,17.354
	c1.198,8.402,3.848,17.339,7.633,25.849c0.503,7.213,0.102,14.855-1.279,21.975c-2.806,14.463-9.027,24.603-17.068,27.821
	c-2.088,0.835-4.417,1.259-6.922,1.259C54.517,145.093,29.618,122.578,22.244,104.147z M87.742,163.228
	c0.757-0.303,1.544-0.456,2.342-0.456c1.249,0,2.431,0.36,3.428,1.003c-1.498,0.474-3.138,1.016-4.867,1.708
	c-1.725,0.69-3.281,1.427-4.69,2.115C84.423,165.684,85.776,164.015,87.742,163.228z M113.718,259.19
	C113.717,259.19,113.717,259.19,113.718,259.19c-1.691,0-2.051-0.439-2.204-0.626c-0.79-0.961-1.634-3.613-1.634-8.17
	c0-3.252,0.69-4.226,0.674-4.227c0.035-0.02,0.573-0.307,2.078-0.307c4.88,0,12.069,2.754,18.636,6.006
	C124.736,256.301,118.085,259.19,113.718,259.19z M185.912,246.126c0.05,0.067,0.723,1.059,0.723,4.268
	c0,4.558-0.845,7.209-1.634,8.171c-0.154,0.187-0.515,0.625-2.201,0.625c-4.364,0-11.007-2.897-17.531-7.324
	c6.438-3.185,13.684-6.006,18.613-6.006C185.383,245.86,185.921,246.142,185.912,246.126z M208.355,165.483
	c-1.729-0.692-3.369-1.234-4.867-1.708c1.633-1.052,3.826-1.324,5.77-0.547c1.966,0.786,3.319,2.455,3.788,4.37
	C211.637,166.91,210.081,166.174,208.355,165.483z M274.756,104.147c-7.375,18.432-32.272,40.946-50.815,40.945
	c-2.506,0-4.835-0.424-6.923-1.259c-8.041-3.218-14.263-13.358-17.068-27.821c-1.466-7.559-1.825-15.706-1.172-23.303
	c3.331-7.77,5.694-15.851,6.887-23.521c7.001-11.326,19.345-18.354,33.025-18.354c4.936,0,9.788,0.939,14.421,2.793
	c9.638,3.857,17.197,11.235,21.286,20.777C278.484,83.947,278.611,94.51,274.756,104.147z"/>
<g>
</g>
<g>
</g>
<g>
</g>
<g>
</g>
<g>
</g>
<g>
</g>
<g>
</g>
<g>
</g>
<g>
</g>
<g>
</g>
<g>
</g>
<g>
</g>
<g>
</g>
<g>
</g>
<g>
</g>
</svg>
