<?xml version="1.0" encoding="iso-8859-1"?>
<!-- Generator: Adobe Illustrator 18.0.0, SVG Export Plug-In . SVG Version: 6.00 Build 0)  -->
<!DOCTYPE svg PUBLIC "-//W3C//DTD SVG 1.1//EN" "http://www.w3.org/Graphics/SVG/1.1/DTD/svg11.dtd">
<svg version="1.1" id="Capa_1" xmlns="http://www.w3.org/2000/svg" xmlns:xlink="http://www.w3.org/1999/xlink" x="0px" y="0px"
	 viewBox="0 0 297 297" style="enable-background:new 0 0 297 297;" xml:space="preserve">
<g>
	<path d="M286.899,108.707c-16.235,0-29.443-13.229-29.443-29.488c0-5.578-4.522-10.102-10.101-10.102H49.644
		c-5.578,0-10.101,4.523-10.101,10.102c0,16.26-13.208,29.488-29.443,29.488c-5.578,0-10.101,4.521-10.101,10.1v59.393
		c0,5.578,4.522,10.1,10.101,10.1c16.235,0,29.443,13.227,29.443,29.482c0,5.578,4.522,10.102,10.101,10.102h197.711
		c5.578,0,10.101-4.523,10.101-10.102c0-16.256,13.208-29.482,29.443-29.482c5.578,0,10.101-4.521,10.101-10.1v-59.393
		C297,113.229,292.478,108.707,286.899,108.707z M276.799,169.133c-19.288,4.004-34.515,19.244-38.513,38.549H58.714
		c-3.998-19.305-19.225-34.545-38.513-38.549v-41.26c19.288-4.004,34.515-19.248,38.513-38.555h179.572
		c3.998,19.307,19.225,34.551,38.513,38.555V169.133z"/>
	<path d="M84.343,137.566l-7.925-1.016L72.989,129c-1.146-2.525-3.663-4.146-6.437-4.148h-0.001c-2.773,0-5.289,1.619-6.437,4.142
		l-3.437,7.557l-7.934,1.016c-2.696,0.348-4.955,2.207-5.812,4.787c-0.855,2.58-0.157,5.422,1.797,7.311l5.976,5.775l-1.553,8.346
		c-0.503,2.705,0.608,5.457,2.849,7.053c1.223,0.871,2.66,1.311,4.103,1.311c1.2,0,2.405-0.305,3.491-0.922l6.951-3.949l6.938,3.947
		c2.393,1.359,5.355,1.209,7.596-0.385c2.242-1.594,3.354-4.344,2.853-7.049l-1.548-8.352l5.972-5.777
		c1.953-1.889,2.65-4.73,1.794-7.311C89.297,139.773,87.038,137.914,84.343,137.566z"/>
	<path d="M242.523,137.566l-7.934-1.016l-3.438-7.557c-1.147-2.523-3.664-4.142-6.435-4.142h-0.001
		c-2.771,0-5.287,1.619-6.436,4.141l-3.441,7.559l-7.932,1.016c-2.696,0.348-4.956,2.209-5.812,4.789
		c-0.855,2.582-0.155,5.426,1.802,7.313l5.98,5.771l-1.564,8.336c-0.508,2.705,0.602,5.459,2.842,7.059
		c1.225,0.873,2.664,1.314,4.108,1.314c1.201,0,2.405-0.305,3.491-0.922l6.958-3.951l6.956,3.951
		c2.395,1.359,5.355,1.205,7.595-0.389c2.241-1.596,3.353-4.346,2.85-7.051l-1.55-8.348l5.974-5.775
		c1.954-1.891,2.651-4.732,1.795-7.313C247.477,139.773,245.219,137.914,242.523,137.566z"/>
	<path d="M166.306,137.566l-7.932-1.016l-3.439-7.557c-1.147-2.523-3.664-4.142-6.434-4.142H148.5c-2.771,0-5.287,1.619-6.436,4.141
		l-3.439,7.559l-7.931,1.016c-2.695,0.348-4.954,2.207-5.811,4.787c-0.856,2.58-0.158,5.422,1.796,7.311l5.975,5.777l-1.55,8.346
		c-0.503,2.705,0.609,5.455,2.85,7.051c2.239,1.596,5.203,1.746,7.596,0.389l6.95-3.951l6.95,3.951
		c1.087,0.617,2.291,0.922,3.493,0.922c1.441,0,2.88-0.439,4.102-1.311c2.239-1.594,3.353-4.346,2.851-7.049l-1.551-8.348
		l5.976-5.777c1.953-1.889,2.651-4.73,1.795-7.311C171.26,139.773,169.001,137.914,166.306,137.566z"/>
</g>
<g>
</g>
<g>
</g>
<g>
</g>
<g>
</g>
<g>
</g>
<g>
</g>
<g>
</g>
<g>
</g>
<g>
</g>
<g>
</g>
<g>
</g>
<g>
</g>
<g>
</g>
<g>
</g>
<g>
</g>
</svg>
