<?xml version="1.0" encoding="iso-8859-1"?>
<!-- Generator: Adobe Illustrator 18.0.0, SVG Export Plug-In . SVG Version: 6.00 Build 0)  -->
<!DOCTYPE svg PUBLIC "-//W3C//DTD SVG 1.1//EN" "http://www.w3.org/Graphics/SVG/1.1/DTD/svg11.dtd">
<svg version="1.1" id="Capa_1" xmlns="http://www.w3.org/2000/svg" xmlns:xlink="http://www.w3.org/1999/xlink" x="0px" y="0px"
	 viewBox="0 0 297 297" style="enable-background:new 0 0 297 297;" xml:space="preserve">
<path d="M174.266,120.896V69.632c19.775-3.063,37.793-8.631,45.279-16.117c1.823-1.824,2.848-4.297,2.848-6.875V30.597
	c0-5.366-4.353-9.718-9.718-9.723c-0.46,0-46.267-0.215-75.87-15.017C129.031,1.971,121.74,0,115.134,0
	c-22.5,0-32.748,21.908-32.749,42.264c0,9.771,5.696,25.303,40.35,29.167v49.466c-37.073,11.105-64.17,45.529-64.17,86.168
	c0,13.981,3.219,27.22,8.937,39.034c-2.159,0.804-4.009,2.347-5.148,4.436c-1.704,3.123-1.567,6.927,0.357,9.919l14.979,23.281
	c1.79,2.781,4.87,4.462,8.177,4.462h23.877C121.486,293.831,134.628,297,148.5,297c49.591,0,89.936-40.345,89.936-89.936
	C238.436,166.426,211.339,132.002,174.266,120.896z M101.83,42.265c0-0.933,0.152-22.819,13.304-22.819
	c3.56,0,7.926,1.279,12.976,3.806c25.112,12.556,58.529,15.877,74.838,16.754v1.713c-9.474,5.063-35.885,11.16-62.74,11.16
	C115.28,52.877,101.83,47.409,101.83,42.265z M142.181,72.31c4.107-0.042,8.347-0.211,12.64-0.507v45.552
	c-2.09-0.146-4.195-0.226-6.32-0.226s-4.23,0.08-6.319,0.226V72.31z M88.704,264.914h26.713l2.468,3.836H91.172L88.704,264.914z
	 M111.873,207.064c0-20.134,16.431-36.514,36.627-36.514s36.627,16.38,36.627,36.514c0,20.134-16.431,36.514-36.627,36.514
	c-3.993,0-7.835-0.65-11.436-1.833l15.172-22.758c4.877-1.631,8.417-6.355,8.417-11.923c0-6.912-5.452-12.535-12.153-12.535
	s-12.153,5.623-12.153,12.535c0,0.221,0.021,0.437,0.032,0.654l-15.514,23.27C115.271,224.575,111.873,216.211,111.873,207.064z
	 M145.351,277.473l-8.87-15.758c3.875,0.849,7.893,1.309,12.02,1.309c30.919,0,56.073-25.104,56.073-55.959
	c0-30.855-25.154-55.959-56.073-55.959s-56.072,25.104-56.072,55.959c0,14.859,5.845,28.374,15.347,38.404H89.445
	c-7.221-11.056-11.435-24.242-11.435-38.404c0-38.868,31.622-70.49,70.49-70.49s70.49,31.622,70.49,70.49
	c0,38.868-31.622,70.489-70.49,70.489C147.444,277.554,146.396,277.519,145.351,277.473z"/>
<g>
</g>
<g>
</g>
<g>
</g>
<g>
</g>
<g>
</g>
<g>
</g>
<g>
</g>
<g>
</g>
<g>
</g>
<g>
</g>
<g>
</g>
<g>
</g>
<g>
</g>
<g>
</g>
<g>
</g>
</svg>
