<?xml version="1.0" encoding="iso-8859-1"?>
<!-- Generator: Adobe Illustrator 18.0.0, SVG Export Plug-In . SVG Version: 6.00 Build 0)  -->
<!DOCTYPE svg PUBLIC "-//W3C//DTD SVG 1.1//EN" "http://www.w3.org/Graphics/SVG/1.1/DTD/svg11.dtd">
<svg version="1.1" id="Capa_1" xmlns="http://www.w3.org/2000/svg" xmlns:xlink="http://www.w3.org/1999/xlink" x="0px" y="0px"
	 viewBox="0 0 297 297" style="enable-background:new 0 0 297 297;" xml:space="preserve">
<path d="M247.767,213.436v-7.574c0-68.182-55.47-123.652-123.652-123.652h-6.404V64.155c19.377-2.12,40.61-7.132,48.93-15.487
	c1.839-1.847,2.872-4.346,2.872-6.952V27.87c0-5.438-4.41-9.847-9.848-9.853c-0.392,0-39.406-0.19-64.512-12.797
	C88.257,1.758,81.761,0,75.842,0C55.479,0,46.205,19.667,46.205,37.938c0,5.94,2.447,16.807,18.847,22.835
	c8.251,3.034,19.132,4.571,32.338,4.571c0,0,0.002,0,0.004,0c0.2,0,0.408-0.004,0.61-0.004v16.869H59.086
	c-5.441,0-9.854,4.412-9.854,9.853c0,5.441,4.412,9.853,9.854,9.853h38.918v13.344c-45.637,4.929-81.285,43.679-81.285,90.604
	c0,50.255,40.884,91.139,91.139,91.139c50.254,0,91.139-40.884,91.139-91.139c0-46.925-35.649-85.675-81.286-90.604v-13.344h6.404
	c57.316,0,103.947,46.631,103.947,103.947v7.574c-18.623,4.453-32.515,21.229-32.515,41.197c0,23.361,19.007,42.367,42.367,42.367
	c23.361,0,42.367-19.006,42.367-42.367C280.281,234.665,266.391,217.889,247.767,213.436z M97.39,45.638
	c-10.572,0-19.642-1.193-25.539-3.36c-0.991-0.365-5.94-2.287-5.94-4.339c0-0.182,0.114-18.232,9.932-18.232
	c2.779,0,6.397,1.081,10.467,3.124c20.381,10.234,47.002,13.437,61.943,14.438C139.299,41.02,119.225,45.638,97.39,45.638z
	 M178.635,196.326h-47.753l33.743-33.755C171.987,172.201,176.948,183.75,178.635,196.326z M164.625,249.153l-33.741-33.757h47.751
	C176.949,227.973,171.987,239.523,164.625,249.153z M37.079,215.396h47.771L51.096,249.16
	C43.73,239.529,38.767,227.977,37.079,215.396z M51.102,162.555l33.755,33.771H37.079C38.767,183.742,43.733,172.188,51.102,162.555
	z M98.323,182.819l-33.731-33.747c9.626-7.35,21.166-12.303,33.731-13.988V182.819z M98.323,228.895v47.745
	c-12.569-1.684-24.112-6.642-33.739-13.996L98.323,228.895z M117.392,228.877l33.746,33.762
	c-9.629,7.357-21.174,12.316-33.746,14.001V228.877z M117.392,182.844v-47.76c12.572,1.686,24.118,6.645,33.748,14.003
	L117.392,182.844z M237.914,277.295c-12.495,0-22.661-10.166-22.661-22.662c0-12.495,10.166-22.661,22.661-22.661
	c12.496,0,22.662,10.166,22.662,22.661C260.576,267.129,250.41,277.295,237.914,277.295z"/>
<g>
</g>
<g>
</g>
<g>
</g>
<g>
</g>
<g>
</g>
<g>
</g>
<g>
</g>
<g>
</g>
<g>
</g>
<g>
</g>
<g>
</g>
<g>
</g>
<g>
</g>
<g>
</g>
<g>
</g>
</svg>
