<?xml version="1.0" encoding="utf-8"?>
<!-- Generator: Adobe Illustrator 19.1.0, SVG Export Plug-In . SVG Version: 6.00 Build 0)  -->
<svg version="1.1" id="Layer_1" xmlns="http://www.w3.org/2000/svg" xmlns:xlink="http://www.w3.org/1999/xlink" x="0px" y="0px"
	 viewBox="0 0 300 300" style="enable-background:new 0 0 300 300;" xml:space="preserve">
<style type="text/css">
	.st0{fill:#007CB2;}
	.st1{fill:#005B8A;}
</style>
<path id="Layer_4" class="st0" d="M150,5c38.7,0,75.1,15.1,102.5,42.5S295,111.3,295,150s-15.1,75.1-42.5,102.5S188.7,295,150,295
	s-75.1-15.1-102.5-42.5S5,188.7,5,150S20.1,74.9,47.5,47.5S111.3,5,150,5 M150,0C67.2,0,0,67.2,0,150s67.2,150,150,150
	s150-67.2,150-150S232.8,0,150,0z"/>
<path id="Layer_1_1_" class="st1" d="M132.4,75.5c-23.8,0-34.2,19.8-34.2,39.8c0,26.3,15.8,38.2,15.8,47c0,3.5-2.3,7.7-8.9,11.2
	l-34.9,18.7c-12.3,6.7-6.1,32.2-6.1,32.2h136.5c0,0,6-25.8-6.1-32.2l-34.9-18.6c-6.5-3.5-9.3-7.2-9.3-10.5
	c0-8.1,16.1-19.4,16.1-47.8C166.4,91.7,153.7,75.5,132.4,75.5L132.4,75.5z M212.8,88h-6.1c-6.1,0-6.1,0-6.1,6.1v12.4h-12.4
	c-6.1,0-6.1,0-6.1,6.1v6.1c0,6.1,0,6.1,6.1,6.1h12.4v12.4c0,6.1,0,6.1,6.1,6.1h6.1c6.1,0,6.1,0,6.1-6.1v-12.4h12.4
	c6.1,0,6.1,0,6.1-6.1v-6.1c0-6.1,0-6.1-6.1-6.1h-12.4V94.1C219.1,88,219.1,88,212.8,88z"/>
</svg>
