<?xml version="1.0" encoding="utf-8"?>
<!-- Generator: Adobe Illustrator 19.1.0, SVG Export Plug-In . SVG Version: 6.00 Build 0)  -->
<svg version="1.1" id="Layer_1" xmlns="http://www.w3.org/2000/svg" xmlns:xlink="http://www.w3.org/1999/xlink" x="0px" y="0px"
	 viewBox="0 0 300 300" style="enable-background:new 0 0 300 300;" xml:space="preserve">
<style type="text/css">
	.st0{fill:#007CB2;}
	.st1{fill:#005B8A;}
</style>
<path id="Layer_4" class="st0" d="M150,5c38.7,0,75.1,15.1,102.5,42.5S295,111.3,295,150s-15.1,75.1-42.5,102.5S188.7,295,150,295
	s-75.1-15.1-102.5-42.5S5,188.7,5,150S20.1,74.9,47.5,47.5S111.3,5,150,5 M150,0C67.2,0,0,67.2,0,150s67.2,150,150,150
	s150-67.2,150-150S232.8,0,150,0z"/>
<path id="Layer_2" class="st1" d="M131.6,119.5l-17,17l54.6,54.6l85.3-102.3l-17-15L167.2,153L131.6,119.5z M201,199h-97v-98h95.5
	l23-25H79v148h148v-89.1l-26,30.6V199z"/>
</svg>
