<?xml version="1.0" encoding="utf-8"?>
<!-- Generator: Adobe Illustrator 19.1.0, SVG Export Plug-In . SVG Version: 6.00 Build 0)  -->
<svg version="1.1" id="Layer_1" xmlns="http://www.w3.org/2000/svg" xmlns:xlink="http://www.w3.org/1999/xlink" x="0px" y="0px"
	 viewBox="0 0 300 300" style="enable-background:new 0 0 300 300;" xml:space="preserve">
<style type="text/css">
	.st0{fill:#C72F4F;}
	.st1{fill:#7C0E25;}
</style>
<path class="st0" d="M150,5c38.7,0,75.1,15.1,102.5,42.5S295,111.3,295,150s-15.1,75.1-42.5,102.5S188.7,295,150,295
	s-75.1-15.1-102.5-42.5S5,188.7,5,150S20.1,74.9,47.5,47.5S111.3,5,150,5 M150,0C67.2,0,0,67.2,0,150s67.2,150,150,150
	s150-67.2,150-150S232.8,0,150,0z"/>
<path class="st1" d="M161.5,130.7c-15.7-6.5-15.7-8.8-15.7-10.3c0-3.7,5-4.3,8-4.3c9.2,0,14.8,3.2,17.5,4.8l11.8,6.7L196,93.5
	l-8.5-5c-5.6-3.3-11.6-5.5-18.3-6.8V62.5h-34.7v21.4c-17,6.3-27.9,20.9-27.9,38.7c0,27.9,26.5,38.4,37.8,42.8
	c13.6,5.5,13.6,9.2,13.6,11.2c0,4.8-5.6,6.5-10.4,6.5c-7,0-14.5-2.2-20.2-6l-12.4-8.3l-12.4,34.7l7.1,5.1c6,4.3,14.5,7.6,23.4,9.2
	v19.8H168v-21.9c17.8-6.5,29.2-21.8,29.2-40.4C197.3,148.4,176.8,136.9,161.5,130.7L161.5,130.7z"/>
</svg>
