<svg id="Layer_1" xmlns="http://www.w3.org/2000/svg" viewBox="10 118.2 320.6 64.8"><style>.st0{fill:#FFF}</style><path class="st0" d="M101 168.1h7.1v1.8h-5v3.3h4.3v1.8h-4.3v4.9H101v-11.8zM117.4 180.2c-.8 0-1.5-.1-2.1-.4-.6-.3-1.2-.7-1.6-1.2-.5-.5-.8-1.2-1.1-1.9-.2-.8-.4-1.6-.4-2.6 0-.9.1-1.8.4-2.5.3-.7.6-1.4 1.1-1.9.5-.5 1-.9 1.6-1.2.6-.3 1.3-.4 2.1-.4s1.5.1 2.1.4c.6.3 1.2.7 1.6 1.2.5.5.8 1.2 1.1 1.9.2.8.4 1.6.4 2.5 0 1-.1 1.8-.4 2.6-.3.8-.6 1.4-1.1 1.9-.5.5-1 .9-1.7 1.2-.5.2-1.2.4-2 .4zm.1-1.9c.5 0 .9-.1 1.3-.3.4-.2.7-.5 1-.9.3-.4.5-.8.6-1.4.1-.5.2-1.1.2-1.8 0-1.3-.3-2.4-.8-3.1-.5-.8-1.3-1.1-2.2-1.1-.9 0-1.7.4-2.2 1.1-.5.7-.8 1.8-.8 3.1 0 .7.1 1.3.2 1.8s.3 1 .6 1.4c.3.4.6.7 1 .9.2.2.6.3 1.1.3zM134.3 180l-2.5-4.6H130v4.6h-2.1l.1-11.8h4c.6 0 1.2.1 1.7.2s1 .3 1.4.6c.4.3.7.6.9 1.1.2.4.3 1 .3 1.7 0 .9-.2 1.6-.6 2.2-.4.6-1 .9-1.7 1.2l2.8 4.9-2.5-.1zm-4.3-6.3h1.7c.8 0 1.4-.2 1.8-.5.4-.3.6-.8.6-1.5s-.2-1.2-.6-1.4c-.4-.3-1-.4-1.8-.4H130v3.8zM160.2 176.9h-4l-.9 3.2h-2.1l3.9-11.8h2.4l3.8 11.8h-2.2l-.9-3.2zm-.5-1.6l-.4-1.4c-.2-.6-.4-1.3-.5-1.9-.2-.7-.3-1.3-.5-2h-.1c-.2.7-.3 1.3-.5 2s-.4 1.3-.5 1.9l-.4 1.4h2.9zM167.7 168.4h2.3l2.1 5.8.8 2.2h.1l.8-2.2 2.1-5.8h2.3l-.1 11.8h-2v-5.4-.9c0-.3 0-.7.1-1 0-.3.1-.7.1-1 0-.3.1-.6.1-.9h-.1l-1 2.7-2.1 5.3h-1l-2-5.4-.9-2.7h-.1c0 .3 0 .6.1.9 0 .3.1.6.1 1 0 .3.1.7.1 1V180.1h-1.9l.1-11.7zM184 168.5h7.1v1.8h-5v3h4.2v1.8h-4.2v3.5h5.2v1.8H184v-11.9zM202.9 180.3l-2.5-4.6h-1.8v4.6h-2.1l.1-11.8h4c.6 0 1.2.1 1.7.2s1 .3 1.4.6.7.6.9 1.1c.2.4.3 1 .3 1.7 0 .9-.2 1.6-.6 2.2-.4.6-1 .9-1.7 1.2l2.8 4.9-2.5-.1zm-4.3-6.3h1.7c.8 0 1.4-.2 1.8-.5.4-.3.6-.8.6-1.5s-.2-1.2-.6-1.4c-.4-.3-1-.4-1.8-.4h-1.7v3.8zM210.2 168.6h2.1l-.1 11.8h-2.1l.1-11.8zM217.5 174.5c0-1 .1-1.8.4-2.6.3-.8.7-1.4 1.2-1.9s1.1-.9 1.7-1.2c.7-.3 1.4-.4 2.1-.4.7 0 1.4.2 1.9.5.6.3 1 .7 1.4 1.1l-1.2 1.3c-.3-.3-.6-.5-1-.7-.3-.2-.7-.3-1.2-.3s-.9.1-1.3.3c-.4.2-.8.5-1 .8-.3.4-.5.8-.7 1.3-.2.5-.2 1.1-.3 1.8 0 1.3.3 2.4.9 3.2.6.8 1.4 1.1 2.4 1.2.5 0 1-.1 1.4-.3.4-.2.8-.5 1.1-.9l1.2 1.3c-.5.6-1 1-1.6 1.3-.6.3-1.3.4-2 .4-.8 0-1.5-.1-2.1-.4-.6-.3-1.2-.7-1.7-1.2s-.9-1.2-1.1-1.9c-.4-.8-.5-1.7-.5-2.7zM236.8 177.3h-4l-.9 3.2h-2.1l3.9-11.8h2.4l3.8 11.8h-2.2l-.9-3.2zm-.4-1.7l-.4-1.4c-.2-.6-.4-1.3-.5-1.9-.2-.7-.3-1.3-.5-2h-.1c-.2.7-.3 1.3-.5 2s-.4 1.3-.5 1.9l-.4 1.4h2.9z"/><g><path class="st0" d="M19.8 139.5c.5.9 1.1 1.6 1.7 2 .7.4 1.3.7 2 .7 1.1 0 1.9-.3 2.5-1 .6-.7.9-1.9.9-3.7L27 120h6.1l-.1 18c0 1.3-.2 2.5-.5 3.7-.3 1.2-.9 2.2-1.6 3-.7.9-1.6 1.5-2.7 2s-2.4.7-3.9.7c-2.1 0-3.8-.4-5.2-1.2-1.4-.8-2.5-2-3.5-3.7l4.2-3zM50.1 147.6c-1.8 0-3.5-.3-5-1s-2.8-1.6-3.8-2.8c-1.1-1.2-1.9-2.7-2.5-4.4-.6-1.7-.9-3.7-.9-5.9s.3-4.2.9-5.9c.6-1.7 1.4-3.2 2.5-4.3 1.1-1.2 2.4-2.1 3.9-2.7 1.5-.6 3.2-.9 5-.9 1.8 0 3.5.3 5 1 1.5.6 2.8 1.5 3.8 2.7 1.1 1.2 1.9 2.6 2.5 4.4.6 1.7.9 3.7.9 5.8 0 2.2-.3 4.2-.9 5.9-.6 1.7-1.4 3.2-2.5 4.4-1.1 1.2-2.4 2.1-3.9 2.8-1.5.6-3.2.9-5 .9zm0-5.3c1.8 0 3.3-.8 4.4-2.4 1.1-1.6 1.6-3.7 1.6-6.5 0-2.7-.5-4.8-1.6-6.3s-2.5-2.3-4.4-2.3c-1.8 0-3.3.7-4.4 2.3-1.1 1.5-1.6 3.6-1.6 6.3 0 2.7.5 4.9 1.6 6.5 1.1 1.6 2.6 2.4 4.4 2.4zM69.2 139.6c1 .8 2 1.5 3.2 2 1.2.5 2.3.8 3.4.8 1.3 0 2.2-.2 2.8-.7.6-.5.9-1.1.9-1.9 0-.4-.1-.8-.3-1.1-.2-.3-.4-.6-.8-.8-.3-.2-.8-.5-1.2-.7-.5-.2-1-.4-1.6-.7l-3.5-1.5c-.7-.3-1.4-.6-2-1.1-.6-.4-1.2-1-1.7-1.6-.5-.6-.9-1.3-1.2-2.1-.3-.8-.4-1.7-.4-2.7 0-1.1.2-2.1.7-3.1.5-1 1.1-1.8 2-2.6.9-.7 1.9-1.3 3-1.7 1.2-.4 2.5-.6 3.9-.6 1.6 0 3.1.3 4.6.9s2.9 1.5 4 2.7l-3.1 3.8c-.9-.7-1.8-1.2-2.6-1.6-.9-.4-1.9-.6-2.9-.6s-1.9.2-2.5.6-.9 1-.9 1.8c0 .4.1.8.3 1.1.2.3.5.6.9.8.4.2.8.5 1.3.7.5.2 1 .4 1.6.7l3.5 1.4c1.6.7 2.9 1.6 3.9 2.7.9 1.2 1.4 2.7 1.4 4.6 0 1.1-.2 2.2-.7 3.2-.5 1-1.1 1.9-2 2.6-.9.8-1.9 1.4-3.2 1.8-1.3.4-2.7.7-4.3.7-1.8 0-3.5-.3-5.3-1-1.7-.7-3.3-1.6-4.7-2.9l3.5-3.9zM91.9 120.5H98l-.1 26.9h-6.1l.1-26.9zM116.9 141.1h-8.2l-1.7 6.4h-6.2l8.5-26.9h7.3l8.3 27h-6.4l-1.6-6.5zm-1.2-4.8l-.6-2.5c-.4-1.4-.7-2.8-1.1-4.3-.4-1.5-.7-3-1.1-4.4h-.2c-.3 1.4-.7 2.9-1 4.4-.4 1.5-.7 2.9-1.1 4.3l-.7 2.5h5.8zM128 120.6h6.1V131h9.3v-10.4h6.1l-.1 26.9h-6.1v-11.2H134v11.2h-6.1l.1-26.9zM167.9 120.8h9.2c1.4 0 2.7.1 3.9.3 1.2.2 2.2.6 3.1 1.1.9.5 1.6 1.2 2.1 2.1.5.9.8 1.9.8 3.2 0 .6-.1 1.2-.3 1.8-.2.6-.5 1.2-.8 1.7-.4.5-.8 1-1.4 1.4-.6.4-1.3.7-2 .9v.2c1.9.4 3.4 1.1 4.3 2.1 1 1 1.5 2.4 1.4 4.3 0 1.4-.3 2.6-.8 3.5-.5 1-1.3 1.8-2.2 2.4-1 .6-2.1 1.1-3.3 1.4-1.3.3-2.6.5-4.1.5h-10l.1-26.9zm8.9 10.9c1.5 0 2.6-.3 3.2-.9.7-.6 1-1.4 1-2.4s-.3-1.7-1-2.2c-.7-.4-1.7-.7-3.2-.7h-2.9v6.2h2.9zm.5 11.3c3.3 0 5-1.2 5-3.7 0-1.2-.4-2-1.2-2.6-.8-.5-2.1-.8-3.8-.8h-3.4v7.1h3.4zM205.4 141.4h-8.2l-1.7 6.4h-6.2l8.5-26.9h7.3l8.3 27H207l-1.6-6.5zm-1.2-4.7l-.6-2.5c-.4-1.4-.7-2.8-1.1-4.3-.4-1.5-.7-3-1.1-4.4h-.2c-.3 1.4-.7 2.9-1 4.4-.4 1.5-.7 2.9-1.1 4.3l-.7 2.5h5.8zM231 148l-5.1-9.7h-3.3v9.7h-6.1l.1-26.9h9.7c1.4 0 2.8.2 4 .4 1.3.3 2.3.7 3.3 1.4.9.7 1.7 1.5 2.2 2.6.5 1.1.8 2.4.8 4 0 2-.4 3.6-1.3 4.9-.9 1.3-2 2.2-3.5 2.9l6.1 10.8-6.9-.1zm-8.4-14.6h3.1c1.6 0 2.8-.3 3.7-1 .8-.7 1.3-1.7 1.3-3s-.4-2.2-1.2-2.8c-.8-.5-2.1-.8-3.7-.8h-3.1l-.1 7.6zM246.4 126.2H239v-5.1l20.9.1v5.1h-7.4l-.1 21.8h-6.1l.1-21.9zM264.1 121.2h6.1l-.1 21.8h10.7v5.1l-16.7-.1v-26.8zM285.5 121.3l16.8.1v5.1h-10.8v5.4h9.2v5.1h-9.2v6.2h11.2v5.1l-17.3-.1.1-26.9zM313.4 126.5H306v-5.1l20.9.1v5.1h-7.4l-.1 21.8h-6.1l.1-21.9z"/></g><path class="st0" d="M13.865 174.996l.01-2 67 .287-.01 2zM259.906 176.048l.01-2 67 .288-.01 2z"/></svg>